<?xml version="1.0" encoding="utf-8"?>
<COLLADA xmlns="http://www.collada.org/2005/11/COLLADASchema" version="1.4.1">
  <asset>
    <contributor>
      <author>Blender User</author>
      <authoring_tool>Blender 2.77.0 commit date:2016-03-18, commit time:12:34, hash:22a2853</authoring_tool>
    </contributor>
    <created>2021-11-04T15:54:30</created>
    <modified>2021-11-04T15:54:30</modified>
    <unit name="meter" meter="1"/>
    <up_axis>Z_UP</up_axis>
  </asset>
  <library_images>
    <image id="a006a01_png" name="a006a01_png">
      <init_from>a006a01.png</init_from>
    </image>
  </library_images>
  <library_effects>
    <effect id="a006a01_003-material-effect">
      <profile_COMMON>
        <newparam sid="a006a01_png-surface">
          <surface type="2D">
            <init_from>a006a01_png</init_from>
          </surface>
        </newparam>
        <newparam sid="a006a01_png-sampler">
          <sampler2D>
            <source>a006a01_png-surface</source>
          </sampler2D>
        </newparam>
        <technique sid="common">
          <phong>
            <emission>
              <color sid="emission">0 0 0 1</color>
            </emission>
            <ambient>
              <color sid="ambient">0 0 0 1</color>
            </ambient>
            <diffuse>
              <texture texture="a006a01_png-sampler" texcoord="GeometrySource2"/>
            </diffuse>
            <specular>
              <color sid="specular">0.5 0.5 0.5 1</color>
            </specular>
            <shininess>
              <float sid="shininess">1</float>
            </shininess>
            <index_of_refraction>
              <float sid="index_of_refraction">1</float>
            </index_of_refraction>
          </phong>
        </technique>
      </profile_COMMON>
    </effect>
  </library_effects>
  <library_materials>
    <material id="a006a01_003-material-material" name="a006a01_003-material">
      <instance_effect url="#a006a01_003-material-effect"/>
    </material>
  </library_materials>
  <library_geometries>
    <geometry id="a006_003-mesh" name="a006_003">
      <mesh>
        <source id="a006_003-mesh-positions">
          <float_array id="a006_003-mesh-positions-array" count="816">0.214825 0.434166 -0.132672 0.168445 0.516898 -0.137566 0.142186 0.515626 -0.07338696 0.245077 0.505483 -0.315846 0.152215 0.50844 -0.145223 0.124642 0.505124 -0.08423495 0.13073 0.460372 -0.04256695 0.114654 0.528369 -0.06054598 0.129292 0.472893 -0.026443 0.212211 0.396007 -0.08427995 0.149303 0.468723 -0.03509795 0.153904 0.388253 0.04322499 0.139333 0.378549 0.03361999 0.133639 0.389349 0.04692 0.150141 0.532086 -0.142585 0.240613 0.323033 -0.04630899 0.197423 0.327342 0.02548098 0.190851 0.310258 0.05940699 0.1633239 0.31934 0.09269297 0.147368 0.347557 0.101554 0.122737 0.368902 0.09275996 0.133639 0.389349 0.04692 0.139333 0.378549 0.03361999 0.123174 0.360208 0.08515596 0.190851 0.310258 0.05940699 0.1633239 0.31934 0.09269297 0.197423 0.327342 0.02548098 0 0.015787 -0.141488 0 0.06313997 -0.2003 0.08425498 0.06172597 -0.172553 0.130587 0.02566796 -0.106773 0.150053 0.06287199 -0.1292189 0.169973 0.02673095 -0.05911594 0.128644 0 -0.02732497 0.184812 0.02511399 -0.01041197 0.1746529 0.02228099 0.06468296 0 0 -0.029477 0.1273069 0 0.07203495 0.1245059 0.01814597 0.16073 0 0.01574599 0.1938869 0 0 0.07629895 0.191848 0.05630999 0.144911 0.06461197 0.044918 0.234768 0 0.047378 0.249872 0.1271409 0.04595994 0.201041 0.2206439 0.06120097 0.06050997 0.2193869 0.06427997 -0.008011996 0.240826 0.126597 0.05444395 0.199774 0.06457096 -0.07047599 0.237219 0.1283349 -0.012371 0.237156 0.202871 -0.01348996 0.238227 0.199925 0.05398595 0.215314 0.203074 -0.08243 0.216677 0.1288149 -0.07995796 0.1722609 0.133789 -0.150216 0.216422 0.26053 0.05701798 0.217158 0.263802 -0.01198399 0.09384196 0.135206 -0.201319 0.09479796 0.201206 -0.2016029 0 0.137288 -0.224862 0 0.201186 -0.221626 0.08832597 0.268125 -0.1773999 0.156287 0.267742 -0.1369439 0.07770496 0.315142 -0.143947 0.170104 0.2032279 -0.151591 0 0.268852 -0.1997089 0 0.31543 -0.167482 0.133377 0.316392 -0.106337 0.198077 0.266503 -0.07460099 0.169824 0.313456 -0.05779796 0.111908 0.349319 -0.06147295 0.06130599 0.356384 -0.08322697 0 0.362207 -0.08885198 0.044586 0.376557 -7.8e-5 0 0.378799 0.00129795 0.184538 0.310628 -6.36e-4 0.09573799 0.366046 -0.001084983 0.072923 0.368764 0.070867 0 0.374534 0.07461696 0.122039 0.352201 0.09447598 0.139723 0.347016 -0.02509796 0.135473 0.350927 0.02287697 0.183117 0.309477 0.06324297 0.204825 0.258612 0.123441 0.165976 0.308092 0.124298 0.141508 0.27134 0.185465 0.169244 0.2283999 0.187463 0.224434 0.196119 0.124782 0.176966 0.179769 0.199328 0.22398 0.123627 0.132368 0.192754 0.117523 0.176447 0.129626 0.082363 0.231818 0.068479 0.102063 0.267107 0.1439909 0.330112 0.12676 0.1355479 0.1283079 0.2379879 0.07023096 0.145202 0.271382 0.136031 0.166872 0.237958 0.08439797 0.1753399 0.260131 0.04255998 0.1805379 0.273776 0.04525798 0.215329 0.26636 0.08661097 0.215941 0.251832 0.04919695 0.271768 0.23906 0 0.216096 0.272511 0 0.182498 0.282357 0 0.27269 0.242842 0.05537599 0.323223 0.186043 0 0.326264 0.186834 0.09731197 0.272245 0.222721 0.1051329 0.306085 0.1844 0.05643194 0.355838 0.13638 0.112247 0.350292 0.134513 0.03916597 0.154915 0.283848 0 0.156138 0.290421 0 0.136232 0.28938 0.03370696 0.1279529 0.280914 0 0.35732 0.139894 -0.03916597 0.154915 0.283848 -0.04255998 0.1805379 0.273776 -0.04525798 0.215329 0.26636 -0.04919695 0.271768 0.23906 -0.08661097 0.215941 0.251832 -0.08439797 0.1753399 0.260131 -0.05537599 0.323223 0.186043 -0.09731197 0.272245 0.222721 -0.1051329 0.306085 0.1844 -0.112247 0.350044 0.134513 -0.05643194 0.355838 0.13638 -0.141508 0.27134 0.185465 -0.1439909 0.329863 0.12676 -0.165976 0.308092 0.124298 -0.204825 0.258612 0.123441 -0.183117 0.309477 0.06324297 -0.216422 0.26053 0.05701798 -0.169244 0.2283999 0.187463 -0.224434 0.196119 0.124782 -0.238227 0.199925 0.05398595 -0.237156 0.202871 -0.01348996 -0.240826 0.126597 0.05444395 -0.237219 0.1283349 -0.012371 -0.215314 0.203074 -0.08243 -0.216677 0.1288149 -0.07995796 -0.199774 0.06457096 -0.07047599 -0.1722609 0.133789 -0.150216 -0.217158 0.263802 -0.01198399 -0.2193869 0.06427997 -0.008011996 -0.2206439 0.06120097 0.06050997 -0.184812 0.02511399 -0.01041197 -0.169973 0.02673095 -0.05911594 -0.128644 0 -0.02732497 -0.1746529 0.02228099 0.06468296 -0.130587 0.02566796 -0.106773 -0.150053 0.06287199 -0.1292189 -0.1273069 0 0.07203495 -0.1245059 0.01814597 0.16073 -0.191848 0.05630999 0.144911 -0.06461197 0.044918 0.234768 -0.1271409 0.04595994 0.201041 -0.08425498 0.06172597 -0.172553 -0.09384196 0.135206 -0.201319 -0.09479796 0.201206 -0.2016029 -0.08832597 0.268125 -0.1773999 -0.156287 0.267742 -0.1369439 -0.07770496 0.315142 -0.143947 -0.170104 0.2032279 -0.151591 -0.133377 0.316392 -0.106337 -0.198077 0.266503 -0.07460099 -0.169824 0.313456 -0.05779796 -0.111908 0.349319 -0.06147295 -0.06130599 0.356384 -0.08322697 -0.044586 0.376557 -7.8e-5 -0.184538 0.310628 -6.36e-4 -0.09573799 0.366046 -0.001084983 -0.072923 0.368764 0.070867 -0.122039 0.352201 0.09447598 -0.139723 0.347016 -0.02509796 -0.135473 0.350927 0.02287697 -0.1633239 0.31934 0.09269297 0.169244 0.2283999 0.187463 0.141508 0.27134 0.185465 0.137172 0.2151859 0.231748 0.09731197 0.272245 0.222721 0.08661097 0.215941 0.251832 0.08439797 0.1753399 0.260131 0.176966 0.179769 0.199328 0.136031 0.166872 0.237958 0.021052 0.139641 0.28122 0 0.100937 0.279242 0 0.137261 0.285432 0.04938995 0.142846 0.27555 -0.021052 0.139641 0.28122 -0.04938995 0.142846 0.27555 -0.068479 0.102063 0.267107 -0.07023096 0.145202 0.271382 -0.1355479 0.1283079 0.2379879 -0.136031 0.166872 0.237958 -0.129626 0.082363 0.231818 -0.176966 0.179769 0.199328 -0.192754 0.117523 0.176447 -0.22398 0.123627 0.132368 -0.03370696 0.1279529 0.280914 0.1633239 0.31934 0.09269297 -0.168445 0.514415 -0.137566 -0.214825 0.431683 -0.132672 -0.142186 0.513143 -0.07338696 -0.245077 0.503 -0.315846 -0.152215 0.505957 -0.145223 -0.124642 0.502641 -0.08423495 -0.13073 0.457889 -0.04256796 -0.114654 0.525886 -0.06054699 -0.129292 0.47041 -0.026443 -0.212211 0.393523 -0.08427995 -0.149303 0.466239 -0.03509896 -0.153904 0.38577 0.04322499 -0.139333 0.376066 0.03361999 -0.133639 0.386866 0.04692 -0.150141 0.529603 -0.142585 -0.240613 0.320551 -0.04630899 -0.197423 0.32486 0.02548098 -0.190851 0.307776 0.05940699 -0.1633239 0.31934 0.09269297 -0.122784 0.36768 0.09273499 -0.127776 0.368927 0.09830296 -0.139333 0.376066 0.03361999 -0.133639 0.386866 0.04692 -0.123168 0.358943 0.08515095 -0.1633239 0.31934 0.09269297 -0.190851 0.307776 0.05940699 -0.197423 0.32486 0.02548098 -0.122039 0.352201 0.09447598 -0.112247 0.350044 0.134513 -0.141508 0.27134 0.185465 -0.169244 0.2283999 0.187463 -0.137172 0.2151859 0.231748 -0.09731197 0.272245 0.222721 -0.08661097 0.215941 0.251832 -0.08439797 0.1753399 0.260131 -0.176966 0.179769 0.199328 -0.136031 0.166872 0.237958 0 0.16635 0.191144 0 0.123472 0.1198289 0.09810596 0.137874 0.14827 0.102651 0.122789 0.205592 0.06981295 0.115914 0.236484 0.07023096 0.145202 0.271382 0 0.104036 0.263606 0.07023096 0.145202 0.271382 0.102651 0.122789 0.205592 0 0.149359 0.272294 0 0.136232 0.28938 0.03370696 0.1279529 0.280914 0.021052 0.139641 0.28122 0.04938995 0.142846 0.27555 0 0.137261 0.285432 -0.09810596 0.137874 0.14827 -0.07023096 0.145202 0.271382 -0.102651 0.122789 0.205592 -0.102651 0.122789 0.205592 -0.03370696 0.1279529 0.280914 -0.021052 0.139641 0.28122 -0.06981295 0.115914 0.236484 -0.07023096 0.145202 0.271382 -0.04938995 0.142846 0.27555 0.1439909 0.330112 0.12676 0.1277469 0.370167 0.09829598 0.112247 0.350292 0.134513 0.122039 0.352201 0.09447598 0.112247 0.350292 0.134513 0.122737 0.368902 0.09275996 -0.14736 0.346272 0.101568 -0.1439909 0.329863 0.12676 -0.112247 0.350044 0.134513 -0.122784 0.36768 0.09273499</float_array>
          <technique_common>
            <accessor source="#a006_003-mesh-positions-array" count="272" stride="3">
              <param name="X" type="float"/>
              <param name="Y" type="float"/>
              <param name="Z" type="float"/>
            </accessor>
          </technique_common>
        </source>
        <source id="a006_003-mesh-normals">
          <float_array id="a006_003-mesh-normals-array" count="816">0.6767891 -0.6827098 -0.2754338 0.710847 0.6436443 0.2835819 0.6475848 0.6454789 0.4049579 0.3689513 0.06946253 -0.9268495 -0.8376948 -0.3436172 -0.4244935 -0.8863488 -0.2909429 -0.3601917 -0.8860234 -0.3774572 -0.2692373 -0.5838885 0.7173479 0.3801135 -0.5539543 0.451196 0.6996834 0.6609284 -0.4785139 -0.5780988 0.650888 0.5334492 0.5401635 0.5630409 0.629816 0.5350857 -0.8185567 -0.4545232 -0.351246 -0.3189911 0.7675074 0.556037 -0.3798409 0.8919823 -0.2451295 0.6753049 -0.6219263 -0.3964483 0.8782213 0.1282113 0.4607487 0.7707731 0.457184 0.4437248 0.810682 0.4082861 0.4196392 0.74953 0.4967364 0.437559 -0.3698006 0.9065715 0.2034102 -0.9471679 -0.0704081 -0.3129149 -0.7835894 -0.4717102 -0.404323 -0.8848435 -0.2833709 -0.3698013 -0.6488693 -0.6430706 -0.4067297 -0.6355423 -0.6525723 -0.4125959 -0.6267467 -0.6404194 -0.4439049 0 -0.8960449 -0.4439634 0 -0.5594803 -0.8288438 0.3385232 -0.5761487 -0.7439454 0.3766075 -0.7994211 -0.4680736 0.5768439 -0.5094881 -0.6384928 0.5616425 -0.7648996 -0.3154146 0.2260851 -0.9667521 -0.1194821 0.601817 -0.792992 -0.09476351 0.536768 -0.8360983 0.1132254 0 -0.9974991 -0.07068097 0.2314897 -0.9680452 0.09644132 0.3184644 -0.8836435 0.3431542 0 -0.9408625 0.3387886 0 -0.9976919 0.06790441 0.7146437 -0.5724536 0.4019718 0.2170835 -0.7106412 0.6692265 0 -0.6843349 0.7291679 0.4534899 -0.6771677 0.5794746 0.8427234 -0.527736 0.106359 0.870124 -0.4684649 -0.1530522 0.9886717 -0.1292186 0.07635921 0.7827595 -0.4752163 -0.4018173 0.9747022 -0.1370937 -0.1765249 0.9740862 0.1646214 -0.1550993 0.9791963 0.1820753 0.08957272 0.8958367 0.1472562 -0.4192759 0.8978921 -0.1447809 -0.4157264 0.690715 -0.1797897 -0.7004202 0.8927936 0.4407049 0.09326827 0.8907968 0.4402102 -0.1126772 0.3964741 -0.1861667 -0.8989717 0.3781674 0.1694749 -0.9100922 0 -0.1390154 -0.9902902 0 0.18821 -0.9821288 0.3352227 0.4670045 -0.8182497 0.6194232 0.4535498 -0.6407868 0.2842873 0.7165016 -0.6370293 0.6976976 0.1520157 -0.7000781 0 0.4435353 -0.8962569 0 0.7080675 -0.7061448 0.4851375 0.7180011 -0.4991154 0.8201228 0.4302349 -0.3772223 0.6731048 0.676706 -0.2983269 0.3509104 0.8825255 -0.3130666 0.198193 0.9094173 -0.3656225 0 0.9300428 -0.3674514 0.1230844 0.9896804 -0.07336843 0 0.9982385 -0.05932849 0.74211 0.6683446 -0.05087584 0.2667375 0.9606516 -0.0774576 0.174598 0.9778225 0.1156662 0 0.9880714 0.153997 0.3954097 0.9137822 0.09302318 0.5053322 0.8489447 -0.1547003 0.4983514 0.866385 0.03198432 0.7172586 0.6857019 0.1239073 0.8190487 0.4291635 0.3807598 0.6958048 0.6071773 0.3836555 0.5990337 0.5347905 0.5959512 0.7425933 0.3444092 0.5744019 0.9121029 0.1644996 0.3755107 0.7801933 0.06546372 0.6221038 0.9105467 -0.1417931 0.388329 0.774338 -0.1680397 0.6100521 0.5338125 -0.3857635 0.7524831 0.2901788 -0.2904536 0.9118295 0.6095556 0.6130653 0.5025866 0.5866085 -0.09811902 0.803905 0.3569843 0.01547324 0.9339822 0.575616 0.01211595 0.8176305 0.3607344 0.1657181 0.917828 0.2819348 0.2326465 0.9307999 0.2326782 0.3056801 0.9232662 0.310224 0.3021365 0.9013738 0.1751484 0.5636553 0.8072273 0 0.3621429 0.9321227 0 0.2784879 0.9604399 0 0.5958952 0.8030623 0.137822 0.7588148 0.6365573 0 0.7826403 0.6224743 0.3294562 0.5871614 0.7393918 0.4053863 0.6480749 0.6447178 0.08102899 0.9166806 0.3913197 0.2976823 0.8360374 0.4608979 0.2923399 0.09866738 0.951211 0 0.1231144 0.9923925 0 -0.08893138 0.9960379 0.2526991 -0.1550681 0.9550378 0 0.9106673 0.4131406 -0.2923399 0.09866738 0.951211 -0.2819348 0.2326465 0.9307999 -0.2326782 0.3056801 0.9232662 -0.1751484 0.5636553 0.8072273 -0.310224 0.3021365 0.9013738 -0.3607344 0.1657181 0.917828 -0.1382836 0.7590491 0.6361778 -0.3294562 0.5871614 0.7393918 -0.4056959 0.6488143 0.6437786 -0.2988758 0.8355582 0.4609944 -0.08285963 0.9164919 0.3913784 -0.5989492 0.5352851 0.595592 -0.6078205 0.6152061 0.5020714 -0.6941586 0.6088271 0.3840228 -0.8190487 0.4291635 0.3807598 -0.7172586 0.6857019 0.1239073 -0.8927936 0.4407049 0.09326827 -0.7425933 0.3444092 0.5744019 -0.9121029 0.1644996 0.3755107 -0.9791963 0.1820753 0.08957272 -0.9740862 0.1646214 -0.1550993 -0.9886717 -0.1292186 0.07635921 -0.9747022 -0.1370937 -0.1765249 -0.8958367 0.1472562 -0.4192759 -0.8978921 -0.1447809 -0.4157264 -0.7827595 -0.4752163 -0.4018173 -0.690715 -0.1797897 -0.7004202 -0.8907968 0.4402102 -0.1126772 -0.870124 -0.4684649 -0.1530522 -0.8427234 -0.527736 0.106359 -0.601817 -0.792992 -0.09476351 -0.5616425 -0.7648996 -0.3154146 -0.2260851 -0.9667521 -0.1194821 -0.536768 -0.8360983 0.1132254 -0.3766075 -0.7994211 -0.4680736 -0.5768439 -0.5094881 -0.6384928 -0.2314897 -0.9680452 0.09644132 -0.3184644 -0.8836435 0.3431542 -0.7146437 -0.5724536 0.4019718 -0.2170835 -0.7106412 0.6692265 -0.4534899 -0.6771677 0.5794746 -0.3385232 -0.5761487 -0.7439454 -0.3964741 -0.1861667 -0.8989717 -0.3781674 0.1694749 -0.9100922 -0.3352227 0.4670045 -0.8182497 -0.6194232 0.4535498 -0.6407868 -0.2842873 0.7165016 -0.6370293 -0.6976976 0.1520157 -0.7000781 -0.4851375 0.7180011 -0.4991154 -0.8201228 0.4302349 -0.3772223 -0.6731048 0.676706 -0.2983269 -0.3509104 0.8825255 -0.3130666 -0.198193 0.9094173 -0.3656225 -0.1230844 0.9896804 -0.07336843 -0.74211 0.6683446 -0.05087584 -0.2667375 0.9606516 -0.0774576 -0.174903 0.9776993 0.1162459 -0.394402 0.9139945 0.09518992 -0.5053322 0.8489447 -0.1547003 -0.4983514 0.866385 0.03198432 -0.3252737 -0.8469691 -0.4205242 0.6967855 0.3694052 0.6148412 0.6049166 0.4781102 0.6367784 0.5563597 0.2833681 0.7811315 0.4815014 0.4548887 0.7491548 0.3599178 0.2588368 0.8963609 0.3854587 0.1392289 0.9121606 0.7142201 0.18443 0.6751855 0.5334448 0.09540295 0.8404374 0.1941031 -0.1412435 0.9707597 0 -0.3180675 0.9480681 0 -0.167976 0.9857911 0.2064628 -0.1047421 0.9728322 -0.1941031 -0.1412435 0.9707597 -0.2064628 -0.1047421 0.9728322 -0.2901788 -0.2904536 0.9118295 -0.3569843 0.01547324 0.9339822 -0.5866085 -0.09811902 0.803905 -0.575616 0.01211595 0.8176305 -0.5338125 -0.3857635 0.7524831 -0.7801933 0.06546372 0.6221038 -0.774338 -0.1680397 0.6100521 -0.9105467 -0.1417931 0.388329 -0.2526991 -0.1550681 0.9550378 0.3291212 -0.8456317 -0.4202216 -0.710847 0.6436443 0.2835819 -0.6767891 -0.6827098 -0.2754338 -0.6475848 0.6454789 0.4049579 -0.3689506 0.06949293 -0.9268475 0.8376948 -0.3436172 -0.4244935 0.886341 -0.2909708 -0.3601886 0.8860234 -0.3774572 -0.2692373 0.5838885 0.7173479 0.3801135 0.5539255 0.4512279 0.6996856 -0.6609284 -0.4785139 -0.5780988 -0.6509057 0.5334387 0.5401529 -0.5652509 0.6326685 0.5293601 0.8185654 -0.454528 -0.3512192 0.321028 0.7755456 0.5435717 0.3798409 0.8919823 -0.2451295 -0.6753049 -0.6219263 -0.3964483 -0.8782213 0.1282113 0.4607487 -0.7780936 0.4578224 0.4300802 -0.8118974 0.4172559 0.4083139 0.3575379 0.9145218 0.1892524 -0.09058117 0.9058732 0.4137498 0.7835715 -0.4806719 -0.3936626 0.9474775 -0.07150715 -0.311726 0.8847504 -0.2978059 -0.3585085 0.6469494 -0.6598896 -0.3821024 0.6585678 -0.6438882 -0.3894824 0.6267345 -0.6404374 -0.4438962 0.831443 -0.3975777 -0.3881166 0.9768556 0.01519846 -0.2133591 -0.6049166 0.4781102 0.6367784 -0.6967855 0.3694052 0.6148412 -0.5563597 0.2833681 0.7811315 -0.4815014 0.4548887 0.7491548 -0.3599178 0.2588368 0.8963609 -0.3854587 0.1392289 0.9121606 -0.7142201 0.18443 0.6751855 -0.5334448 0.09540295 0.8404374 0 -0.9895128 0.1444457 0 0.2254724 0.9742496 -0.7599521 -0.08899319 0.6438581 -0.249002 0.9677173 0.03900289 -0.3457176 0.8915169 -0.2927064 -0.3181883 0.7280548 -0.6072006 0 0.8902071 -0.4555562 -0.2686638 -0.9193105 -0.2875553 -0.7204775 -0.6825721 -0.1225059 0 -0.9094046 -0.4159126 0 -0.6726743 -0.7399387 -0.2466269 -0.0132454 -0.96902 -0.2907586 0.6080691 -0.7387228 -0.2102462 0.750099 -0.6270154 0 0.5490391 -0.8357967 0.7599521 -0.08899319 0.6438581 0.2686638 -0.9193105 -0.2875553 0.249002 0.9677173 0.03900289 0.7204775 -0.6825721 -0.1225059 0.2466269 -0.0132454 -0.96902 0.2907586 0.6080691 -0.7387228 0.3457176 0.8915169 -0.2927064 0.3181883 0.7280548 -0.6072006 0.2102462 0.750099 -0.6270154 0.6898056 0.5335754 0.4893524 0.07986766 0.8996636 0.4292164 0.4557412 0.6835355 0.5701572 -0.8250563 -0.3750201 -0.4226605 -0.9767703 0.01110899 -0.2140013 -0.9753097 0.1155771 -0.1881828 -0.7502036 0.5047645 0.427092 -0.6875743 0.5458416 0.4788513 -0.4576644 0.6926614 0.5574617 0.9745098 0.1211003 -0.188853</float_array>
          <technique_common>
            <accessor source="#a006_003-mesh-normals-array" count="272" stride="3">
              <param name="X" type="float"/>
              <param name="Y" type="float"/>
              <param name="Z" type="float"/>
            </accessor>
          </technique_common>
        </source>
        <source id="a006_003-mesh-map-0">
          <float_array id="a006_003-mesh-map-0-array" count="2640">0.463607 0.09634196 0.529402 0.189365 0.467958 0.244692 0.463607 0.09634196 0.688935 0.01883697 0.529402 0.189365 0.529402 0.189365 0.688935 0.01883697 0.463607 0.09634196 0.467958 0.244692 0.529402 0.189365 0.463607 0.09634196 0.467958 0.244692 0.463607 0.09634196 0.397373 0.229961 0.397373 0.229961 0.466022 0.283943 0.467958 0.244692 0.397373 0.229961 0.391418 0.25386 0.466022 0.283943 0.397373 0.229961 0.463607 0.09634196 0.38959 0.09812998 0.463607 0.09634196 0.467958 0.244692 0.397373 0.229961 0.38959 0.09812998 0.463607 0.09634196 0.397373 0.229961 0.466022 0.283943 0.397373 0.229961 0.467958 0.244692 0.466022 0.283943 0.391418 0.25386 0.397373 0.229961 0.38959 0.09812998 0.397373 0.229961 0.263185 0.210107 0.263185 0.210107 0.397373 0.229961 0.391418 0.25386 0.397373 0.229961 0.38959 0.09812998 0.263185 0.210107 0.260046 0.2346799 0.397373 0.229961 0.263185 0.210107 0.260046 0.2346799 0.391418 0.25386 0.397373 0.229961 0.260046 0.2346799 0.263185 0.210107 0.391418 0.25386 0.547296 0.212603 0.467958 0.244692 0.466022 0.283943 0.547296 0.212603 0.529402 0.189365 0.467958 0.244692 0.547296 0.212603 0.688935 0.01883697 0.529402 0.189365 0.467958 0.244692 0.547296 0.212603 0.466022 0.283943 0.467958 0.244692 0.529402 0.189365 0.547296 0.212603 0.547296 0.212603 0.529402 0.189365 0.688935 0.01883697 0.38959 0.09812998 0.29969 0.04492199 0.263185 0.210107 0.38959 0.09812998 0.263185 0.210107 0.29969 0.04492199 0.29969 0.04492199 0.263185 0.210107 0.239967 0.11785 0.29969 0.04492199 0.239967 0.11785 0.263185 0.210107 0.1905199 0.133502 0.239967 0.11785 0.263185 0.210107 0.1905199 0.133502 0.263185 0.210107 0.167104 0.181536 0.263185 0.210107 0.187407 0.215748 0.167104 0.181536 0.263185 0.210107 0.260046 0.2346799 0.201418 0.254025 0.129066 0.294784 0.122275 0.26786 0.08015298 0.293165 0.122275 0.26786 0.05914896 0.19422 0.035501 0.242735 0.05914896 0.19422 0.122275 0.26786 0.104119 0.182578 0.665408 0.381134 0.737355 0.484577 0.653124 0.489895 0.665408 0.381134 0.653124 0.489895 0.563341 0.44942 0.653124 0.489895 0.583554 0.501314 0.563341 0.44942 0.583554 0.501314 0.502692 0.468994 0.563341 0.44942 0.563341 0.44942 0.502692 0.468994 0.472973 0.417632 0.665408 0.381134 0.563341 0.44942 0.472973 0.417632 0.502692 0.468994 0.45367 0.472212 0.472973 0.417632 0.472973 0.417632 0.45367 0.472212 0.380133 0.453881 0.510302 0.319236 0.665408 0.381134 0.472973 0.417632 0.472973 0.417632 0.380133 0.453881 0.372209 0.401405 0.372209 0.401405 0.380133 0.453881 0.268763 0.427779 0.2019529 0.30773 0.372209 0.401405 0.268763 0.427779 0.368982 0.267862 0.510302 0.319236 0.472973 0.417632 0.372209 0.401405 0.368982 0.267862 0.472973 0.417632 0.368982 0.267862 0.372209 0.401405 0.2019529 0.30773 0.29971 0.498275 0.268763 0.427779 0.380133 0.453881 0.2019529 0.30773 0.268763 0.427779 0.123436 0.429377 0.2019529 0.30773 0.123436 0.429377 0.05475997 0.409476 0.268763 0.427779 0.219448 0.454858 0.123436 0.429377 0.29971 0.498275 0.219448 0.454858 0.268763 0.427779 0.45367 0.472212 0.384598 0.51542 0.380133 0.453881 0.380133 0.453881 0.384598 0.51542 0.29971 0.498275 0.45367 0.472212 0.447211 0.519184 0.384598 0.51542 0.447211 0.519184 0.45367 0.472212 0.502692 0.468994 0.447211 0.519184 0.389021 0.57763 0.384598 0.51542 0.583554 0.501314 0.506907 0.514504 0.502692 0.468994 0.447211 0.519184 0.502692 0.468994 0.506907 0.514504 0.447211 0.519184 0.450048 0.578584 0.389021 0.57763 0.450048 0.578584 0.447211 0.519184 0.506907 0.514504 0.389021 0.57763 0.450048 0.578584 0.453062 0.646043 0.389021 0.57763 0.453062 0.646043 0.389518 0.645631 0.450048 0.578584 0.520801 0.644131 0.453062 0.646043 0.450048 0.578584 0.514533 0.575416 0.520801 0.644131 0.450048 0.578584 0.506907 0.514504 0.514533 0.575416 0.593838 0.571448 0.520801 0.644131 0.514533 0.575416 0.583554 0.501314 0.653124 0.489895 0.593838 0.571448 0.583554 0.501314 0.593838 0.571448 0.506907 0.514504 0.593838 0.571448 0.514533 0.575416 0.506907 0.514504 0.453062 0.646043 0.387799 0.708366 0.389518 0.645631 0.456861 0.70632 0.453062 0.646043 0.520801 0.644131 0.453062 0.646043 0.456861 0.70632 0.387799 0.708366 0.667849 0.567674 0.653124 0.489895 0.737355 0.484577 0.653124 0.489895 0.667849 0.567674 0.593838 0.571448 0.667849 0.567674 0.667788 0.640124 0.593838 0.571448 0.749714 0.566182 0.667788 0.640124 0.667849 0.567674 0.667849 0.567674 0.737355 0.484577 0.749714 0.566182 0.749714 0.566182 0.753467 0.636904 0.667788 0.640124 0.660168 0.712148 0.667788 0.640124 0.753467 0.636904 0.58612 0.707444 0.667788 0.640124 0.660168 0.712148 0.660168 0.712148 0.642363 0.781634 0.58612 0.707444 0.58612 0.707444 0.590556 0.641913 0.667788 0.640124 0.590556 0.641913 0.593838 0.571448 0.667788 0.640124 0.593838 0.571448 0.590556 0.641913 0.520801 0.644131 0.642363 0.781634 0.660168 0.712148 0.749437 0.71584 0.660168 0.712148 0.753467 0.636904 0.749437 0.71584 0.72268 0.792515 0.642363 0.781634 0.749437 0.71584 0.642363 0.781634 0.576064 0.774361 0.58612 0.707444 0.520801 0.644131 0.590556 0.641913 0.521366 0.707912 0.456861 0.70632 0.520801 0.644131 0.521366 0.707912 0.590556 0.641913 0.58612 0.707444 0.521366 0.707912 0.517522 0.769461 0.521366 0.707912 0.58612 0.707444 0.456861 0.70632 0.521366 0.707912 0.517522 0.769461 0.517522 0.769461 0.58612 0.707444 0.576064 0.774361 0.548422 0.844392 0.517522 0.769461 0.576064 0.774361 0.576064 0.774361 0.642363 0.781634 0.606088 0.867744 0.576064 0.774361 0.606088 0.867744 0.548422 0.844392 0.606088 0.867744 0.642363 0.781634 0.72268 0.792515 0.606088 0.867744 0.72268 0.792515 0.66093 0.909797 0.496275 0.930382 0.606088 0.867744 0.66093 0.909797 0.496275 0.930382 0.548422 0.844392 0.606088 0.867744 0.496275 0.930382 0.66093 0.909797 0.508268 0.974284 0.452543 0.764841 0.456861 0.70632 0.517522 0.769461 0.452543 0.764841 0.387799 0.708366 0.456861 0.70632 0.496275 0.930382 0.470037 0.877663 0.548422 0.844392 0.377029 0.904774 0.470037 0.877663 0.496275 0.930382 0.508268 0.974284 0.378801 0.99246 0.496275 0.930382 0.378801 0.99246 0.377029 0.904774 0.496275 0.930382 0.377029 0.904774 0.333956 0.863763 0.470037 0.877663 0.470037 0.877663 0.491046 0.834877 0.548422 0.844392 0.491046 0.834877 0.517522 0.769461 0.548422 0.844392 0.452543 0.764841 0.517522 0.769461 0.491046 0.834877 0.452543 0.764841 0.491046 0.834877 0.423604 0.834248 0.470037 0.877663 0.423604 0.834248 0.491046 0.834877 0.333956 0.863763 0.423604 0.834248 0.470037 0.877663 0.452543 0.764841 0.382598 0.770965 0.387799 0.708366 0.382598 0.770965 0.452543 0.764841 0.423604 0.834248 0.382598 0.770965 0.317506 0.710766 0.387799 0.708366 0.389518 0.645631 0.387799 0.708366 0.317506 0.710766 0.382598 0.770965 0.423604 0.834248 0.311164 0.780586 0.382598 0.770965 0.311164 0.780586 0.317506 0.710766 0.311164 0.780586 0.237582 0.753618 0.317506 0.710766 0.317506 0.710766 0.237582 0.753618 0.2407529 0.688107 0.2407529 0.688107 0.318218 0.643356 0.317506 0.710766 0.389518 0.645631 0.317506 0.710766 0.318218 0.643356 0.318218 0.643356 0.389021 0.57763 0.389518 0.645631 0.318218 0.643356 0.2407529 0.688107 0.231079 0.635695 0.312882 0.570756 0.318218 0.643356 0.231079 0.635695 0.312882 0.570756 0.29971 0.498275 0.384598 0.51542 0.389021 0.57763 0.312882 0.570756 0.384598 0.51542 0.389021 0.57763 0.318218 0.643356 0.312882 0.570756 0.29971 0.498275 0.312882 0.570756 0.258503 0.557574 0.312882 0.570756 0.231079 0.635695 0.258503 0.557574 0.190298 0.50906 0.123436 0.429377 0.219448 0.454858 0.190298 0.50906 0.219448 0.454858 0.29971 0.498275 0.258503 0.557574 0.190298 0.50906 0.29971 0.498275 0.190298 0.50906 0.110747 0.531982 0.123436 0.429377 0.237582 0.753618 0.311164 0.780586 0.303728 0.816587 0.258503 0.557574 0.184063 0.564697 0.190298 0.50906 0.258503 0.557574 0.231079 0.635695 0.184063 0.564697 0.184063 0.564697 0.110747 0.531982 0.190298 0.50906 0.184063 0.564697 0.105572 0.609184 0.110747 0.531982 0.231079 0.635695 0.1771 0.616481 0.184063 0.564697 0.105572 0.609184 0.184063 0.564697 0.1771 0.616481 0.105572 0.609184 0.1771 0.616481 0.131695 0.64282 0.105572 0.609184 0.131695 0.64282 0.08004599 0.673477 0.08004599 0.673477 0.131695 0.64282 0.09790199 0.71482 0.131695 0.64282 0.14886 0.696136 0.09790199 0.71482 0.09790199 0.71482 0.14886 0.696136 0.140091 0.790889 0.09790199 0.71482 0.140091 0.790889 0.05174398 0.743824 0.09790199 0.71482 0.03127199 0.693478 0.08004599 0.673477 0.09790199 0.71482 0.05174398 0.743824 0.03127199 0.693478 0.140091 0.790889 0.088081 0.813063 0.05174398 0.743824 0.193414 0.856384 0.088081 0.813063 0.140091 0.790889 0.193414 0.856384 0.141364 0.892277 0.088081 0.813063 0.1915299 0.771837 0.193414 0.856384 0.140091 0.790889 0.14886 0.696136 0.1915299 0.771837 0.140091 0.790889 0.1915299 0.771837 0.224673 0.808369 0.193414 0.856384 0.237582 0.753618 0.224673 0.808369 0.1915299 0.771837 0.237582 0.753618 0.303728 0.816587 0.224673 0.808369 0.27194 0.914128 0.141364 0.892277 0.193414 0.856384 0.378801 0.99246 0.27194 0.914128 0.377029 0.904774 0.377029 0.904774 0.27194 0.914128 0.288236 0.862531 0.08004599 0.673477 0.03127199 0.693478 0.06682497 0.638437 0.06682497 0.638437 0.105572 0.609184 0.08004599 0.673477 0.03127199 0.693478 0.01483196 0.665488 0.06682497 0.638437 0.06682497 0.638437 0.01483196 0.665488 0.01001 0.628773 0.06682497 0.638437 0.01001 0.628773 0.05363696 0.602652 0.06682497 0.638437 0.05363696 0.602652 0.105572 0.609184 0.378801 0.99246 0.254114 0.970978 0.27194 0.914128 0.27194 0.914128 0.254114 0.970978 0.141364 0.892277 0.01483196 0.665488 0.03127199 0.693478 0.06682497 0.638437 0.01483196 0.665488 0.06682497 0.638437 0.01001 0.628773 0.03127199 0.693478 0.08004599 0.673477 0.06682497 0.638437 0.03127199 0.693478 0.09790199 0.71482 0.08004599 0.673477 0.05174398 0.743824 0.09790199 0.71482 0.03127199 0.693478 0.140091 0.790889 0.09790199 0.71482 0.05174398 0.743824 0.088081 0.813063 0.140091 0.790889 0.05174398 0.743824 0.14886 0.696136 0.09790199 0.71482 0.140091 0.790889 0.14886 0.696136 0.131695 0.64282 0.09790199 0.71482 0.131695 0.64282 0.08004599 0.673477 0.09790199 0.71482 0.088081 0.813063 0.193414 0.856384 0.140091 0.790889 0.141364 0.892277 0.193414 0.856384 0.088081 0.813063 0.193414 0.856384 0.1915299 0.771837 0.140091 0.790889 0.1915299 0.771837 0.14886 0.696136 0.140091 0.790889 0.224673 0.808369 0.1915299 0.771837 0.193414 0.856384 0.193414 0.856384 0.288236 0.862531 0.224673 0.808369 0.27194 0.914128 0.288236 0.862531 0.193414 0.856384 0.254114 0.970978 0.27194 0.914128 0.141364 0.892277 0.254114 0.970978 0.378801 0.99246 0.27194 0.914128 0.141364 0.892277 0.27194 0.914128 0.193414 0.856384 0.224673 0.808369 0.237582 0.753618 0.1915299 0.771837 0.224673 0.808369 0.288236 0.862531 0.303728 0.816587 0.311164 0.780586 0.237582 0.753618 0.303728 0.816587 0.237582 0.753618 0.311164 0.780586 0.317506 0.710766 0.311164 0.780586 0.382598 0.770965 0.317506 0.710766 0.317506 0.710766 0.382598 0.770965 0.387799 0.708366 0.237582 0.753618 0.317506 0.710766 0.2407529 0.688107 0.318218 0.643356 0.2407529 0.688107 0.317506 0.710766 0.317506 0.710766 0.389518 0.645631 0.318218 0.643356 0.387799 0.708366 0.389518 0.645631 0.317506 0.710766 0.387799 0.708366 0.453062 0.646043 0.389518 0.645631 0.389021 0.57763 0.318218 0.643356 0.389518 0.645631 0.453062 0.646043 0.389021 0.57763 0.389518 0.645631 0.450048 0.578584 0.389021 0.57763 0.453062 0.646043 0.520801 0.644131 0.450048 0.578584 0.453062 0.646043 0.514533 0.575416 0.450048 0.578584 0.520801 0.644131 0.506907 0.514504 0.450048 0.578584 0.514533 0.575416 0.520801 0.644131 0.593838 0.571448 0.514533 0.575416 0.514533 0.575416 0.593838 0.571448 0.506907 0.514504 0.453062 0.646043 0.456861 0.70632 0.520801 0.644131 0.456861 0.70632 0.453062 0.646043 0.387799 0.708366 0.450048 0.578584 0.447211 0.519184 0.389021 0.57763 0.447211 0.519184 0.450048 0.578584 0.506907 0.514504 0.389021 0.57763 0.447211 0.519184 0.384598 0.51542 0.447211 0.519184 0.45367 0.472212 0.384598 0.51542 0.45367 0.472212 0.447211 0.519184 0.502692 0.468994 0.502692 0.468994 0.447211 0.519184 0.506907 0.514504 0.45367 0.472212 0.502692 0.468994 0.472973 0.417632 0.665408 0.381134 0.510302 0.319236 0.472973 0.417632 0.510302 0.319236 0.368982 0.267862 0.472973 0.417632 0.384598 0.51542 0.45367 0.472212 0.380133 0.453881 0.45367 0.472212 0.472973 0.417632 0.380133 0.453881 0.502692 0.468994 0.563341 0.44942 0.472973 0.417632 0.563341 0.44942 0.665408 0.381134 0.472973 0.417632 0.502692 0.468994 0.583554 0.501314 0.563341 0.44942 0.506907 0.514504 0.583554 0.501314 0.502692 0.468994 0.593838 0.571448 0.583554 0.501314 0.506907 0.514504 0.368982 0.267862 0.372209 0.401405 0.472973 0.417632 0.380133 0.453881 0.472973 0.417632 0.372209 0.401405 0.372209 0.401405 0.368982 0.267862 0.2019529 0.30773 0.380133 0.453881 0.372209 0.401405 0.268763 0.427779 0.372209 0.401405 0.2019529 0.30773 0.268763 0.427779 0.384598 0.51542 0.380133 0.453881 0.29971 0.498275 0.268763 0.427779 0.29971 0.498275 0.380133 0.453881 0.268763 0.427779 0.2019529 0.30773 0.123436 0.429377 0.219448 0.454858 0.268763 0.427779 0.123436 0.429377 0.219448 0.454858 0.29971 0.498275 0.268763 0.427779 0.737355 0.484577 0.665408 0.381134 0.653124 0.489895 0.583554 0.501314 0.653124 0.489895 0.563341 0.44942 0.653124 0.489895 0.665408 0.381134 0.563341 0.44942 0.653124 0.489895 0.583554 0.501314 0.593838 0.571448 0.653124 0.489895 0.667849 0.567674 0.737355 0.484577 0.667849 0.567674 0.653124 0.489895 0.593838 0.571448 0.737355 0.484577 0.667849 0.567674 0.749714 0.566182 0.667788 0.640124 0.749714 0.566182 0.667849 0.567674 0.667788 0.640124 0.667849 0.567674 0.593838 0.571448 0.753467 0.636904 0.749714 0.566182 0.667788 0.640124 0.667788 0.640124 0.660168 0.712148 0.753467 0.636904 0.753467 0.636904 0.660168 0.712148 0.749437 0.71584 0.667788 0.640124 0.58612 0.707444 0.660168 0.712148 0.660168 0.712148 0.642363 0.781634 0.749437 0.71584 0.642363 0.781634 0.660168 0.712148 0.58612 0.707444 0.642363 0.781634 0.72268 0.792515 0.749437 0.71584 0.593838 0.571448 0.590556 0.641913 0.667788 0.640124 0.590556 0.641913 0.58612 0.707444 0.667788 0.640124 0.590556 0.641913 0.593838 0.571448 0.520801 0.644131 0.576064 0.774361 0.642363 0.781634 0.58612 0.707444 0.590556 0.641913 0.520801 0.644131 0.521366 0.707912 0.520801 0.644131 0.456861 0.70632 0.521366 0.707912 0.58612 0.707444 0.590556 0.641913 0.521366 0.707912 0.58612 0.707444 0.517522 0.769461 0.576064 0.774361 0.521366 0.707912 0.517522 0.769461 0.58612 0.707444 0.521366 0.707912 0.456861 0.70632 0.517522 0.769461 0.517522 0.769461 0.548422 0.844392 0.576064 0.774361 0.642363 0.781634 0.576064 0.774361 0.606088 0.867744 0.642363 0.781634 0.606088 0.867744 0.72268 0.792515 0.606088 0.867744 0.576064 0.774361 0.548422 0.844392 0.72268 0.792515 0.606088 0.867744 0.66093 0.909797 0.606088 0.867744 0.496275 0.930382 0.66093 0.909797 0.66093 0.909797 0.496275 0.930382 0.508268 0.974284 0.548422 0.844392 0.496275 0.930382 0.606088 0.867744 0.378801 0.99246 0.508268 0.974284 0.496275 0.930382 0.387799 0.708366 0.452543 0.764841 0.456861 0.70632 0.382598 0.770965 0.452543 0.764841 0.387799 0.708366 0.456861 0.70632 0.452543 0.764841 0.517522 0.769461 0.470037 0.877663 0.496275 0.930382 0.548422 0.844392 0.377029 0.904774 0.378801 0.99246 0.496275 0.930382 0.27194 0.914128 0.378801 0.99246 0.377029 0.904774 0.27194 0.914128 0.377029 0.904774 0.288236 0.862531 0.470037 0.877663 0.377029 0.904774 0.496275 0.930382 0.333956 0.863763 0.288236 0.862531 0.377029 0.904774 0.333956 0.863763 0.377029 0.904774 0.470037 0.877663 0.517522 0.769461 0.452543 0.764841 0.491046 0.834877 0.491046 0.834877 0.470037 0.877663 0.548422 0.844392 0.517522 0.769461 0.491046 0.834877 0.548422 0.844392 0.452543 0.764841 0.382598 0.770965 0.423604 0.834248 0.423604 0.834248 0.333956 0.863763 0.470037 0.877663 0.423604 0.834248 0.382598 0.770965 0.311164 0.780586 0.491046 0.834877 0.452543 0.764841 0.423604 0.834248 0.423604 0.834248 0.470037 0.877663 0.491046 0.834877 0.347929 0.794736 0.423604 0.834248 0.311164 0.780586 0.347929 0.794736 0.333956 0.863763 0.423604 0.834248 0.347929 0.794736 0.311164 0.780586 0.303728 0.816587 0.976761 0.298952 0.925619 0.44062 0.828081 0.252926 0.925619 0.44062 0.759154 0.4408 0.828081 0.252926 0.759154 0.4408 0.682057 0.255891 0.828081 0.252926 0.828081 0.252926 0.682057 0.255891 0.654113 0.121609 0.976761 0.298952 0.828081 0.252926 0.969156 0.132675 0.828081 0.252926 0.809173 0.08457499 0.969156 0.132675 0.828081 0.252926 0.654113 0.121609 0.809173 0.08457499 0.051319 0.591471 0.03551995 0.523632 0.110747 0.531982 0.051319 0.591471 0.02809298 0.583888 0.03551995 0.523632 0.105572 0.609184 0.08257997 0.601677 0.110747 0.531982 0.02809298 0.583888 0.051319 0.591471 0.03551995 0.523632 0.051319 0.591471 0.08257997 0.601677 0.110747 0.531982 0.131695 0.64282 0.105572 0.609184 0.08004599 0.673477 0.105572 0.609184 0.06682497 0.638437 0.08004599 0.673477 0.105572 0.609184 0.184063 0.564697 0.110747 0.531982 0.184063 0.564697 0.105572 0.609184 0.1771 0.616481 0.1771 0.616481 0.105572 0.609184 0.131695 0.64282 0.219448 0.454858 0.190298 0.50906 0.29971 0.498275 0.2407529 0.688107 0.318218 0.643356 0.231079 0.635695 0.1771 0.616481 0.231079 0.635695 0.184063 0.564697 0.190298 0.50906 0.258503 0.557574 0.29971 0.498275 0.184063 0.564697 0.258503 0.557574 0.190298 0.50906 0.231079 0.635695 0.258503 0.557574 0.184063 0.564697 0.29971 0.498275 0.312882 0.570756 0.384598 0.51542 0.231079 0.635695 0.312882 0.570756 0.258503 0.557574 0.318218 0.643356 0.312882 0.570756 0.231079 0.635695 0.318218 0.643356 0.389021 0.57763 0.312882 0.570756 0.312882 0.570756 0.389021 0.57763 0.384598 0.51542 0.312882 0.570756 0.29971 0.498275 0.258503 0.557574 0.05363696 0.602652 0.06682497 0.638437 0.105572 0.609184 0.01001 0.628773 0.06682497 0.638437 0.05363696 0.602652 0.311164 0.780586 0.347929 0.794736 0.303728 0.816587 0.333956 0.863763 0.347929 0.794736 0.423604 0.834248 0.423604 0.834248 0.347929 0.794736 0.311164 0.780586 0.529402 0.189365 0.463607 0.09634196 0.467958 0.244692 0.688935 0.01883697 0.463607 0.09634196 0.529402 0.189365 0.688935 0.01883697 0.529402 0.189365 0.463607 0.09634196 0.529402 0.189365 0.467958 0.244692 0.463607 0.09634196 0.463607 0.09634196 0.467958 0.244692 0.397373 0.229961 0.466022 0.283943 0.397373 0.229961 0.467958 0.244692 0.391418 0.25386 0.397373 0.229961 0.466022 0.283943 0.463607 0.09634196 0.397373 0.229961 0.38959 0.09812998 0.391418 0.25386 0.466022 0.283943 0.397373 0.229961 0.397373 0.229961 0.466022 0.283943 0.467958 0.244692 0.463607 0.09634196 0.38959 0.09812998 0.397373 0.229961 0.467958 0.244692 0.463607 0.09634196 0.397373 0.229961 0.397373 0.229961 0.263185 0.210107 0.391418 0.25386 0.397373 0.229961 0.38959 0.09812998 0.263185 0.210107 0.38959 0.09812998 0.397373 0.229961 0.263185 0.210107 0.263185 0.210107 0.260046 0.2346799 0.391418 0.25386 0.391418 0.25386 0.260046 0.2346799 0.397373 0.229961 0.397373 0.229961 0.260046 0.2346799 0.263185 0.210107 0.529402 0.189365 0.467958 0.244692 0.547296 0.212603 0.467958 0.244692 0.547296 0.212603 0.466022 0.283943 0.529402 0.189365 0.547296 0.212603 0.467958 0.244692 0.688935 0.01883697 0.547296 0.212603 0.529402 0.189365 0.547296 0.212603 0.467958 0.244692 0.466022 0.283943 0.529402 0.189365 0.547296 0.212603 0.688935 0.01883697 0.29969 0.04492199 0.38959 0.09812998 0.263185 0.210107 0.263185 0.210107 0.38959 0.09812998 0.29969 0.04492199 0.263185 0.210107 0.29969 0.04492199 0.239967 0.11785 0.239967 0.11785 0.29969 0.04492199 0.263185 0.210107 0.239967 0.11785 0.1905199 0.133502 0.263185 0.210107 0.263185 0.210107 0.1905199 0.133502 0.167104 0.181536 0.260046 0.2346799 0.263185 0.210107 0.183831 0.259828 0.263185 0.210107 0.180721 0.254351 0.183831 0.259828 0.122275 0.26786 0.129066 0.294784 0.07962995 0.292833 0.035501 0.242735 0.122275 0.26786 0.07962995 0.292833 0.05914896 0.19422 0.122275 0.26786 0.035501 0.242735 0.122275 0.26786 0.05914896 0.19422 0.104119 0.182578 0.035501 0.242735 0.07962995 0.292833 0.05759698 0.300389 0.05759698 0.300389 0.07962995 0.292833 0.019526 0.332609 0.925619 0.44062 0.976761 0.298952 0.828081 0.252925 0.759154 0.4408 0.925619 0.44062 0.828081 0.252925 0.682057 0.255891 0.759154 0.4408 0.828081 0.252925 0.682057 0.255891 0.828081 0.252925 0.654113 0.121609 0.828081 0.252925 0.976761 0.298952 0.969156 0.132675 0.654113 0.121609 0.828081 0.252925 0.809173 0.08457499 0.809173 0.08457499 0.828081 0.252925 0.969156 0.132675 0.980275 0.858522 0.980099 0.790978 0.864867 0.794507 0.980099 0.790978 0.857939 0.699017 0.864867 0.794507 0.896232 0.65013 0.857939 0.699017 0.980099 0.790978 0.896232 0.65013 0.891039 0.600618 0.857939 0.699017 0.980099 0.790978 0.978691 0.613097 0.896232 0.65013 0.897354 0.945291 0.980275 0.858522 0.864867 0.794507 0.897354 0.945291 0.864867 0.794507 0.851348 0.865236 0.979051 0.947924 0.980275 0.858522 0.897354 0.945291 0.979051 0.947924 0.897354 0.945291 0.97719 0.982272 0.897354 0.945291 0.935375 0.994102 0.97719 0.982272 0.978691 0.613097 0.957235 0.577342 0.896232 0.65013 0.957235 0.577342 0.911322 0.593486 0.896232 0.65013 0.978691 0.613097 0.978083 0.570011 0.957235 0.577342 0.980099 0.790978 0.980275 0.858522 0.864867 0.794507 0.980275 0.858522 0.979051 0.947924 0.897354 0.945291 0.980275 0.858522 0.897354 0.945291 0.864867 0.794507 0.897354 0.945291 0.979051 0.947924 0.97719 0.982272 0.857939 0.699017 0.980099 0.790978 0.864867 0.794507 0.864867 0.794507 0.897354 0.945291 0.851348 0.865236 0.935375 0.994102 0.897354 0.945291 0.97719 0.982272 0.978083 0.570011 0.978691 0.613097 0.957235 0.577342 0.957235 0.577342 0.978691 0.613097 0.896232 0.65013 0.857939 0.699017 0.896232 0.65013 0.980099 0.790978 0.978691 0.613097 0.980099 0.790978 0.896232 0.65013 0.891039 0.600618 0.896232 0.65013 0.857939 0.699017 0.891039 0.600618 0.911322 0.593486 0.896232 0.65013 0.08015298 0.293165 0.122275 0.26786 0.035501 0.242735 0.05475997 0.409476 0.123436 0.429377 0.110747 0.531982 0.288236 0.862531 0.27194 0.914128 0.193414 0.856384 0.288236 0.862531 0.224673 0.808369 0.303728 0.816587 0.288236 0.862531 0.333956 0.863763 0.377029 0.904774 0.288236 0.862531 0.193414 0.856384 0.224673 0.808369 0.303728 0.816587 0.237582 0.753618 0.224673 0.808369 0.123436 0.429377 0.2019529 0.30773 0.05475997 0.409476 0.05475997 0.409476 0.110747 0.531982 0.03551995 0.523632 0.08257997 0.601677 0.051319 0.591471 0.110747 0.531982 0.110747 0.531982 0.05475997 0.409476 0.03551995 0.523632 0.03551995 0.523632 0.051319 0.591471 0.110747 0.531982 0.123436 0.429377 0.05475997 0.409476 0.110747 0.531982 0.08257997 0.601677 0.105572 0.609184 0.110747 0.531982 0.123436 0.429377 0.190298 0.50906 0.219448 0.454858 0.110747 0.531982 0.184063 0.564697 0.190298 0.50906 0.110747 0.531982 0.190298 0.50906 0.123436 0.429377 0.911322 0.593486 0.891039 0.600618 0.896232 0.65013 0.911322 0.593486 0.957235 0.577342 0.896232 0.65013 0.187407 0.215748 0.162154 0.217628 0.167104 0.181536 0.187407 0.215748 0.187665 0.250625 0.162154 0.217628 0.187665 0.250625 0.263185 0.210107 0.201418 0.254025 0.187407 0.215748 0.263185 0.210107 0.187665 0.250625 0.187665 0.250625 0.149237 0.271243 0.162154 0.217628 0.187665 0.250625 0.201418 0.254025 0.149237 0.271243 0.08015298 0.293165 0.035501 0.242735 0.05759698 0.300389 0.08015298 0.293165 0.05759698 0.300389 0.019526 0.332609 0.07110995 0.314797 0.08015298 0.293165 0.019526 0.332609 0.07110995 0.314797 0.129066 0.294784 0.08015298 0.293165 0.180721 0.254351 0.263185 0.210107 0.1864179 0.215822 0.1864179 0.215822 0.263185 0.210107 0.167104 0.181536 0.180721 0.254351 0.1864179 0.215822 0.162154 0.217628 0.162154 0.217628 0.1864179 0.215822 0.167104 0.181536 0.183831 0.259828 0.180721 0.254351 0.149237 0.271243 0.149237 0.271243 0.180721 0.254351 0.162154 0.217628 0.07962995 0.292833 0.129066 0.294784 0.053725 0.3208 0.07962995 0.292833 0.053725 0.3208 0.019526 0.332609</float_array>
          <technique_common>
            <accessor source="#a006_003-mesh-map-0-array" count="1320" stride="2">
              <param name="S" type="float"/>
              <param name="T" type="float"/>
            </accessor>
          </technique_common>
        </source>
        <vertices id="a006_003-mesh-vertices">
          <input semantic="POSITION" source="#a006_003-mesh-positions"/>
        </vertices>
        <polylist material="a006a01_003-material-material" count="440">
          <input semantic="VERTEX" source="#a006_003-mesh-vertices" offset="0"/>
          <input semantic="NORMAL" source="#a006_003-mesh-normals" offset="1"/>
          <input semantic="TEXCOORD" source="#a006_003-mesh-map-0" offset="2" set="0"/>
          <vcount>3 3 3 3 3 3 3 3 3 3 3 3 3 3 3 3 3 3 3 3 3 3 3 3 3 3 3 3 3 3 3 3 3 3 3 3 3 3 3 3 3 3 3 3 3 3 3 3 3 3 3 3 3 3 3 3 3 3 3 3 3 3 3 3 3 3 3 3 3 3 3 3 3 3 3 3 3 3 3 3 3 3 3 3 3 3 3 3 3 3 3 3 3 3 3 3 3 3 3 3 3 3 3 3 3 3 3 3 3 3 3 3 3 3 3 3 3 3 3 3 3 3 3 3 3 3 3 3 3 3 3 3 3 3 3 3 3 3 3 3 3 3 3 3 3 3 3 3 3 3 3 3 3 3 3 3 3 3 3 3 3 3 3 3 3 3 3 3 3 3 3 3 3 3 3 3 3 3 3 3 3 3 3 3 3 3 3 3 3 3 3 3 3 3 3 3 3 3 3 3 3 3 3 3 3 3 3 3 3 3 3 3 3 3 3 3 3 3 3 3 3 3 3 3 3 3 3 3 3 3 3 3 3 3 3 3 3 3 3 3 3 3 3 3 3 3 3 3 3 3 3 3 3 3 3 3 3 3 3 3 3 3 3 3 3 3 3 3 3 3 3 3 3 3 3 3 3 3 3 3 3 3 3 3 3 3 3 3 3 3 3 3 3 3 3 3 3 3 3 3 3 3 3 3 3 3 3 3 3 3 3 3 3 3 3 3 3 3 3 3 3 3 3 3 3 3 3 3 3 3 3 3 3 3 3 3 3 3 3 3 3 3 3 3 3 3 3 3 3 3 3 3 3 3 3 3 3 3 3 3 3 3 3 3 3 3 3 3 3 3 3 3 3 3 3 3 3 3 3 3 3 3 3 3 3 3 3 3 3 3 3 3 3 3 3 3 3 3 3 3 3 3 3 3 3 3 3 3 3 3 3 3 3 3 3 3 3 3 3 3 3 3 3 3 3 3 3 3 3 3 3 3 3 3 3 3 3 3 3 3 </vcount>
          <p>0 0 0 1 1 1 2 2 2 0 0 3 3 3 4 1 1 5 4 4 6 3 3 7 0 0 8 5 5 9 4 4 10 0 0 11 5 5 12 0 0 13 6 6 14 6 6 15 7 7 16 5 5 17 6 6 18 8 8 19 7 7 20 6 6 21 0 0 22 9 9 23 0 0 24 2 2 25 10 10 26 9 9 27 0 0 28 10 10 29 7 7 30 10 10 31 2 2 32 7 7 33 8 8 34 10 10 35 9 9 36 10 10 37 11 11 38 11 11 39 10 10 40 8 8 41 6 6 42 9 9 43 12 12 44 13 13 45 6 6 46 12 12 47 13 13 48 8 8 49 6 6 50 13 13 51 11 11 52 8 8 53 14 14 54 5 5 55 7 7 56 14 14 57 4 4 58 5 5 59 14 14 60 3 3 61 4 4 62 2 2 63 14 14 64 7 7 65 2 2 66 1 1 67 14 14 68 14 14 69 1 1 70 3 3 71 9 9 72 15 15 73 12 12 74 9 9 75 11 11 76 15 15 77 15 15 78 11 11 79 16 16 80 15 15 81 16 16 82 12 12 83 17 17 84 16 16 85 11 11 86 17 17 87 11 11 88 18 18 89 11 11 90 19 19 91 18 18 92 11 11 93 13 13 94 20 20 95 21 21 96 22 22 97 23 23 98 22 22 99 24 24 100 25 25 101 24 24 102 22 22 103 26 26 104 27 27 105 28 28 106 29 29 107 27 27 108 29 29 109 30 30 110 29 29 111 31 31 112 30 30 113 31 31 114 32 32 115 30 30 116 30 30 117 32 32 118 33 33 119 27 27 120 30 30 121 33 33 122 32 32 123 34 34 124 33 33 125 33 33 126 34 34 127 35 35 128 36 36 129 27 27 130 33 33 131 33 33 132 35 35 133 37 37 134 37 37 135 35 35 136 38 38 137 39 39 138 37 37 139 38 38 140 40 40 141 36 36 142 33 33 143 37 37 144 40 40 145 33 33 146 40 40 147 37 37 148 39 39 149 41 41 150 38 38 151 35 35 152 39 39 153 38 38 154 42 42 155 39 39 156 42 42 157 43 43 158 38 38 159 44 44 160 42 42 161 41 41 162 44 44 163 38 38 164 34 34 165 45 45 166 35 35 167 35 35 168 45 45 169 41 41 170 34 34 171 46 46 172 45 45 173 46 46 174 34 34 175 32 32 176 46 46 177 47 47 178 45 45 179 31 31 180 48 48 181 32 32 182 46 46 183 32 32 184 48 48 185 46 46 186 49 49 187 47 47 188 49 49 189 46 46 190 48 48 191 47 47 192 49 49 193 50 50 194 47 47 195 50 50 196 51 51 197 49 49 198 52 52 199 50 50 200 49 49 201 53 53 202 52 52 203 49 49 204 48 48 205 53 53 206 54 54 207 52 52 208 53 53 209 31 31 210 29 29 211 54 54 212 31 31 213 54 54 214 48 48 215 54 54 216 53 53 217 48 48 218 50 50 219 55 55 220 51 51 221 56 56 222 50 50 223 52 52 224 50 50 225 56 56 226 55 55 227 57 57 228 29 29 229 28 28 230 29 29 231 57 57 232 54 54 233 57 57 234 58 58 235 54 54 236 59 59 237 58 58 238 57 57 239 57 57 240 28 28 241 59 59 242 59 59 243 60 60 244 58 58 245 61 61 246 58 58 247 60 60 248 62 62 249 58 58 250 61 61 251 61 61 252 63 63 253 62 62 254 62 62 255 64 64 256 58 58 257 64 64 258 54 54 259 58 58 260 54 54 261 64 64 262 52 52 263 63 63 264 61 61 265 65 65 266 61 61 267 60 60 268 65 65 269 66 66 270 63 63 271 65 65 272 63 63 273 67 67 274 62 62 275 52 52 276 64 64 277 68 68 278 56 56 279 52 52 280 68 68 281 64 64 282 62 62 283 68 68 284 69 69 285 68 68 286 62 62 287 56 56 288 68 68 289 69 69 290 69 69 291 62 62 292 67 67 293 70 70 294 69 69 295 67 67 296 67 67 297 63 63 298 71 71 299 67 67 300 71 71 301 70 70 302 71 71 303 63 63 304 66 66 305 71 71 306 66 66 307 72 72 308 73 73 309 71 71 310 72 72 311 73 73 312 70 70 313 71 71 314 73 73 315 72 72 316 74 74 317 75 75 318 56 56 319 69 69 320 75 75 321 55 55 322 56 56 323 73 73 324 76 76 325 70 70 326 77 77 327 76 76 328 73 73 329 74 74 330 78 78 331 73 73 332 78 78 333 77 77 334 73 73 335 77 77 336 79 79 337 76 76 338 76 76 339 80 80 340 70 70 341 80 80 342 69 69 343 70 70 344 75 75 345 69 69 346 80 80 347 75 75 348 80 80 349 81 81 350 76 76 351 81 81 352 80 80 353 79 79 354 81 81 355 76 76 356 75 75 357 82 82 358 55 55 359 82 82 360 75 75 361 81 81 362 82 82 363 83 83 364 55 55 365 51 51 366 55 55 367 83 83 368 82 82 369 81 81 370 84 84 371 82 82 372 84 84 373 83 83 374 84 84 375 85 85 376 83 83 377 83 83 378 85 85 379 86 86 380 86 86 381 87 87 382 83 83 383 51 51 384 83 83 385 87 87 386 87 87 387 47 47 388 51 51 389 87 87 390 86 86 391 88 88 392 89 89 393 87 87 394 88 88 395 89 89 396 41 41 397 45 45 398 47 47 399 89 89 400 45 45 401 47 47 402 87 87 403 89 89 404 41 41 405 89 89 406 90 90 407 89 89 408 88 88 409 90 90 410 91 91 411 42 42 412 44 44 413 91 91 414 44 44 415 41 41 416 90 90 417 91 91 418 41 41 419 91 91 420 92 92 421 42 42 422 85 85 423 84 84 424 93 93 425 90 90 426 94 94 427 91 91 428 90 90 429 88 88 430 94 94 431 94 94 432 92 92 433 91 91 434 94 94 435 95 95 436 92 92 437 88 88 438 96 96 439 94 94 440 95 95 441 94 94 442 96 96 443 95 95 444 96 96 445 97 97 446 95 95 447 97 97 448 98 98 449 98 98 450 97 97 451 99 99 452 97 97 453 100 100 454 99 99 455 99 99 456 100 100 457 101 101 458 99 99 459 101 101 460 102 102 461 99 99 462 103 103 463 98 98 464 99 99 465 102 102 466 103 103 467 101 101 468 104 104 469 102 102 470 105 105 471 104 104 472 101 101 473 105 105 474 106 106 475 104 104 476 107 107 477 105 105 478 101 101 479 100 100 480 107 107 481 101 101 482 107 107 483 108 108 484 105 105 485 85 85 486 108 108 487 107 107 488 85 85 489 93 93 490 108 108 491 109 109 492 106 106 493 105 105 494 78 78 495 109 109 496 77 77 497 77 77 498 109 109 499 110 110 500 98 98 501 103 103 502 111 111 503 111 111 504 95 95 505 98 98 506 103 103 507 112 112 508 111 111 509 111 111 510 112 112 511 113 113 512 111 111 513 113 113 514 114 114 515 111 111 516 114 114 517 95 95 518 78 78 519 115 115 520 109 109 521 109 109 522 115 115 523 106 106 524 112 112 525 103 103 526 116 116 527 112 112 528 116 116 529 113 113 530 103 103 531 117 117 532 116 116 533 103 103 534 118 118 535 117 117 536 102 102 537 118 118 538 103 103 539 119 119 540 118 118 541 102 102 542 104 104 543 119 119 544 102 102 545 120 120 546 118 118 547 119 119 548 120 120 549 121 121 550 118 118 551 121 121 552 117 117 553 118 118 554 104 104 555 122 122 556 119 119 557 106 106 558 122 122 559 104 104 560 122 122 561 123 123 562 119 119 563 123 123 564 120 120 565 119 119 566 124 124 567 123 123 568 122 122 569 122 122 570 125 125 571 124 124 572 126 126 573 125 125 574 122 122 575 115 115 576 126 126 577 106 106 578 115 115 579 78 78 580 126 126 581 106 106 582 126 126 583 122 122 584 124 124 585 127 127 586 123 123 587 124 124 588 125 125 589 128 128 590 129 129 591 127 127 592 128 128 593 127 127 594 129 129 595 130 130 596 129 129 597 131 131 598 130 130 599 130 130 600 131 131 601 132 132 602 127 127 603 130 130 604 133 133 605 134 134 606 133 133 607 130 130 608 130 130 609 135 135 610 134 134 611 132 132 612 135 135 613 130 130 614 132 132 615 136 136 616 135 135 617 137 137 618 134 134 619 135 135 620 136 136 621 137 137 622 135 135 623 138 138 624 137 137 625 136 136 626 139 139 627 138 138 628 136 136 629 140 140 630 138 138 631 139 139 632 141 141 633 138 138 634 140 140 635 139 139 636 142 142 637 140 140 638 140 140 639 142 142 640 141 141 641 136 136 642 143 143 643 139 139 644 143 143 645 136 136 646 132 132 647 138 138 648 144 144 649 137 137 650 144 144 651 138 138 652 141 141 653 137 137 654 144 144 655 145 145 656 144 144 657 146 146 658 145 145 659 146 146 660 144 144 661 147 147 662 147 147 663 144 144 664 141 141 665 146 146 666 147 147 667 148 148 668 27 27 669 36 36 670 148 148 671 36 36 672 40 40 673 148 148 674 145 145 675 146 146 676 149 149 677 146 146 678 148 148 679 149 149 680 147 147 681 150 150 682 148 148 683 150 150 684 27 27 685 148 148 686 147 147 687 151 151 688 150 150 689 141 141 690 151 151 691 147 147 692 142 142 693 151 151 694 141 141 695 40 40 696 152 152 697 148 148 698 149 149 699 148 148 700 152 152 701 152 152 702 40 40 703 39 39 704 149 149 705 152 152 706 153 153 707 152 152 708 39 39 709 153 153 710 145 145 711 149 149 712 154 154 713 153 153 714 154 154 715 149 149 716 153 153 717 39 39 718 155 155 719 156 156 720 153 153 721 155 155 722 156 156 723 154 154 724 153 153 725 28 28 726 27 27 727 157 157 728 151 151 729 157 157 730 150 150 731 157 157 732 27 27 733 150 150 734 157 157 735 151 151 736 142 142 737 157 157 738 158 158 739 28 28 740 158 158 741 157 157 742 142 142 743 28 28 744 158 158 745 59 59 746 159 159 747 59 59 748 158 158 749 159 159 750 158 158 751 142 142 752 60 60 753 59 59 754 159 159 755 159 159 756 160 160 757 60 60 758 60 60 759 160 160 760 65 65 761 159 159 762 161 161 763 160 160 764 160 160 765 162 162 766 65 65 767 162 162 768 160 160 769 161 161 770 162 162 771 66 66 772 65 65 773 142 142 774 163 163 775 159 159 776 163 163 777 161 161 778 159 159 779 163 163 780 142 142 781 139 139 782 164 164 783 162 162 784 161 161 785 163 163 786 139 139 787 165 165 788 139 139 789 143 143 790 165 165 791 161 161 792 163 163 793 165 165 794 161 161 795 166 166 796 164 164 797 165 165 798 166 166 799 161 161 800 165 165 801 143 143 802 166 166 803 166 166 804 167 167 805 164 164 806 162 162 807 164 164 808 168 168 809 162 162 810 168 168 811 66 66 812 168 168 813 164 164 814 167 167 815 66 66 816 168 168 817 72 72 818 168 168 819 169 169 820 72 72 821 72 72 822 169 169 823 74 74 824 167 167 825 169 169 826 168 168 827 78 78 828 74 74 829 169 169 830 132 132 831 170 170 832 143 143 833 131 131 834 170 170 835 132 132 836 143 143 837 170 170 838 166 166 839 171 171 840 169 169 841 167 167 842 172 172 843 78 78 844 169 169 845 126 126 846 78 78 847 172 172 848 126 126 849 172 172 850 125 125 851 171 171 852 172 172 853 169 169 854 173 173 855 125 125 856 172 172 857 173 173 858 172 172 859 171 171 860 166 166 861 170 170 862 174 174 863 174 174 864 171 171 865 167 167 866 166 166 867 174 174 868 167 167 869 170 170 870 131 131 871 175 175 872 175 175 873 173 173 874 171 171 875 175 175 876 131 131 877 129 129 878 174 174 879 170 170 880 175 175 881 175 175 882 171 171 883 174 174 884 176 176 885 175 175 886 129 129 887 176 176 888 173 173 889 175 175 890 176 176 891 129 129 892 128 128 893 177 177 894 178 178 895 179 179 896 178 178 897 180 180 898 179 179 899 180 180 900 181 181 901 179 179 902 179 179 903 181 181 904 182 182 905 177 177 906 179 179 907 183 183 908 179 179 909 184 184 910 183 183 911 179 179 912 182 182 913 184 184 914 185 185 915 186 186 916 92 92 917 185 185 918 187 187 919 186 186 920 95 95 921 188 188 922 92 92 923 187 187 924 189 189 925 186 186 926 189 189 927 190 190 928 191 191 929 121 121 930 192 192 931 117 117 932 192 192 933 116 116 934 117 117 935 192 192 936 193 193 937 191 191 938 193 193 939 192 192 940 194 194 941 194 194 942 192 192 943 121 121 944 156 156 945 195 195 946 154 154 947 133 133 948 134 134 949 196 196 950 194 194 951 196 196 952 193 193 953 195 195 954 197 197 955 154 154 956 193 193 957 197 197 958 195 195 959 196 196 960 197 197 961 193 193 962 154 154 963 198 198 964 145 145 965 196 196 966 198 198 967 197 197 968 134 134 969 198 198 970 196 196 971 134 134 972 137 137 973 198 198 974 198 198 975 137 137 976 145 145 977 198 198 978 154 154 979 197 197 980 199 199 981 116 116 982 192 192 983 113 113 984 116 116 985 199 199 986 84 84 987 200 200 988 93 93 989 79 79 990 200 200 991 81 81 992 81 81 993 200 200 994 84 84 995 201 201 996 202 202 997 203 203 998 204 204 999 202 202 1000 201 201 1001 204 204 1002 205 205 1003 202 202 1004 205 205 1005 206 206 1006 202 202 1007 202 202 1008 206 206 1009 207 207 1010 208 208 1011 207 207 1012 206 206 1013 209 209 1014 207 207 1015 208 208 1016 202 202 1017 207 207 1018 210 210 1019 209 209 1020 208 208 1021 211 211 1022 211 211 1023 208 208 1024 203 203 1025 202 202 1026 210 210 1027 211 211 1028 203 203 1029 202 202 1030 211 211 1031 211 211 1032 212 212 1033 209 209 1034 211 211 1035 210 210 1036 212 212 1037 210 210 1038 207 207 1039 213 213 1040 212 212 1041 214 214 1042 209 209 1043 209 209 1044 214 214 1045 207 207 1046 207 207 1047 214 214 1048 213 213 1049 201 201 1050 203 203 1051 215 215 1052 206 206 1053 215 215 1054 208 208 1055 205 205 1056 215 215 1057 206 206 1058 204 204 1059 215 215 1060 205 205 1061 215 215 1062 203 203 1063 208 208 1064 201 201 1065 215 215 1066 204 204 1067 216 216 1068 210 210 1069 213 213 1070 212 212 1071 210 210 1072 216 216 1073 212 212 1074 216 216 1075 217 217 1076 217 217 1077 216 216 1078 213 213 1079 217 217 1080 218 218 1081 212 212 1082 212 212 1083 218 218 1084 219 219 1085 214 214 1086 212 212 1087 220 220 1088 212 212 1089 221 221 1090 220 220 1091 222 222 1092 223 223 1093 224 224 1094 225 225 1095 222 222 1096 224 224 1097 226 226 1098 222 222 1099 225 225 1100 222 222 1101 226 226 1102 227 227 1103 225 225 1104 224 224 1105 228 228 1106 228 228 1107 224 224 1108 229 229 1109 230 230 1110 231 231 1111 232 232 1112 233 233 1113 230 230 1114 232 232 1115 234 234 1116 233 233 1117 232 232 1118 234 234 1119 232 232 1120 235 235 1121 232 232 1122 231 231 1123 236 236 1124 235 235 1125 232 232 1126 237 237 1127 237 237 1128 232 232 1129 236 236 1130 238 238 1131 239 239 1132 240 240 1133 239 239 1134 241 241 1135 240 240 1136 242 242 1137 241 241 1138 239 239 1139 242 242 1140 243 243 1141 241 241 1142 239 239 1143 244 244 1144 242 242 1145 245 245 1146 238 238 1147 240 240 1148 245 245 1149 240 240 1150 246 246 1151 247 247 1152 238 238 1153 245 245 1154 247 247 1155 245 245 1156 248 248 1157 245 245 1158 249 249 1159 248 248 1160 244 244 1161 250 250 1162 242 242 1163 250 250 1164 251 251 1165 242 242 1166 244 244 1167 252 252 1168 250 250 1169 239 239 1170 238 238 1171 253 253 1172 238 238 1173 247 247 1174 254 254 1175 238 238 1176 254 254 1177 253 253 1178 254 254 1179 247 247 1180 248 248 1181 255 255 1182 239 239 1183 253 253 1184 253 253 1185 254 254 1186 256 256 1187 257 257 1188 254 254 1189 248 248 1190 252 252 1191 244 244 1192 258 258 1193 258 258 1194 244 244 1195 259 259 1196 255 255 1197 259 259 1198 239 239 1199 244 244 1200 239 239 1201 259 259 1202 260 260 1203 259 259 1204 255 255 1205 260 260 1206 261 261 1207 259 259 1208 23 23 1209 22 22 1210 25 25 1211 43 43 1212 42 42 1213 92 92 1214 110 110 1215 109 109 1216 105 105 1217 110 110 1218 108 108 1219 93 93 1220 110 110 1221 79 79 1222 77 77 1223 110 110 1224 105 105 1225 108 108 1226 128 128 1227 127 127 1228 124 124 1229 155 155 1230 39 39 1231 43 43 1232 43 43 1233 92 92 1234 186 186 1235 188 188 1236 185 185 1237 92 92 1238 191 191 1239 43 43 1240 186 186 1241 186 186 1242 189 189 1243 191 191 1244 155 155 1245 43 43 1246 191 191 1247 190 190 1248 192 192 1249 191 191 1250 155 155 1251 195 195 1252 156 156 1253 191 191 1254 193 193 1255 195 195 1256 191 191 1257 195 195 1258 155 155 1259 251 251 1260 243 243 1261 242 242 1262 261 261 1263 258 258 1264 259 259 1265 19 19 1266 262 262 1267 18 18 1268 19 19 1269 263 263 1270 262 262 1271 263 263 1272 11 11 1273 20 20 1274 19 19 1275 11 11 1276 263 263 1277 263 263 1278 264 264 1279 262 262 1280 263 263 1281 20 20 1282 264 264 1283 23 23 1284 25 25 1285 265 265 1286 23 23 1287 265 265 1288 266 266 1289 267 267 1290 23 23 1291 266 266 1292 267 267 1293 21 21 1294 23 23 1295 221 221 1296 212 212 1297 268 268 1298 268 268 1299 212 212 1300 219 219 1301 221 221 1302 268 268 1303 269 269 1304 269 269 1305 268 268 1306 219 219 1307 220 220 1308 221 221 1309 270 270 1310 270 270 1311 221 221 1312 269 269 1313 224 224 1314 223 223 1315 271 271 1316 224 224 1317 271 271 1318 229 229 1319</p>
        </polylist>
      </mesh>
    </geometry>
  </library_geometries>
  <library_controllers>
    <controller id="Armature_a006_003-skin" name="Armature">
      <skin source="#a006_003-mesh">
        <bind_shape_matrix>1 0 0 0 0 1 0 0 0 0 1 0 0 0 0 1</bind_shape_matrix>
        <source id="Armature_a006_003-skin-joints">
          <Name_array id="Armature_a006_003-skin-joints-array" count="18">CP01 FP01 GP01 FacePos Ef_01 Ef_02 J_head J_mimi_L J_mimi_R J_teeth J_center J_root TP01 GRP_joint GRP_mesh a006_rd Scale a006</Name_array>
          <technique_common>
            <accessor source="#Armature_a006_003-skin-joints-array" count="18" stride="1">
              <param name="JOINT" type="name"/>
            </accessor>
          </technique_common>
        </source>
        <source id="Armature_a006_003-skin-bind_poses">
          <float_array id="Armature_a006_003-skin-bind_poses-array" count="288">1 0 0 0 0 1 0 -0.1919992 0 0 1 0 0 0 0 1 1 0 0 0 0 1 0 -0.2207992 0 0 1 -0.3167983 0 0 0 1 1 0 0 0 0 1 0 0 0 0 1 -0.1727992 0 0 0 1 1 0 0 0 0 1 0 -0.2200884 0 0 1 -0.2236795 0 0 0 1 1 0 0 0 0 1 0 -0.1304923 0 0 1 -0.3013806 0 0 0 1 1 0 0 0 0 1 0 -0.1304923 0 0 1 -0.3013806 0 0 0 1 1 0 0 0 0 1 0 -0.06456911 0 0 1 0 0 0 0 1 1 0 0 -0.1351382 0 1 0 -0.3391857 0 0 1 -0.1048702 0 0 0 1 1 0 0 0.1351673 0 0.8561126 0.5167894 -0.3424047 0 -0.5167894 0.8561127 0.08424025 0 0 0 1 1 0 0 0 0 1 0 -0.1259322 0 0 1 -0.1126172 0 0 0 1 1 0 0 0 0 1 0 -0.08035105 0 0 1 0.05710005 0 0 0 1 1 0 0 0 0 0.8151397 -0.5792644 0 0 0.5792644 0.8151398 0 0 0 0 1 1 0 0 0 0 1 0 -0.3839985 0 0 1 0 0 0 0 1 1 0 0 0 0 1 0 0 0 0 1 0 0 0 0 1 1 0 0 0 0 1 0 0 0 0 1 0 0 0 0 1 1 0 0 0 0 1 0 0 0 0 1 0 0 0 0 1 1 0 0 0 0 1 0 0 0 0 1 0 0 0 0 1 1 0 0 0 0 1 0 0 0 0 1 0 0 0 0 1</float_array>
          <technique_common>
            <accessor source="#Armature_a006_003-skin-bind_poses-array" count="18" stride="16">
              <param name="TRANSFORM" type="float4x4"/>
            </accessor>
          </technique_common>
        </source>
        <source id="Armature_a006_003-skin-weights">
          <float_array id="Armature_a006_003-skin-weights-array" count="302">1 1 1 1 1 1 1 1 1 1 1 1 1 1 1 1 1 1 1 0.5 0.5 0.5 0.5 1 1 0.5 0.5 1 1 1 1 1 1 1 1 1 1 1 1 1 1 1 1 1 1 0.4 0.6 0.4 0.6 1 1 1 1 1 1 1 1 1 1 1 1 1 1 1 1 1 1 1 1 1 1 1 1 1 1 1 1 1 1 1 1 1 1 1 1 1 1 1 1 1 1 1 1 1 1 1 1 0.7 0.3 0.1 0.9 1 1 1 1 1 1 1 1 1 1 1 1 1 1 1 1 0.1 0.9 1 1 1 1 1 1 1 1 1 1 1 1 1 1 0.1 0.9 1 1 0.1 0.9 1 1 1 1 1 1 1 1 1 1 1 1 1 1 1 1 1 1 1 1 1 1 1 1 1 1 0.4 0.6 1 1 1 1 1 1 1 1 1 1 1 1 1 1 1 1 1 1 1 1 1 1 1 1 1 1 1 1 1 1 0.7 0.3 1 0.8 0.2 1 0.8 0.2 0.7 0.3 1 1 1 1 1 1 1 1 1 1 1 1 1 1 1 1 1 1 1 1 1 1 1 1 1 1 1 1 0.5 0.5 0.5 0.5 1 1 0.5 0.5 1 1 1 1 0.1 0.9 1 1 1 1 1 1 1 1 1 1 1 1 1 1 1 1 1 1 1 1 1 0.8 0.2 1 1 1 1 1 1 1 1 1 0.8 0.2 0.1 0.9 0.5 0.5 0.1 0.9 1 0.1 0.9 0.5 0.5 0.5 0.5 0.1 0.9 0.1 0.9 0.5 0.5</float_array>
          <technique_common>
            <accessor source="#Armature_a006_003-skin-weights-array" count="302" stride="1">
              <param name="WEIGHT" type="float"/>
            </accessor>
          </technique_common>
        </source>
        <joints>
          <input semantic="JOINT" source="#Armature_a006_003-skin-joints"/>
          <input semantic="INV_BIND_MATRIX" source="#Armature_a006_003-skin-bind_poses"/>
        </joints>
        <vertex_weights count="272">
          <input semantic="JOINT" source="#Armature_a006_003-skin-joints" offset="0"/>
          <input semantic="WEIGHT" source="#Armature_a006_003-skin-weights" offset="1"/>
          <vcount>1 1 1 1 1 1 1 1 1 1 1 1 1 1 1 1 1 1 1 2 2 1 1 2 1 1 1 1 1 1 1 1 1 1 1 1 1 1 1 1 1 1 2 2 1 1 1 1 1 1 1 1 1 1 1 1 1 1 1 1 1 1 1 1 1 1 1 1 1 1 1 1 1 1 1 1 1 1 1 1 1 1 1 1 1 1 1 1 1 1 1 1 2 2 1 1 1 1 1 1 1 1 1 1 1 1 1 1 1 1 2 1 1 1 1 1 1 1 1 1 1 1 1 1 1 2 1 1 2 1 1 1 1 1 1 1 1 1 1 1 1 1 1 1 1 1 1 1 1 1 1 1 1 1 1 2 1 1 1 1 1 1 1 1 1 1 1 1 1 1 1 1 1 1 1 1 1 1 1 1 1 1 1 1 1 1 2 1 2 1 2 2 1 1 1 1 1 1 1 1 1 1 1 1 1 1 1 1 1 1 1 1 1 1 1 1 1 1 1 1 2 2 1 1 2 1 1 1 1 2 1 1 1 1 1 1 1 1 1 1 1 1 1 1 1 1 1 1 1 1 1 2 1 1 1 1 1 1 1 1 1 2 2 2 2 1 2 2 2 2 2 2 </vcount>
          <v>7 0 7 1 7 2 7 3 7 4 7 5 7 6 7 7 7 8 7 9 7 10 7 11 7 12 7 13 7 14 7 15 7 16 7 17 10 18 7 19 10 20 7 21 10 22 7 23 7 24 7 25 10 26 7 27 10 28 7 29 10 30 10 31 10 32 10 33 10 34 10 35 10 36 10 37 10 38 10 39 10 40 10 41 10 42 10 43 10 44 9 45 10 46 9 47 10 48 10 49 10 50 10 51 10 52 10 53 10 54 10 55 10 56 10 57 10 58 10 59 10 60 10 61 10 62 10 63 10 64 10 65 10 66 10 67 10 68 10 69 10 70 10 71 10 72 10 73 10 74 10 75 10 76 10 77 10 78 10 79 10 80 10 81 10 82 10 83 10 84 10 85 10 86 10 87 10 88 10 89 10 90 10 91 10 92 10 93 10 94 10 95 10 96 9 97 10 98 7 99 10 100 10 101 10 102 10 103 10 104 10 105 10 106 10 107 10 108 10 109 10 110 10 111 10 112 10 113 10 114 10 115 10 116 7 117 10 118 10 119 10 120 10 121 10 122 10 123 10 124 10 125 10 126 10 127 10 128 10 129 10 130 10 131 10 132 8 133 10 134 10 135 10 136 8 137 10 138 10 139 10 140 10 141 10 142 10 143 10 144 10 145 10 146 10 147 10 148 10 149 10 150 10 151 10 152 10 153 10 154 10 155 10 156 10 157 10 158 10 159 10 160 10 161 10 162 10 163 10 164 9 165 10 166 10 167 10 168 10 169 10 170 10 171 10 172 10 173 10 174 10 175 10 176 10 177 10 178 10 179 10 180 10 181 10 182 10 183 10 184 10 185 10 186 10 187 10 188 10 189 10 190 10 191 10 192 10 193 10 194 10 195 9 196 9 197 10 198 9 199 9 200 10 201 9 202 9 203 10 204 9 205 10 206 10 207 10 208 10 209 10 210 10 211 10 212 10 213 10 214 10 215 8 216 8 217 8 218 8 219 8 220 8 221 8 222 8 223 8 224 8 225 8 226 8 227 8 228 8 229 8 230 8 231 8 232 8 233 10 234 8 235 10 236 8 237 10 238 8 239 8 240 8 241 10 242 10 243 8 244 8 245 10 246 8 247 10 248 10 249 10 250 10 251 10 252 10 253 10 254 10 255 10 256 10 257 10 258 10 259 9 260 9 261 10 262 9 263 10 264 9 265 10 266 10 267 10 268 9 269 9 270 10 271 9 272 10 273 10 274 9 275 9 276 10 277 9 278 9 279 10 280 9 281 10 282 7 283 10 284 7 285 10 286 7 287 10 288 10 289 7 290 10 291 7 292 10 293 8 294 10 295 8 296 10 297 8 298 10 299 8 300 10 301</v>
        </vertex_weights>
      </skin>
    </controller>
  </library_controllers>
  <library_visual_scenes>
    <visual_scene id="Default" name="Default">
      <node id="Armature" name="Armature" type="NODE">
        <matrix sid="transform">1 0 0 0 0 1 0 0 0 0 1 0 0 0 0 1</matrix>
        <node id="a006" name="a006" sid="a006" type="JOINT">
          <matrix sid="transform">1 0 0 0 0 1 0 0 0 0 1 0 0 0 0 1</matrix>
          <node id="Scale" name="Scale" sid="Scale" type="JOINT">
            <matrix sid="transform">1 0 0 0 0 1 0 0 0 0 1 0 0 0 0 1</matrix>
            <node id="a006_rd" name="a006_rd" sid="a006_rd" type="JOINT">
              <matrix sid="transform">1 0 0 0 0 1 0 0 0 0 1 0 0 0 0 1</matrix>
              <node id="GRP_joint" name="GRP_joint" sid="GRP_joint" type="JOINT">
                <matrix sid="transform">1 0 0 0 0 1 0 0 0 0 1 0 0 0 0 1</matrix>
                <node id="CP01" name="CP01" sid="CP01" type="JOINT">
                  <matrix sid="transform">1 0 0 0 0 1 0 0.1919992 0 0 1 0 0 0 0 1</matrix>
                </node>
                <node id="FP01" name="FP01" sid="FP01" type="JOINT">
                  <matrix sid="transform">1 0 0 0 0 1 0 0.2207992 0 0 1 0.3167983 0 0 0 1</matrix>
                </node>
                <node id="GP01" name="GP01" sid="GP01" type="JOINT">
                  <matrix sid="transform">1 0 0 0 0 1 0 0 0 0 1 0.1727992 0 0 0 1</matrix>
                </node>
                <node id="J_root" name="J_root" sid="J_root" type="JOINT">
                  <matrix sid="transform">1 0 0 0 0 0.8151397 0.5792644 0 0 -0.5792644 0.8151397 0 0 0 0 1</matrix>
                  <node id="J_center" name="J_center" sid="J_center" type="JOINT">
                    <matrix sid="transform">1 0 0 0 0 0.8151396 -0.5792644 0.09857339 0 0.5792645 0.8151397 -7.45058e-9 0 0 0 1</matrix>
                    <node id="J_head" name="J_head" sid="J_head" type="JOINT">
                      <matrix sid="transform">1 0 0 0 0 1 6.28837e-8 -0.01578195 0 -6.28837e-8 1 0.05710007 0 0 0 1</matrix>
                      <node id="FacePos" name="FacePos" sid="FacePos" type="JOINT">
                        <matrix sid="transform">1 0 0 0 0 1 0 0.1555193 0 0 1 0.2236795 0 0 0 1</matrix>
                      </node>
                      <node id="Ef_01" name="Ef_01" sid="Ef_01" type="JOINT">
                        <matrix sid="transform">1 0 0 0 0 1 0 0.06592316 0 0 1 0.3013806 0 0 0 1</matrix>
                      </node>
                      <node id="Ef_02" name="Ef_02" sid="Ef_02" type="JOINT">
                        <matrix sid="transform">1 0 0 0 0 1 0 0.06592316 0 0 1 0.3013806 0 0 0 1</matrix>
                      </node>
                    </node>
                    <node id="J_mimi_L" name="J_mimi_L" sid="J_mimi_L" type="JOINT">
                      <matrix sid="transform">1 0 0 0.1351383 0 1 0 0.2588346 0 0 1 0.1619703 0 0 0 1</matrix>
                    </node>
                    <node id="J_mimi_R" name="J_mimi_R" sid="J_mimi_R" type="JOINT">
                      <matrix sid="transform">1 0 0 -0.1351673 0 0.8561127 -0.5167893 0.2563204 0 0.5167893 0.8561127 0.161932 0 0 0 1</matrix>
                    </node>
                    <node id="J_teeth" name="J_teeth" sid="J_teeth" type="JOINT">
                      <matrix sid="transform">1 0 0 0 0 1 0 0.04558117 0 0 1 0.1697173 0 0 0 1</matrix>
                    </node>
                  </node>
                </node>
                <node id="TP01" name="TP01" sid="TP01" type="JOINT">
                  <matrix sid="transform">1 0 0 0 0 1 0 0.3839985 0 0 1 0 0 0 0 1</matrix>
                </node>
              </node>
              <node id="GRP_mesh" name="GRP_mesh" sid="GRP_mesh" type="JOINT">
                <matrix sid="transform">1 0 0 0 0 1 0 0 0 0 1 0 0 0 0 1</matrix>
              </node>
            </node>
          </node>
        </node>
      </node>
      <node id="a006_003" name="a006_003" type="NODE">
        <translate sid="location">0 0 0</translate>
        <rotate sid="rotationZ">0 0 1 0</rotate>
        <rotate sid="rotationY">0 1 0 0</rotate>
        <rotate sid="rotationX">1 0 0 0</rotate>
        <scale sid="scale">1 1 1</scale>
        <instance_controller url="#Armature_a006_003-skin">
          <skeleton>#a006</skeleton>
          <bind_material>
            <technique_common>
              <instance_material symbol="a006a01_003-material-material" target="#a006a01_003-material-material">
                <bind_vertex_input semantic="GeometrySource2" input_semantic="TEXCOORD" input_set="0"/>
              </instance_material>
            </technique_common>
          </bind_material>
        </instance_controller>
      </node>
    </visual_scene>
  </library_visual_scenes>
  <scene>
    <instance_visual_scene url="#Default"/>
  </scene>
</COLLADA>