<?xml version="1.0" encoding="utf-8"?>
<COLLADA xmlns="http://www.collada.org/2005/11/COLLADASchema" version="1.4.1">
  <asset>
    <contributor>
      <author>Blender User</author>
      <authoring_tool>Blender 2.77.0 commit date:2016-03-18, commit time:12:34, hash:22a2853</authoring_tool>
    </contributor>
    <created>2021-11-04T15:47:42</created>
    <modified>2021-11-04T15:47:42</modified>
    <unit name="meter" meter="1"/>
    <up_axis>Z_UP</up_axis>
  </asset>
  <library_images>
    <image id="a004a01_png_001" name="a004a01_png_001">
      <init_from>a004a01.png</init_from>
    </image>
  </library_images>
  <library_effects>
    <effect id="VisualMaterial0_001-material-effect">
      <profile_COMMON>
        <newparam sid="a004a01_png_001-surface">
          <surface type="2D">
            <init_from>a004a01_png_001</init_from>
          </surface>
        </newparam>
        <newparam sid="a004a01_png_001-sampler">
          <sampler2D>
            <source>a004a01_png_001-surface</source>
          </sampler2D>
        </newparam>
        <technique sid="common">
          <phong>
            <emission>
              <color sid="emission">0 0 0 1</color>
            </emission>
            <ambient>
              <color sid="ambient">0 0 0 1</color>
            </ambient>
            <diffuse>
              <texture texture="a004a01_png_001-sampler" texcoord="GeometrySource2"/>
            </diffuse>
            <specular>
              <color sid="specular">0.5 0.5 0.5 1</color>
            </specular>
            <shininess>
              <float sid="shininess">1</float>
            </shininess>
            <index_of_refraction>
              <float sid="index_of_refraction">1</float>
            </index_of_refraction>
          </phong>
        </technique>
      </profile_COMMON>
    </effect>
  </library_effects>
  <library_materials>
    <material id="VisualMaterial0_001-material-material" name="VisualMaterial0_001-material">
      <instance_effect url="#VisualMaterial0_001-material-effect"/>
    </material>
  </library_materials>
  <library_geometries>
    <geometry id="a004_012-mesh" name="a004_012">
      <mesh>
        <source id="a004_012-mesh-positions">
          <float_array id="a004_012-mesh-positions-array" count="1104">-0.106046 0.441491 0.07068097 -0.153005 0.422078 0.1076 -0.08370298 0.405176 0.07560598 -0.217873 0.433879 -0.06302696 -0.21105 0.398083 -0.08570396 -0.258009 0.378671 -0.04878497 -0.253814 0.419021 -0.03477096 -0.275946 0.371256 0.010948 -0.173448 0.452244 -0.06302696 -0.153005 0.422078 -0.08570396 -0.173448 0.452244 0.084921 -0.137507 0.467101 0.056665 -0.217873 0.433879 0.084921 -0.21105 0.398083 0.1076 -0.253814 0.419021 0.056665 -0.258009 0.378671 0.07068198 -0.267543 0.413346 0.01094698 -0.216792 0.460128 -0.02908694 -0.236243 0.452087 -0.01379495 -0.192749 0.470067 -0.02908694 -0.173297 0.478108 -0.01379495 -0.137507 0.467101 -0.03477096 -0.165868 0.481179 0.01094597 -0.1237789 0.472776 0.01094597 -0.173297 0.478108 0.03568899 -0.192749 0.470067 0.05098098 -0.216792 0.460128 0.05098098 -0.236243 0.452087 0.03568899 -0.243672 0.449016 0.01094597 -0.207969 0.472836 0.01094597 -0.088108 0.448906 0.01094597 -0.106046 0.441491 -0.04878598 -0.06428897 0.413201 0.01094895 -0.07388198 0.363685 -0.04877799 -0.120842 0.344274 -0.08569496 -0.134532 0.384164 -0.09366399 -0.08370298 0.405176 -0.05370396 -0.05569297 0.377496 -0.02262699 -0.05564296 0.378631 0.03769195 -0.05900895 0.361169 -0.07558 -0.06277495 0.33784 -0.115364 -0.120842 0.344274 -0.08569496 -0.217925 0.192565 -0.129698 -0.203979 0.242989 -0.1211979 -0.148546 0.244473 -0.169133 -0.258855 0.19468 -0.06251496 -0.2443169 0.2388589 -0.05928397 -0.155778 0.192458 -0.183708 -0.08014398 0.194205 -0.214076 -0.07546496 0.246845 -0.195361 -0.08218497 0.143866 -0.220849 -7e-6 0.194413 -0.2216089 -6e-6 0.144023 -0.228249 -0.220773 0.149094 -0.133708 -0.157058 0.144988 -0.188916 -7e-6 0.2478989 -0.200494 -0.05569297 0.377496 -0.02262699 -5e-6 0.364442 -0.07568496 -5e-6 0.382102 -0.02154999 -0.07388198 0.363685 -0.04877799 -0.173162 0.01957696 -0.105683 -0.233424 0.06084895 -0.06023895 -0.202773 0.06097996 -0.125138 -0.140805 0.01505994 -0.138317 -0.132928 0 -0.08447599 -0.192649 0.023413 -0.05346697 -0.196986 0.02494698 0.03712099 -0.248305 0.065409 0.02808499 -0.128731 0 0.044209 0 0 0.04604095 0 0.01284897 -0.157073 0 0 -0.08464795 0.132928 0 -0.08447599 0 0.04720395 -0.20502 0.07611799 0.04894095 -0.201654 0.128731 0 0.044209 0.196986 0.02494698 0.03712099 0.192649 0.023413 -0.05346697 0.173162 0.01957696 -0.105683 0.140805 0.01505994 -0.138317 0.2027699 0.06097996 -0.125138 0.151502 0.05544197 -0.1700209 0.25884 0.19468 -0.06251496 0.261693 0.151058 -0.06285095 0.220761 0.149094 -0.133708 0.275263 0.155538 0.01908099 0.2179099 0.192565 -0.129698 0.155763 0.192458 -0.183709 0.148532 0.244473 -0.169133 0.05899697 0.361169 -0.07558 -6e-6 0.340888 -0.122978 0.06276196 0.33784 -0.115364 0.271024 0.195298 0.01644498 0.05568099 0.377496 -0.02262699 0.07387 0.363685 -0.04877799 0.1208299 0.344274 -0.08569598 0.254046 0.157365 0.102517 0.2493669 0.199068 0.09641295 0.186212 0.03120195 0.12459 0.194238 0.071442 0.177836 0.132049 0.03283494 0.1962 0.130143 0.01000595 0.1481209 0.196986 0.02494698 0.03712099 0.128731 0 0.044209 0.06005299 0.01000595 0.164816 0 0 0.04604095 0.06395298 0.030752 0.222155 0 0.01000595 0.1753939 -0.06005299 0.01000595 0.164816 -0.128731 0 0.044209 -0.130143 0.01000595 0.1481209 -0.196986 0.02494698 0.03712099 -0.186212 0.03120195 0.12459 -0.06395298 0.030752 0.222155 -0.132049 0.03283494 0.1962 -0.134843 0.06999397 0.226915 0 0.03111797 0.2286199 -0.068129 0.06808 0.251232 -0.271039 0.195298 0.01644599 -0.275275 0.155538 0.01908195 -0.249381 0.199068 0.09641295 -0.254057 0.157365 0.102518 -0.256539 0.238104 0.01387298 -0.198908 0.205739 0.170409 -0.19144 0.250884 0.152144 -0.201625 0.16074 0.177727 -6e-6 0.2157689 0.237293 -0.07289797 0.231653 0.2254649 -0.06850397 0.199763 0.239211 -0.122017 0.262312 0.190537 -0.09248501 0.254547 0.2076489 -0.06402099 0.262624 0.206346 -0.06105095 0.312986 0.166737 -0.122647 0.306091 0.150494 -0.1535789 0.252867 0.178713 -0.1906909 0.196401 0.181338 -0.178716 0.228741 0.175346 -0.05564296 0.378631 0.03769195 -0.05887097 0.351771 0.107999 -5e-6 0.355808 0.112563 -5e-6 0.380355 0.03909599 -0.07388198 0.363686 0.07069098 0.122003 0.262312 0.190536 0.061037 0.312986 0.166737 0.06400698 0.262624 0.206345 0.092471 0.254547 0.2076489 0.07288396 0.231653 0.2254649 0.153565 0.252867 0.178712 0.122633 0.306091 0.150494 0.191425 0.250884 0.152144 0.178701 0.228741 0.175345 0.198893 0.205739 0.170408 0.1348389 0.06999397 0.226915 0.068125 0.06808 0.251232 -2e-6 0.06752097 0.258286 0.06848996 0.199763 0.239211 -5e-6 0.170134 0.254404 0.06832998 0.168748 0.248203 0.08046698 0.1674219 0.245203 0.190678 0.196401 0.181338 0.07779997 0.200385 0.237659 0.08160495 0.228002 0.225755 0.09856796 0.24783 0.210325 0.124143 0.254554 0.195505 0.151477 0.246374 0.185265 0.173245 0.225481 0.182349 0.1836169 0.197473 0.187538 0.14836 0.232523 0.204242 0.162254 0.219188 0.202381 0.101337 0.20317 0.2376829 0.1037639 0.220797 0.230085 0.114591 0.233452 0.220237 0.130914 0.237744 0.2107779 0.168874 0.201312 0.205693 0.166446 0.183685 0.213291 0.179812 0.169856 0.199443 0.1364409 0.203247 0.224449 -0.151491 0.246374 0.185266 -0.1535789 0.252867 0.178713 -0.178716 0.228741 0.175346 -0.17326 0.225481 0.18235 -0.124157 0.254554 0.195506 -0.122017 0.262312 0.190537 -0.09858196 0.24783 0.210325 -0.09248501 0.254547 0.2076489 -0.08161896 0.228002 0.225755 -0.07289797 0.231653 0.2254649 -0.07781398 0.200385 0.237659 -0.06850397 0.199763 0.239211 -0.08818399 0.172377 0.242848 -0.1906909 0.196401 0.181338 -0.168889 0.201312 0.205693 -0.1836299 0.197473 0.187539 -0.179825 0.169856 0.1994439 -0.1622689 0.219188 0.202381 -0.148374 0.232523 0.204242 -0.130928 0.237744 0.2107779 -0.114605 0.233452 0.220237 -0.103778 0.220797 0.230085 -0.10135 0.20317 0.2376829 -0.05564296 0.378631 0.03769195 -5e-6 0.380355 0.03909599 0.05563098 0.378631 0.03769195 0.2178609 0.433879 -0.06302696 0.253802 0.419021 -0.03477096 0.257997 0.378671 -0.04878497 0.173436 0.452244 -0.06302696 0.2110379 0.398083 -0.08570396 0.173436 0.452244 0.084921 0.137495 0.467101 0.056665 0.106034 0.441491 0.07068097 0.2178609 0.433879 0.084921 0.152993 0.422078 0.1076 0.253802 0.419021 0.056665 0.2110379 0.398083 0.1076 0.267531 0.413346 0.01094698 0.275934 0.371256 0.010948 0.21678 0.460128 -0.02908694 0.236231 0.452087 -0.01379495 0.192737 0.470067 -0.02908694 0.173285 0.478108 -0.01379495 0.137495 0.467101 -0.03477096 0.165856 0.481179 0.01094597 0.123767 0.472776 0.01094597 0.173285 0.478108 0.03568899 0.192737 0.470067 0.05098098 0.21678 0.460128 0.05098098 0.236231 0.452087 0.03568899 0.24366 0.449016 0.01094597 0.207957 0.472836 0.01094597 0.088095 0.448906 0.01094597 0.07387 0.363685 -0.04877799 0.083691 0.405176 -0.05370396 0.1345199 0.384164 -0.093665 0.05563098 0.378631 0.03769195 0.07386898 0.363686 0.07069098 0.06427699 0.413201 0.01094895 0.05568099 0.377496 -0.02262699 0.05563098 0.378631 0.03769195 -0.197359 0.358192 -0.09366399 -0.178887 0.320282 -0.08569395 -0.2258459 0.30087 -0.04877698 -0.248188 0.337181 -0.05370396 -0.2437829 0.293452 0.01095497 -0.267603 0.329155 0.01094996 -0.2258459 0.300866 0.07068896 -0.248188 0.337181 0.075607 -0.178887 0.320279 0.107608 -0.197359 0.358192 0.115566 -0.120842 0.344274 0.107609 -0.134532 0.384164 0.115566 -0.07388198 0.363686 0.07069098 -0.221705 0.289704 -0.05509996 -0.1814799 0.29326 -0.101983 -0.2258459 0.30087 -0.04877698 -0.2437829 0.293452 0.01095497 -0.178887 0.320282 -0.08569395 -0.120241 0.332755 -0.1029649 -0.135672 0.29646 -0.139713 -0.06888699 0.301243 -0.157751 -6e-6 0.301619 -0.161961 -0.217456 0.104652 -0.1324 -0.261705 0.151058 -0.06285095 -0.255807 0.1053169 -0.06381398 -0.07612097 0.04894095 -0.201654 -0.1515049 0.05544197 -0.1700209 -0.07999998 0.09355497 -0.217661 -2e-6 0.095299 -0.224537 -0.156526 0.09979397 -0.185071 0.233421 0.06084895 -0.06023997 0.255799 0.1053169 -0.06381398 0.248302 0.065409 0.02808398 0.07999199 0.09355497 -0.217661 0.2174479 0.104652 -0.132401 0.1565189 0.09979397 -0.185071 0.157046 0.144988 -0.188916 0.244302 0.2388589 -0.05928498 0.08012896 0.194205 -0.214076 0.08217298 0.143866 -0.220849 0.07545095 0.246845 -0.195361 0.135659 0.29646 -0.139714 0.203965 0.242989 -0.1211979 0.1814669 0.29326 -0.101983 0.120229 0.332755 -0.1029649 0.178874 0.320282 -0.08569395 0.068874 0.301243 -0.157751 0.2258329 0.30087 -0.04877698 0.221691 0.289704 -0.05509996 0.243771 0.293452 0.01095497 0.256525 0.238104 0.01387196 0.225834 0.300866 0.07068896 0.250286 0.109159 0.106761 0.269202 0.109041 0.021788 0.231539 0.07100898 0.111456 -0.194243 0.071442 0.177836 -0.231544 0.07100898 0.111456 -0.250294 0.109159 0.106762 -0.26921 0.109041 0.02178895 -0.2258459 0.300866 0.07068896 -0.236127 0.243821 0.08569198 -3e-6 0.1138049 0.263406 -0.06992501 0.112889 0.254969 -0.176792 0.297784 0.12537 -0.178887 0.320279 0.107608 -0.200048 0.110019 0.180784 -0.138287 0.110242 0.231013 -0.06834197 0.168748 0.248203 -0.105618 0.143297 0.241836 -0.08047896 0.1674219 0.245203 -0.137179 0.133852 0.2300119 -0.16671 0.141616 0.2129 -0.1862969 0.164511 0.195084 -6e-6 0.264539 0.211336 -5e-6 0.315237 0.170544 -0.120842 0.344274 0.107609 0.176778 0.297784 0.12537 0.178875 0.320279 0.107608 0.236113 0.243821 0.08569198 0.2016119 0.16074 0.177727 0.20004 0.110019 0.180784 0.138278 0.110242 0.231013 0.06991696 0.112889 0.254969 0.105605 0.143297 0.241836 0.137167 0.133852 0.2300119 0.166697 0.141616 0.212899 0.186284 0.164511 0.195083 0.162849 0.150028 0.214872 0.1372759 0.143304 0.229692 0.109942 0.151484 0.239932 0.088171 0.172377 0.242848 0.107956 0.185294 0.240995 0.121851 0.171959 0.239134 0.139297 0.166738 0.232598 0.155619 0.17103 0.223139 -0.08047896 0.1674219 0.245203 -0.109955 0.151484 0.239932 -0.105618 0.143297 0.241836 -0.137288 0.143304 0.229692 -0.137179 0.133852 0.2300119 -0.162862 0.150028 0.214873 -0.16671 0.141616 0.2129 -0.1862969 0.164511 0.195084 -0.107969 0.185294 0.240995 -0.121864 0.171959 0.239134 -0.139309 0.166738 0.232598 -0.155632 0.17103 0.223139 -0.166459 0.183685 0.213292 -0.136453 0.203247 0.224449 0.248176 0.337181 -0.05370396 0.197347 0.358192 -0.093665 0.2258329 0.30087 -0.04877698 0.178874 0.320282 -0.08569395 0.1208299 0.344274 -0.08569598 0.243771 0.293452 0.01095497 0.267591 0.329155 0.01094996 0.225834 0.300866 0.07068896 0.248176 0.337181 0.075607 0.178875 0.320279 0.107608 0.1973479 0.358192 0.115566 0.1208299 0.344274 0.107609 0.1345199 0.384164 0.115566 0.083691 0.405176 0.07560598 0.152993 0.422078 -0.08570396 0.257997 0.378671 0.07068198 0.106034 0.441491 -0.04878598 0.05885797 0.351771 0.107999 0.1208299 0.344274 0.107609 0.07386898 0.363686 0.07069098</float_array>
          <technique_common>
            <accessor source="#a004_012-mesh-positions-array" count="368" stride="3">
              <param name="X" type="float"/>
              <param name="Y" type="float"/>
              <param name="Z" type="float"/>
            </accessor>
          </technique_common>
        </source>
        <source id="a004_012-mesh-normals">
          <float_array id="a004_012-mesh-normals-array" count="1104">0.5534096 0.6288844 0.5461156 0.124062 0.4513843 0.8836634 0.7476355 0.3091317 0.5877745 -0.4701192 0.5504156 -0.6899498 -0.4065768 0.2319459 -0.8836835 -0.8359202 0.05447667 -0.5461407 -0.8053185 0.4118609 -0.4264187 -0.9999119 -0.01327556 0 -0.05575817 0.7217132 -0.6899429 0.1240921 0.4513218 -0.883691 -0.05575817 0.7217132 0.6899429 0.2794321 0.8603005 0.4263812 -0.4701114 0.5504369 0.6899382 -0.4066075 0.232007 0.8836534 -0.8053185 0.4118609 0.4264187 -0.8359175 0.05453759 0.5461389 -0.933363 0.3589341 0 -0.4660923 0.7918564 -0.3946158 -0.6578029 0.7126148 -0.243876 -0.2291058 0.8898413 -0.3945796 -0.0373547 0.9690873 -0.243874 0.2794358 0.8602814 -0.4264173 0.03582978 0.9993579 0 0.4074604 0.9132229 0 -0.0373547 0.9690873 0.243874 -0.2291058 0.8898413 0.3945796 -0.4660866 0.7918772 0.3945806 -0.6578173 0.7125998 0.2438813 -0.731027 0.6823487 0 -0.3820112 0.9241577 0 0.7174224 0.6966386 0 0.5534429 0.6288264 -0.5461487 0.888899 0.4574812 0.02386587 0.6946462 0.07953286 -0.7149415 0.3546372 -0.06460988 -0.9327691 0.2855966 0.1179558 -0.951063 0.7076727 0.3386684 -0.6200833 0.8831441 0.3259488 -0.3373631 0.7306392 0.5226176 0.4393601 -0.1414237 0.920444 -0.3643932 -0.1452407 0.8095818 -0.5687552 -0.240094 0.8368346 -0.4919989 -0.7483704 0.2041454 -0.6310836 -0.6911661 0.3926587 -0.6067197 -0.4714068 0.4123207 -0.7795944 -0.9210125 0.1943166 -0.3376049 -0.8736514 0.3368133 -0.3511269 -0.5143444 0.2037479 -0.8330286 -0.2260841 0.2363994 -0.9449875 -0.1873869 0.4577856 -0.8690906 -0.2434541 0.02987855 -0.9694521 0 0.2440577 -0.9697608 0 0.03012186 -0.9995463 -0.7688122 0.01266551 -0.6393492 -0.5266718 0.01342844 -0.8499628 0 0.4772562 -0.8787642 -0.1075501 0.9776563 -0.1806134 0 0.9275711 -0.373647 0 0.9883922 -0.1519241 -0.279559 0.9290454 -0.2423251 -0.5292034 -0.7997563 -0.283432 -0.777294 -0.5905774 -0.2168695 -0.6999565 -0.4942575 -0.5155293 -0.3199961 -0.8271372 -0.4620029 -0.1865937 -0.9763974 -0.10877 -0.532403 -0.8428722 -0.07818949 -0.483757 -0.8751939 -0.003875911 -0.7997162 -0.5981086 0.05215668 -0.1648321 -0.9863071 0.005371272 0 -1 0 0 -0.9159359 -0.4013247 0 -0.9961433 -0.08774238 0.1865937 -0.9763974 -0.10877 0 -0.6175493 -0.7865322 0.1859838 -0.5903323 -0.7854413 0.1648321 -0.9863071 0.005371272 0.483757 -0.8751939 -0.003875911 0.5324386 -0.8428497 -0.07819026 0.5292034 -0.7997563 -0.283432 0.3199961 -0.8271372 -0.4620029 0.6999666 -0.4942036 -0.5155673 0.4944201 -0.4761693 -0.7271943 0.921007 0.194346 -0.3376029 0.9435819 -0.02432352 -0.3302445 0.7688116 0.01272654 -0.6393487 0.9991323 -0.004425227 0.04141432 0.7483657 0.2041746 -0.6310797 0.5143444 0.2037479 -0.8330286 0.4714068 0.4123207 -0.7795944 0.1414237 0.920444 -0.3643932 0 0.8111209 -0.5848786 0.1452407 0.8095818 -0.5687552 0.9756668 0.2147022 0.04446637 0.1075501 0.9776563 -0.1806134 0.279559 0.9290454 -0.2423251 0.240094 0.8368346 -0.4919989 0.9092337 0.06198483 0.4116455 0.8859046 0.246288 0.3930843 0.5507559 -0.7929592 0.2605454 0.6894113 -0.4197691 0.5903441 0.3805095 -0.7467361 0.5455251 0.2492521 -0.9372515 0.2437891 0.5180038 -0.8473373 0.1170109 0.1847046 -0.9788858 0.08756071 0.04205572 -0.975981 0.2137581 0 -0.9966719 0.08151727 0.1416997 -0.7928534 0.5927097 0 -0.9726486 0.232282 -0.04205572 -0.975981 0.2137581 -0.1847046 -0.9788858 0.08756071 -0.2492521 -0.9372515 0.2437891 -0.5179681 -0.8473594 0.1170097 -0.5507214 -0.7929838 0.2605435 -0.1416997 -0.7928534 0.5927097 -0.3805158 -0.7467486 0.5455037 -0.460719 -0.3670554 0.8080894 0 -0.7968468 0.6041814 -0.2101849 -0.3681823 0.9056844 -0.9756668 0.2147022 0.04446637 -0.999132 -0.004486262 0.04141432 -0.8859113 0.2462593 0.3930872 -0.9092354 0.06195443 0.4116463 -0.9589551 0.2799865 0.04486376 -0.7248355 0.2733011 0.6323923 -0.641703 0.448423 0.622201 -0.7801987 0.07251417 0.6213145 0 0.4162847 0.9092344 -0.05829256 0.4886811 0.870513 -0.09146517 0.335464 0.9376023 -0.3154813 0.6348997 0.7052475 -0.1602264 0.6800925 0.7154033 -0.1140189 0.5838587 0.803809 -0.1563498 0.7304768 0.6647995 -0.3064733 0.6789901 0.6671181 -0.4765285 0.5748313 0.665199 -0.6909499 0.2163796 0.6897596 -0.5724149 0.4058725 0.7124667 -0.07446789 0.9392113 0.3351666 -0.1196052 0.8800246 0.4596209 0 0.8903438 0.4552891 0 0.9484665 0.3168777 -0.1246093 0.9295496 0.3470017 0.3362616 0.608677 0.718638 0.1563498 0.7304768 0.6647995 0.1140189 0.5838587 0.803809 0.1942245 0.6228064 0.7578846 0.09934061 0.4693579 0.8774023 0.4858111 0.5567082 0.6738424 0.3064733 0.6789901 0.6671181 0.641703 0.448423 0.622201 0.5863232 0.4156633 0.6953051 0.7248579 0.2733286 0.6323547 0.4607242 -0.367029 0.8080985 0.2101849 -0.3681823 0.9056844 0 -0.3813928 0.924413 0.110511 0.3230485 0.939908 0 0.245163 0.969482 0.176827 0.2042635 0.9628129 0.2263321 0.1711835 0.95889 0.6767564 0.2481796 0.6931146 0.06427276 0.3000311 0.9517618 0.08743733 0.4682552 0.8792565 0.1907736 0.5890147 0.7852817 0.346517 0.6299811 0.6950178 0.5129997 0.5801423 0.6326661 0.645576 0.4529072 0.6149039 0.7086955 0.2823368 0.6465576 0.5011941 0.5408086 0.6755225 0.6129441 0.4335532 0.6605537 0.1230242 0.3047376 0.9444576 0.1425563 0.4464995 0.8833549 0.2296271 0.5482791 0.8041527 0.3608868 0.5827901 0.728091 0.6661798 0.2898133 0.6871773 0.6466357 0.1480475 0.7482943 0.6855777 0.1141409 0.7189959 0.4137161 0.3116909 0.8553876 -0.5129997 0.5801423 0.6326661 -0.4981619 0.5313361 0.6852129 -0.6050121 0.4288249 0.6708724 -0.6455848 0.452883 0.6149125 -0.3465164 0.6299493 0.695047 -0.364035 0.571475 0.7354556 -0.1907442 0.5890181 0.7852862 -0.2385421 0.53849 0.8081622 -0.08743733 0.4682552 0.8792565 -0.1553111 0.4412131 0.8838606 -0.06427276 0.3000311 0.9517618 -0.1366344 0.3056801 0.9422796 -0.1274483 0.1294625 0.9833598 -0.6558348 0.2914007 0.6963953 -0.6661798 0.2898133 0.6871773 -0.708746 0.282302 0.6465175 -0.6855801 0.1141107 0.7189984 -0.612925 0.4335613 0.6605661 -0.5011838 0.5407975 0.6755391 -0.3608932 0.5827699 0.7281039 -0.2296271 0.5482791 0.8041527 -0.1425563 0.4464995 0.8833549 -0.1230242 0.3047376 0.9444576 -0.05557537 0.9984348 0.006286919 0 0.9995859 0.02877932 0.05557537 0.9984348 0.006286919 0.4701192 0.5504156 -0.6899498 0.8053292 0.4118507 -0.4264082 0.8359202 0.05447667 -0.5461407 0.05575817 0.7217132 -0.6899429 0.4065768 0.2319459 -0.8836835 0.05575817 0.7217132 0.6899429 -0.2794321 0.8603005 0.4263812 -0.5534005 0.628874 0.546137 0.4701114 0.5504369 0.6899382 -0.124062 0.4513843 0.8836634 0.8053185 0.4118609 0.4264187 0.4066075 0.232007 0.8836534 0.933363 0.3589341 0 0.9999119 -0.01327556 0 0.4660923 0.7918564 -0.3946158 0.6578029 0.7126148 -0.243876 0.2291058 0.8898413 -0.3945796 0.0373547 0.9690873 -0.243874 -0.2794358 0.8602814 -0.4264173 -0.03582978 0.9993579 0 -0.4074604 0.9132229 0 0.0373547 0.9690873 0.243874 0.2291058 0.8898413 0.3945796 0.4660866 0.7918772 0.3945806 0.6578173 0.7125998 0.2438813 0.731027 0.6823487 0 0.3820112 0.9241577 0 -0.7174372 0.6966233 0 -0.6946462 0.07953286 -0.7149415 -0.7076727 0.3386684 -0.6200833 -0.2855966 0.1179558 -0.951063 -0.7306392 0.5226176 0.4393601 -0.752213 0.1790271 0.6341333 -0.888899 0.4574812 0.02386587 -0.8831441 0.3259488 -0.3373631 0.07446789 0.9392113 0.3351666 -0.2855064 -0.1181395 -0.9510674 -0.2054849 -0.2962181 -0.9327545 -0.658698 -0.4835172 -0.576479 -0.7476221 -0.3091262 -0.5877945 -0.8318578 -0.5549889 0 -0.9241577 -0.3820112 0 -0.6587868 -0.4833626 0.5765072 -0.7476637 -0.3090087 0.5878033 -0.205605 -0.295971 0.9328064 -0.2855966 -0.1179558 0.951063 0.3545692 -0.06436443 0.9328119 0.2855344 0.1181384 0.9510591 0.752213 0.1790271 0.6341333 -0.8367362 0.2349343 -0.49465 -0.5761644 0.5181481 -0.6321054 -0.8903594 -0.02429306 -0.45461 -0.9684561 0.2491562 0.003723263 -0.4896216 0.5131215 -0.704966 -0.2824568 0.7596274 -0.5858195 -0.3967176 0.6309515 -0.6667199 -0.1508882 0.6609296 -0.7351224 0 0.6422355 -0.7665075 -0.7633819 -0.207715 -0.6116394 -0.9435806 -0.02438449 -0.3302441 -0.9124644 -0.2761992 -0.3018658 -0.1859849 -0.5903663 -0.7854155 -0.4944129 -0.4761929 -0.7271838 -0.2404885 -0.2125638 -0.9470914 0 -0.2190045 -0.9757239 -0.527557 -0.2005119 -0.8255172 0.777315 -0.5905396 -0.2168974 0.9124925 -0.2761069 -0.3018651 0.7997564 -0.5980548 0.05215734 0.24049 -0.2125346 -0.9470975 0.7634043 -0.2076518 -0.6116329 0.5275502 -0.2004483 -0.825537 0.5266715 0.01345896 -0.8499624 0.8736514 0.3368133 -0.3511269 0.2260841 0.2363994 -0.9449875 0.2434539 0.02990907 -0.9694513 0.1873869 0.4577856 -0.8690906 0.3967176 0.6309515 -0.6667199 0.6911743 0.3926329 -0.606727 0.5761735 0.5181258 -0.6321154 0.2824568 0.7596274 -0.5858195 0.4896216 0.5131215 -0.704966 0.1508882 0.6609296 -0.7351224 0.8903393 -0.02435439 -0.4546459 0.8367481 0.2348766 -0.494657 0.9684635 0.2491276 0.003723323 0.9589589 0.2799786 0.04483193 0.8455525 0.3228884 0.4251872 0.9034907 -0.2038378 0.3770343 0.9607474 -0.275223 0.03488355 0.7878534 -0.5312173 0.3116011 -0.6893936 -0.4198193 0.5903289 -0.7878162 -0.531274 0.3115985 -0.9034634 -0.2038995 0.3770661 -0.9607208 -0.2753157 0.03488367 -0.8455547 0.3229009 0.4251732 -0.8732274 0.3047384 0.3802744 0 0.0215463 0.9997679 -0.2151266 0.005706965 0.9765695 -0.5195308 0.5233457 0.6754236 -0.5193523 0.5381829 0.6638016 -0.7395651 -0.08621591 0.6675404 -0.4973918 -0.03860598 0.8666666 -0.176827 0.2042635 0.9628129 -0.303699 0.06573885 0.9504975 -0.2541033 0.1731052 0.9515599 -0.4891026 0.01361161 0.8721201 -0.6065744 -0.1689252 0.7768731 -0.7491529 -0.003692805 0.662387 0 0.5483384 0.8362565 0 0.7291679 0.6843349 -0.1722186 0.7826901 0.5981112 0.5194978 0.5233432 0.6754509 0.5193502 0.5381503 0.6638296 0.8732172 0.3047348 0.3803005 0.7801821 0.07254314 0.6213319 0.7395691 -0.08615535 0.667544 0.497393 -0.03854501 0.8666687 0.2151266 0.005706965 0.9765695 0.2997885 0.06576848 0.951736 0.4638301 0.01870822 0.8857268 0.5883492 -0.07260519 0.8053408 0.7056559 0.06436413 0.7056254 0.5822529 -0.006592214 0.812981 0.4265012 -0.04754835 0.9032363 0.2600243 0.002227902 0.9655996 0.1274477 0.1294925 0.983356 0.1762486 0.160989 0.9710917 0.2879768 0.05374383 0.9561282 0.4283087 0.01174992 0.9035561 0.5595664 0.04626685 0.8274931 -0.1875711 0.1682524 0.9677337 -0.2600243 0.002227902 0.9655996 -0.2943883 0.06576889 0.9534202 -0.4265012 -0.04754835 0.9032363 -0.4284891 0.02560555 0.9031841 -0.5822384 -0.006592035 0.8129914 -0.5539513 0.05859655 0.8304844 -0.6372048 0.1558907 0.7547637 -0.1762486 0.160989 0.9710917 -0.2880048 0.05374336 0.9561198 -0.4283087 0.01174992 0.9035561 -0.5595313 0.04626643 0.8275168 -0.6466031 0.148047 0.7483225 -0.4137161 0.3116909 0.8553876 0.7476221 -0.3091262 -0.5877945 0.2855344 -0.1181384 -0.9510591 0.658698 -0.4835172 -0.576479 0.2054849 -0.2962181 -0.9327545 -0.3546372 -0.06460988 -0.9327691 0.8318578 -0.5549889 0 0.9241577 -0.3820112 0 0.6587868 -0.4833626 0.5765072 0.7476637 -0.3090087 0.5878033 0.205605 -0.295971 0.9328064 0.2855966 -0.1179558 0.951063 -0.3545425 -0.06436514 0.9328219 -0.2855344 0.1181384 0.9510591 -0.7476355 0.3091317 0.5877745 -0.1240921 0.4513218 -0.883691 0.8359175 0.05453759 0.5461389 -0.5534337 0.6288159 -0.5461701 0.1196052 0.8800246 0.4596209 0.1722186 0.7826901 0.5981112 0.1246093 0.9295496 0.3470017</float_array>
          <technique_common>
            <accessor source="#a004_012-mesh-normals-array" count="368" stride="3">
              <param name="X" type="float"/>
              <param name="Y" type="float"/>
              <param name="Z" type="float"/>
            </accessor>
          </technique_common>
        </source>
        <source id="a004_012-mesh-map-0">
          <float_array id="a004_012-mesh-map-0-array" count="3888">0.574015 0.745337 0.575314 0.78345 0.613156 0.735976 0.456964 0.756131 0.428995 0.748571 0.430294 0.786685 0.458416 0.779503 0.456964 0.756131 0.430294 0.786685 0.458416 0.779503 0.430294 0.786685 0.459042 0.816902 0.456964 0.756131 0.472774 0.736533 0.428995 0.748571 0.472774 0.736533 0.45564 0.717118 0.428995 0.748571 0.547344 0.77589 0.575314 0.78345 0.574015 0.745337 0.545893 0.752518 0.547344 0.77589 0.574015 0.745337 0.547344 0.77589 0.531535 0.795488 0.575314 0.78345 0.531535 0.795488 0.548668 0.814903 0.575314 0.78345 0.531535 0.795488 0.504503 0.803827 0.548668 0.814903 0.504503 0.803827 0.504256 0.82768 0.548668 0.814903 0.504503 0.803827 0.476574 0.797722 0.504256 0.82768 0.480123 0.761612 0.456964 0.756131 0.458416 0.779503 0.481134 0.772927 0.480123 0.761612 0.458416 0.779503 0.481134 0.772927 0.458416 0.779503 0.476574 0.797722 0.480123 0.761612 0.487527 0.751977 0.456964 0.756131 0.487527 0.751977 0.472774 0.736533 0.456964 0.756131 0.487527 0.751977 0.500518 0.747703 0.472774 0.736533 0.500518 0.747703 0.499806 0.728194 0.472774 0.736533 0.500518 0.747703 0.514134 0.750421 0.499806 0.728194 0.514134 0.750421 0.527735 0.734299 0.499806 0.728194 0.545893 0.752518 0.574015 0.745337 0.527735 0.734299 0.514134 0.750421 0.523175 0.759094 0.527735 0.734299 0.523175 0.759094 0.545893 0.752518 0.527735 0.734299 0.524186 0.770409 0.547344 0.77589 0.545893 0.752518 0.523175 0.759094 0.524186 0.770409 0.545893 0.752518 0.516782 0.780044 0.531535 0.795488 0.547344 0.77589 0.524186 0.770409 0.516782 0.780044 0.547344 0.77589 0.50379 0.784318 0.504503 0.803827 0.531535 0.795488 0.516782 0.780044 0.50379 0.784318 0.531535 0.795488 0.490174 0.7816 0.481134 0.772927 0.476574 0.797722 0.50379 0.784318 0.490174 0.7816 0.504503 0.803827 0.490174 0.7816 0.476574 0.797722 0.504503 0.803827 0.502154 0.766011 0.514134 0.750421 0.500518 0.747703 0.502154 0.766011 0.487527 0.751977 0.480123 0.761612 0.502154 0.766011 0.524186 0.770409 0.523175 0.759094 0.502154 0.766011 0.516782 0.780044 0.524186 0.770409 0.502154 0.766011 0.480123 0.761612 0.481134 0.772927 0.502154 0.766011 0.523175 0.759094 0.514134 0.750421 0.502154 0.766011 0.500518 0.747703 0.487527 0.751977 0.502154 0.766011 0.490174 0.7816 0.50379 0.784318 0.502154 0.766011 0.481134 0.772927 0.490174 0.7816 0.502154 0.766011 0.50379 0.784318 0.516782 0.780044 0.574015 0.745337 0.545267 0.715119 0.527735 0.734299 0.574015 0.745337 0.613156 0.735976 0.545267 0.715119 0.527735 0.734299 0.545267 0.715119 0.499806 0.728194 0.499806 0.728194 0.500052 0.704341 0.472774 0.736533 0.545267 0.715119 0.500052 0.704341 0.499806 0.728194 0.545267 0.715119 0.570132 0.688937 0.500052 0.704341 0.502154 0.618193 0.39474 0.646424 0.43254 0.6899 0.502154 0.618193 0.501142 0.671338 0.570985 0.632309 0.618643 0.663563 0.570985 0.632309 0.570132 0.688937 0.861689 0.749458 0.871026 0.683768 0.787033 0.734671 0.699171 0.466722 0.705053 0.527634 0.792533 0.523429 0.608035 0.468668 0.6120001 0.525595 0.699171 0.466722 0.791066 0.461973 0.699171 0.466722 0.792533 0.523429 0.791066 0.461973 0.792533 0.523429 0.882777 0.457273 0.882777 0.457273 0.792533 0.523429 0.884967 0.524264 0.882777 0.457273 0.876615 0.399332 0.791066 0.461973 0.882777 0.457273 0.884967 0.524264 0.97012 0.451476 0.97012 0.451476 0.96279 0.38303 0.882777 0.457273 0.791066 0.461973 0.699627 0.419651 0.699171 0.466722 0.791066 0.461973 0.876615 0.399332 0.7894 0.411159 0.97012 0.451476 0.884967 0.524264 0.968826 0.529546 0.853924 0.830796 0.930696 0.765015 0.861689 0.749458 0.91948 0.841891 0.930696 0.765015 0.853924 0.830796 0.861689 0.749458 0.798265 0.808001 0.853924 0.830796 0.71489 0.274324 0.627527 0.314854 0.706177 0.327628 0.71489 0.274324 0.759001 0.27205 0.727272 0.225975 0.653946 0.257457 0.71489 0.274324 0.727272 0.225975 0.653946 0.257457 0.627527 0.314854 0.71489 0.274324 0.653946 0.257457 0.727272 0.225975 0.557856 0.1943629 0.557856 0.1943629 0.504369 0.283445 0.653946 0.257457 0.557856 0.1943629 0.727272 0.225975 0.617872 0.121735 0.724667 0.018296 0.617872 0.121735 0.727272 0.225975 0.759001 0.27205 0.879073 0.192314 0.727272 0.225975 0.879073 0.192314 0.834553 0.124757 0.727272 0.225975 0.834553 0.124757 0.724667 0.018296 0.727272 0.225975 0.834553 0.124757 0.879073 0.192314 0.727272 0.225975 0.724667 0.018296 0.834553 0.124757 0.727272 0.225975 0.879073 0.192314 0.920736 0.255419 0.855215 0.294747 0.617872 0.121735 0.724667 0.018296 0.727272 0.225975 0.727272 0.225975 0.557856 0.1943629 0.617872 0.121735 0.727272 0.225975 0.653946 0.257457 0.557856 0.1943629 0.71489 0.274324 0.653946 0.257457 0.727272 0.225975 0.879073 0.192314 0.855215 0.294747 0.759001 0.27205 0.879073 0.192314 0.759001 0.27205 0.727272 0.225975 0.759001 0.27205 0.71489 0.274324 0.727272 0.225975 0.759001 0.27205 0.706177 0.327628 0.71489 0.274324 0.759001 0.27205 0.774623 0.319973 0.706177 0.327628 0.608035 0.468668 0.60841 0.418732 0.699627 0.419651 0.608035 0.468668 0.507587 0.413943 0.60841 0.418732 0.608035 0.468668 0.699627 0.419651 0.699171 0.466722 0.699171 0.466722 0.791066 0.461973 0.792533 0.523429 0.861689 0.749458 0.94489 0.693692 0.930696 0.765015 0.861689 0.749458 0.871026 0.683768 0.94489 0.693692 0.608035 0.468668 0.507545 0.464419 0.507587 0.413943 0.930696 0.765015 0.853924 0.830796 0.861689 0.749458 0.930696 0.765015 0.91948 0.841891 0.853924 0.830796 0.798265 0.808001 0.861689 0.749458 0.853924 0.830796 0.798265 0.808001 0.787033 0.734671 0.861689 0.749458 0.507545 0.464419 0.400409 0.4098 0.507587 0.413943 0.507545 0.464419 0.400362 0.46227 0.400409 0.4098 0.339024 0.250195 0.296893 0.316427 0.241145 0.257145 0.339024 0.250195 0.241145 0.257145 0.279209 0.21074 0.339024 0.250195 0.279209 0.21074 0.444242 0.200613 0.376526 0.1299999 0.444242 0.200613 0.279209 0.21074 0.208614 0.168059 0.376526 0.1299999 0.279209 0.21074 0.276677 0.01288497 0.376526 0.1299999 0.208614 0.168059 0.279209 0.21074 0.241145 0.257145 0.16702 0.225372 0.208614 0.168059 0.279209 0.21074 0.16702 0.225372 0.156261 0.127103 0.208614 0.168059 0.16702 0.225372 0.156261 0.127103 0.276677 0.01288497 0.208614 0.168059 0.276677 0.01288497 0.156261 0.127103 0.208614 0.168059 0.376526 0.1299999 0.276677 0.01288497 0.208614 0.168059 0.376526 0.1299999 0.208614 0.168059 0.279209 0.21074 0.444242 0.200613 0.376526 0.1299999 0.279209 0.21074 0.339024 0.250195 0.504369 0.283445 0.444242 0.200613 0.279209 0.21074 0.339024 0.250195 0.444242 0.200613 0.208614 0.168059 0.156261 0.127103 0.16702 0.225372 0.279209 0.21074 0.208614 0.168059 0.16702 0.225372 0.241145 0.257145 0.279209 0.21074 0.16702 0.225372 0.241145 0.257145 0.339024 0.250195 0.279209 0.21074 0.241145 0.257145 0.16702 0.225372 0.216309 0.307998 0.156261 0.127103 0.108931 0.187638 0.16702 0.225372 0.108931 0.187638 0.156261 0.127103 0.16702 0.225372 0.16702 0.225372 0.108931 0.187638 0.141676 0.286037 0.507545 0.464419 0.608035 0.468668 0.507587 0.413943 0.400362 0.46227 0.507545 0.464419 0.400409 0.4098 0.400362 0.46227 0.50714 0.524679 0.507545 0.464419 0.507545 0.464419 0.50714 0.524679 0.608035 0.468668 0.608035 0.468668 0.50714 0.524679 0.6120001 0.525595 0.297934 0.458378 0.291699 0.517462 0.400362 0.46227 0.400362 0.46227 0.297274 0.403254 0.297934 0.458378 0.400362 0.46227 0.400409 0.4098 0.297274 0.403254 0.03905999 0.446376 0.123448 0.475439 0.116479 0.433276 0.190565 0.523514 0.150566 0.508468 0.113535 0.520255 0.190565 0.523514 0.123405 0.602864 0.2058579 0.596288 0.232728 0.516544 0.190565 0.523514 0.2058579 0.596288 0.297934 0.458378 0.297274 0.403254 0.280802 0.449428 0.265757 0.489427 0.297934 0.458378 0.280802 0.449428 0.158111 0.797831 0.140308 0.69137 0.06878095 0.713683 0.09133899 0.812252 0.158111 0.797831 0.06878095 0.713683 0.158111 0.797831 0.187984 0.747254 0.140308 0.69137 0.190565 0.523514 0.123405 0.602864 0.113535 0.520255 0.150566 0.508468 0.190565 0.523514 0.113535 0.520255 0.150566 0.508468 0.113535 0.520255 0.123448 0.475439 0.123448 0.475439 0.113535 0.520255 0.03905999 0.446376 0.190565 0.523514 0.232728 0.516544 0.2058579 0.596288 0.232728 0.516544 0.291699 0.517462 0.2058579 0.596288 0.265757 0.489427 0.291699 0.517462 0.232728 0.516544 0.297934 0.458378 0.291699 0.517462 0.265757 0.489427 0.16702 0.225372 0.241145 0.257145 0.216309 0.307998 0.16702 0.225372 0.216309 0.307998 0.141676 0.286037 0.108931 0.187638 0.16702 0.225372 0.141676 0.286037 0.108931 0.187638 0.141676 0.286037 0.07358896 0.255449 0.123448 0.475439 0.03905999 0.446376 0.116479 0.433276 0.03905999 0.446376 0.04334098 0.37855 0.116479 0.433276 0.116479 0.433276 0.112742 0.38379 0.131524 0.393277 0.297934 0.458378 0.265757 0.489427 0.280802 0.449428 0.116479 0.433276 0.127486 0.434358 0.123448 0.475439 0.127486 0.434358 0.133522 0.470872 0.123448 0.475439 0.123448 0.475439 0.133522 0.470872 0.150566 0.508468 0.150566 0.508468 0.157006 0.499476 0.190565 0.523514 0.133522 0.470872 0.157006 0.499476 0.150566 0.508468 0.190565 0.523514 0.1916469 0.512506 0.232728 0.516544 0.157006 0.499476 0.1916469 0.512506 0.190565 0.523514 0.232728 0.516544 0.228161 0.50647 0.265757 0.489427 0.1916469 0.512506 0.228161 0.50647 0.232728 0.516544 0.228161 0.50647 0.256765 0.482986 0.265757 0.489427 0.265757 0.489427 0.256765 0.482986 0.280802 0.449428 0.256765 0.482986 0.269795 0.448346 0.280802 0.449428 0.228161 0.50647 0.217476 0.482901 0.256765 0.482986 0.217476 0.482901 0.235727 0.467917 0.256765 0.482986 0.256765 0.482986 0.235727 0.467917 0.269795 0.448346 0.127486 0.434358 0.15324 0.436889 0.133522 0.470872 0.133522 0.470872 0.157091 0.460187 0.157006 0.499476 0.157006 0.499476 0.172076 0.478438 0.1916469 0.512506 0.157091 0.460187 0.172076 0.478438 0.157006 0.499476 0.172076 0.478438 0.194178 0.486752 0.1916469 0.512506 0.1916469 0.512506 0.194178 0.486752 0.228161 0.50647 0.194178 0.486752 0.217476 0.482901 0.228161 0.50647 0.235727 0.467917 0.244041 0.445814 0.269795 0.448346 0.244041 0.445814 0.24019 0.422516 0.263759 0.411832 0.172076 0.478438 0.198641 0.441352 0.194178 0.486752 0.194178 0.486752 0.198641 0.441352 0.217476 0.482901 0.217476 0.482901 0.198641 0.441352 0.235727 0.467917 0.244041 0.445814 0.198641 0.441352 0.24019 0.422516 0.235727 0.467917 0.198641 0.441352 0.244041 0.445814 0.157091 0.460187 0.198641 0.441352 0.172076 0.478438 0.53341 0.162105 0.537977 0.172179 0.571006 0.145061 0.562014 0.13862 0.53341 0.162105 0.571006 0.145061 0.53341 0.162105 0.496896 0.1681399 0.537977 0.172179 0.496896 0.1681399 0.495814 0.179148 0.537977 0.172179 0.496896 0.1681399 0.462255 0.155111 0.495814 0.179148 0.462255 0.155111 0.455815 0.164102 0.495814 0.179148 0.462255 0.155111 0.438771 0.126506 0.455815 0.164102 0.438771 0.126506 0.428697 0.1310729 0.455815 0.164102 0.438771 0.126506 0.432735 0.08999198 0.428697 0.1310729 0.432735 0.08999198 0.421728 0.08890998 0.428697 0.1310729 0.432735 0.08999198 0.445765 0.05535197 0.421728 0.08890998 0.562014 0.13862 0.571006 0.145061 0.586051 0.105062 0.54929 0.101449 0.575044 0.10398 0.569008 0.06746596 0.540976 0.123551 0.562014 0.13862 0.575044 0.10398 0.54929 0.101449 0.540976 0.123551 0.575044 0.10398 0.522725 0.138535 0.53341 0.162105 0.562014 0.13862 0.540976 0.123551 0.522725 0.138535 0.562014 0.13862 0.522725 0.138535 0.499427 0.142386 0.53341 0.162105 0.499427 0.142386 0.496896 0.1681399 0.53341 0.162105 0.477325 0.134073 0.462255 0.155111 0.496896 0.1681399 0.499427 0.142386 0.477325 0.134073 0.496896 0.1681399 0.477325 0.134073 0.46234 0.115822 0.462255 0.155111 0.46234 0.115822 0.438771 0.126506 0.462255 0.155111 0.46234 0.115822 0.458489 0.09252297 0.438771 0.126506 0.853924 0.830796 0.850914 0.907279 0.91948 0.841891 0.850914 0.907279 0.912956 0.915808 0.91948 0.841891 0.850914 0.907279 0.853924 0.830796 0.91948 0.841891 0.912956 0.915808 0.850914 0.907279 0.91948 0.841891 0.456964 0.756131 0.458416 0.779503 0.430294 0.786685 0.472774 0.736533 0.456964 0.756131 0.428995 0.748571 0.547344 0.77589 0.545893 0.752518 0.574015 0.745337 0.531535 0.795488 0.547344 0.77589 0.575314 0.78345 0.504503 0.803827 0.531535 0.795488 0.548668 0.814903 0.458416 0.779503 0.476574 0.797722 0.459042 0.816902 0.456964 0.756131 0.480123 0.761612 0.458416 0.779503 0.480123 0.761612 0.481134 0.772927 0.458416 0.779503 0.458416 0.779503 0.481134 0.772927 0.476574 0.797722 0.487527 0.751977 0.480123 0.761612 0.456964 0.756131 0.472774 0.736533 0.487527 0.751977 0.456964 0.756131 0.500518 0.747703 0.487527 0.751977 0.472774 0.736533 0.499806 0.728194 0.500518 0.747703 0.472774 0.736533 0.514134 0.750421 0.500518 0.747703 0.499806 0.728194 0.574015 0.745337 0.545893 0.752518 0.527735 0.734299 0.527735 0.734299 0.514134 0.750421 0.499806 0.728194 0.545893 0.752518 0.523175 0.759094 0.527735 0.734299 0.523175 0.759094 0.514134 0.750421 0.527735 0.734299 0.524186 0.770409 0.523175 0.759094 0.545893 0.752518 0.547344 0.77589 0.524186 0.770409 0.545893 0.752518 0.531535 0.795488 0.516782 0.780044 0.547344 0.77589 0.516782 0.780044 0.524186 0.770409 0.547344 0.77589 0.504503 0.803827 0.50379 0.784318 0.531535 0.795488 0.50379 0.784318 0.516782 0.780044 0.531535 0.795488 0.481134 0.772927 0.490174 0.7816 0.476574 0.797722 0.490174 0.7816 0.50379 0.784318 0.504503 0.803827 0.516782 0.780044 0.502154 0.766011 0.524186 0.770409 0.480123 0.761612 0.502154 0.766011 0.481134 0.772927 0.487527 0.751977 0.502154 0.766011 0.480123 0.761612 0.500518 0.747703 0.502154 0.766011 0.487527 0.751977 0.523175 0.759094 0.502154 0.766011 0.514134 0.750421 0.524186 0.770409 0.502154 0.766011 0.523175 0.759094 0.50379 0.784318 0.502154 0.766011 0.516782 0.780044 0.490174 0.7816 0.502154 0.766011 0.50379 0.784318 0.481134 0.772927 0.502154 0.766011 0.490174 0.7816 0.514134 0.750421 0.502154 0.766011 0.500518 0.747703 0.545267 0.715119 0.574015 0.745337 0.527735 0.734299 0.545267 0.715119 0.527735 0.734299 0.499806 0.728194 0.502154 0.618193 0.501142 0.671338 0.43254 0.6899 0.618643 0.663563 0.675955 0.720333 0.570132 0.688937 0.570985 0.632309 0.618643 0.663563 0.570132 0.688937 0.158111 0.797831 0.09133899 0.812252 0.06878095 0.713683 0.476574 0.797722 0.458416 0.779503 0.459042 0.816902 0.476574 0.797722 0.459042 0.816902 0.504256 0.82768 0.500052 0.704341 0.45564 0.717118 0.472774 0.736533 0.613156 0.735976 0.570132 0.688937 0.545267 0.715119 0.501142 0.671338 0.43254 0.6899 0.45564 0.717118 0.500052 0.704341 0.501142 0.671338 0.45564 0.717118 0.570132 0.688937 0.501142 0.671338 0.500052 0.704341 0.501142 0.671338 0.502154 0.618193 0.43254 0.6899 0.501142 0.671338 0.570132 0.688937 0.570985 0.632309 0.6120001 0.525595 0.705053 0.527634 0.699171 0.466722 0.96279 0.38303 0.876615 0.399332 0.882777 0.457273 0.699627 0.419651 0.608035 0.468668 0.699171 0.466722 0.7894 0.411159 0.699627 0.419651 0.791066 0.461973 0.787033 0.734671 0.798265 0.808001 0.861689 0.749458 0.706177 0.327628 0.759001 0.27205 0.71489 0.274324 0.504369 0.283445 0.627527 0.314854 0.653946 0.257457 0.855215 0.294747 0.774623 0.319973 0.759001 0.27205 0.699627 0.419651 0.791066 0.461973 0.699171 0.466722 0.94489 0.693692 0.861689 0.749458 0.930696 0.765015 0.871026 0.683768 0.861689 0.749458 0.94489 0.693692 0.871026 0.683768 0.861689 0.749458 0.787033 0.734671 0.216309 0.307998 0.16702 0.225372 0.141676 0.286037 0.400409 0.4098 0.507545 0.464419 0.507587 0.413943 0.113535 0.520255 0.123448 0.475439 0.03905999 0.446376 0.113535 0.520255 0.150566 0.508468 0.123448 0.475439 0.123405 0.602864 0.190565 0.523514 0.113535 0.520255 0.291699 0.517462 0.232728 0.516544 0.2058579 0.596288 0.291699 0.517462 0.297934 0.458378 0.265757 0.489427 0.291699 0.517462 0.265757 0.489427 0.232728 0.516544 0.140308 0.69137 0.2058579 0.596288 0.123405 0.602864 0.123405 0.602864 0.06878095 0.713683 0.140308 0.69137 0.123405 0.602864 0.190565 0.523514 0.2058579 0.596288 0.291699 0.517462 0.297934 0.458378 0.400362 0.46227 0.296893 0.316427 0.216309 0.307998 0.241145 0.257145 0.141676 0.286037 0.108931 0.187638 0.07358896 0.255449 0.04334098 0.37855 0.03905999 0.446376 0.116479 0.433276 0.04334098 0.37855 0.112742 0.38379 0.116479 0.433276 0.15324 0.436889 0.157091 0.460187 0.133522 0.470872 0.269795 0.448346 0.244041 0.445814 0.263759 0.411832 0.15324 0.436889 0.198641 0.441352 0.157091 0.460187 0.575044 0.10398 0.562014 0.13862 0.586051 0.105062 0.458489 0.09252297 0.432735 0.08999198 0.438771 0.126506 0.428995 0.748571 0.456964 0.756131 0.430294 0.786685 0.575314 0.78345 0.547344 0.77589 0.574015 0.745337 0.548668 0.814903 0.531535 0.795488 0.575314 0.78345 0.430294 0.786685 0.458416 0.779503 0.459042 0.816902 0.476574 0.797722 0.490174 0.7816 0.504503 0.803827 0.570132 0.688937 0.501142 0.671338 0.570985 0.632309 0.501142 0.671338 0.502154 0.618193 0.570985 0.632309 0.428995 0.748571 0.45564 0.717118 0.390527 0.737534 0.45564 0.717118 0.43254 0.6899 0.390527 0.737534 0.390527 0.737534 0.43254 0.6899 0.328354 0.720332 0.43254 0.6899 0.39474 0.646424 0.328354 0.720332 0.390527 0.737534 0.328354 0.720332 0.328354 0.811689 0.428995 0.748571 0.390527 0.737534 0.391153 0.796045 0.391153 0.796045 0.390527 0.737534 0.328354 0.811689 0.430294 0.786685 0.428995 0.748571 0.391153 0.796045 0.391153 0.796045 0.328354 0.811689 0.39474 0.885597 0.434177 0.843084 0.391153 0.796045 0.39474 0.885597 0.459042 0.816902 0.430294 0.786685 0.434177 0.843084 0.430294 0.786685 0.391153 0.796045 0.434177 0.843084 0.434177 0.843084 0.39474 0.885597 0.502154 0.913828 0.459042 0.816902 0.434177 0.843084 0.503167 0.860683 0.503167 0.860683 0.434177 0.843084 0.502154 0.913828 0.504256 0.82768 0.459042 0.816902 0.503167 0.860683 0.503167 0.860683 0.502154 0.913828 0.609569 0.885597 0.571769 0.842121 0.503167 0.860683 0.609569 0.885597 0.548668 0.814903 0.504256 0.82768 0.571769 0.842121 0.504256 0.82768 0.503167 0.860683 0.571769 0.842121 0.571769 0.842121 0.609569 0.885597 0.675955 0.811689 0.575314 0.78345 0.613781 0.794487 0.613156 0.735976 0.575314 0.78345 0.548668 0.814903 0.613781 0.794487 0.548668 0.814903 0.571769 0.842121 0.613781 0.794487 0.613781 0.794487 0.571769 0.842121 0.675955 0.811689 0.613781 0.794487 0.675955 0.811689 0.675955 0.720333 0.613156 0.735976 0.675955 0.720333 0.570132 0.688937 0.613156 0.735976 0.613781 0.794487 0.675955 0.720333 0.675955 0.720333 0.618643 0.663563 0.570132 0.688937 0.705053 0.527634 0.6120001 0.525595 0.627043 0.601696 0.711841 0.602215 0.705053 0.527634 0.627043 0.601696 0.711841 0.602215 0.627043 0.601696 0.645115 0.651997 0.645115 0.651997 0.627043 0.601696 0.509613 0.602907 0.627043 0.601696 0.6120001 0.525595 0.509613 0.602907 0.509613 0.602907 0.6120001 0.525595 0.50714 0.524679 0.723678 0.716756 0.711841 0.602215 0.645115 0.651997 0.786291 0.673512 0.711841 0.602215 0.723678 0.716756 0.787033 0.734671 0.871026 0.683768 0.786291 0.673512 0.723678 0.716756 0.787033 0.734671 0.786291 0.673512 0.711841 0.602215 0.786291 0.673512 0.790705 0.598209 0.884967 0.524264 0.792533 0.523429 0.790705 0.598209 0.705053 0.527634 0.790705 0.598209 0.792533 0.523429 0.711841 0.602215 0.790705 0.598209 0.705053 0.527634 0.94489 0.693692 0.879744 0.608115 0.871026 0.683768 0.879744 0.608115 0.790705 0.598209 0.786291 0.673512 0.871026 0.683768 0.879744 0.608115 0.786291 0.673512 0.879744 0.608115 0.884967 0.524264 0.790705 0.598209 0.958031 0.618649 0.968826 0.529546 0.884967 0.524264 0.958031 0.618649 0.879744 0.608115 0.94489 0.693692 0.879744 0.608115 0.958031 0.618649 0.884967 0.524264 0.700885 0.373858 0.699627 0.419651 0.7894 0.411159 0.60841 0.418732 0.608035 0.468668 0.699627 0.419651 0.700885 0.373858 0.60841 0.418732 0.699627 0.419651 0.507587 0.413943 0.608035 0.468668 0.60841 0.418732 0.507587 0.413943 0.60841 0.418732 0.615201 0.368213 0.615201 0.368213 0.627527 0.314854 0.504369 0.283445 0.615201 0.368213 0.706177 0.327628 0.627527 0.314854 0.700885 0.373858 0.706177 0.327628 0.615201 0.368213 0.615201 0.368213 0.60841 0.418732 0.700885 0.373858 0.920736 0.255419 0.879073 0.192314 0.855215 0.294747 0.855215 0.294747 0.879073 0.192314 0.759001 0.27205 0.774623 0.319973 0.759001 0.27205 0.706177 0.327628 0.774623 0.319973 0.855215 0.294747 0.759001 0.27205 0.774623 0.319973 0.706177 0.327628 0.700885 0.373858 0.868318 0.344127 0.876615 0.399332 0.96279 0.38303 0.855215 0.294747 0.774623 0.319973 0.868318 0.344127 0.855215 0.294747 0.868318 0.344127 0.947377 0.319001 0.855215 0.294747 0.920736 0.255419 0.947377 0.319001 0.947377 0.319001 0.868318 0.344127 0.96279 0.38303 0.920736 0.255419 0.855215 0.294747 0.947377 0.319001 0.7894 0.411159 0.876615 0.399332 0.783637 0.365378 0.783637 0.365378 0.774623 0.319973 0.700885 0.373858 0.783637 0.365378 0.700885 0.373858 0.7894 0.411159 0.868318 0.344127 0.774623 0.319973 0.783637 0.365378 0.876615 0.399332 0.868318 0.344127 0.783637 0.365378 0.627527 0.314854 0.653946 0.257457 0.71489 0.274324 0.627527 0.314854 0.71489 0.274324 0.706177 0.327628 0.706177 0.327628 0.615201 0.368213 0.627527 0.314854 0.60841 0.418732 0.507587 0.413943 0.615201 0.368213 0.627527 0.314854 0.615201 0.368213 0.504369 0.283445 0.504369 0.283445 0.339024 0.250195 0.444242 0.200613 0.627527 0.314854 0.504369 0.283445 0.653946 0.257457 0.504369 0.283445 0.557856 0.1943629 0.653946 0.257457 0.868318 0.344127 0.855215 0.294747 0.947377 0.319001 0.868318 0.344127 0.947377 0.319001 0.96279 0.38303 0.774623 0.319973 0.855215 0.294747 0.868318 0.344127 0.706177 0.327628 0.700885 0.373858 0.615201 0.368213 0.706177 0.327628 0.774623 0.319973 0.700885 0.373858 0.60841 0.418732 0.700885 0.373858 0.699627 0.419651 0.60841 0.418732 0.615201 0.368213 0.700885 0.373858 0.774623 0.319973 0.783637 0.365378 0.700885 0.373858 0.774623 0.319973 0.868318 0.344127 0.783637 0.365378 0.699627 0.419651 0.7894 0.411159 0.791066 0.461973 0.700885 0.373858 0.783637 0.365378 0.7894 0.411159 0.699627 0.419651 0.700885 0.373858 0.7894 0.411159 0.6120001 0.525595 0.608035 0.468668 0.699171 0.466722 0.792533 0.523429 0.791066 0.461973 0.882777 0.457273 0.96279 0.38303 0.97012 0.451476 0.882777 0.457273 0.876615 0.399332 0.7894 0.411159 0.783637 0.365378 0.876615 0.399332 0.882777 0.457273 0.791066 0.461973 0.868318 0.344127 0.876615 0.399332 0.783637 0.365378 0.876615 0.399332 0.791066 0.461973 0.7894 0.411159 0.876615 0.399332 0.96279 0.38303 0.882777 0.457273 0.876615 0.399332 0.868318 0.344127 0.96279 0.38303 0.792533 0.523429 0.882777 0.457273 0.884967 0.524264 0.968826 0.529546 0.958031 0.618649 0.884967 0.524264 0.884967 0.524264 0.882777 0.457273 0.97012 0.451476 0.884967 0.524264 0.97012 0.451476 0.968826 0.529546 0.792533 0.523429 0.884967 0.524264 0.790705 0.598209 0.790705 0.598209 0.705053 0.527634 0.792533 0.523429 0.705053 0.527634 0.6120001 0.525595 0.699171 0.466722 0.705053 0.527634 0.699171 0.466722 0.792533 0.523429 0.790705 0.598209 0.711841 0.602215 0.705053 0.527634 0.871026 0.683768 0.787033 0.734671 0.786291 0.673512 0.786291 0.673512 0.711841 0.602215 0.790705 0.598209 0.787033 0.734671 0.723678 0.716756 0.786291 0.673512 0.711841 0.602215 0.786291 0.673512 0.723678 0.716756 0.884967 0.524264 0.879744 0.608115 0.790705 0.598209 0.879744 0.608115 0.958031 0.618649 0.94489 0.693692 0.790705 0.598209 0.879744 0.608115 0.786291 0.673512 0.879744 0.608115 0.871026 0.683768 0.786291 0.673512 0.958031 0.618649 0.879744 0.608115 0.884967 0.524264 0.879744 0.608115 0.94489 0.693692 0.871026 0.683768 0.711841 0.602215 0.723678 0.716756 0.645115 0.651997 0.705053 0.527634 0.711841 0.602215 0.627043 0.601696 0.6120001 0.525595 0.705053 0.527634 0.627043 0.601696 0.627043 0.601696 0.711841 0.602215 0.645115 0.651997 0.6120001 0.525595 0.627043 0.601696 0.509613 0.602907 0.627043 0.601696 0.645115 0.651997 0.509613 0.602907 0.50714 0.524679 0.608035 0.468668 0.6120001 0.525595 0.6120001 0.525595 0.509613 0.602907 0.50714 0.524679 0.50714 0.524679 0.400362 0.46227 0.507545 0.464419 0.50714 0.524679 0.507545 0.464419 0.608035 0.468668 0.393825 0.600372 0.50714 0.524679 0.509613 0.602907 0.400409 0.4098 0.395487 0.358457 0.507587 0.413943 0.507587 0.413943 0.395487 0.358457 0.508222 0.353719 0.507587 0.413943 0.508222 0.353719 0.615201 0.368213 0.615201 0.368213 0.508222 0.353719 0.504369 0.283445 0.504369 0.283445 0.38052 0.311349 0.339024 0.250195 0.38052 0.311349 0.296893 0.316427 0.339024 0.250195 0.508222 0.353719 0.395487 0.358457 0.38052 0.311349 0.504369 0.283445 0.508222 0.353719 0.38052 0.311349 0.395487 0.358457 0.296893 0.316427 0.38052 0.311349 0.296893 0.316427 0.339024 0.250195 0.241145 0.257145 0.216309 0.307998 0.296893 0.316427 0.241145 0.257145 0.296893 0.316427 0.38052 0.311349 0.339024 0.250195 0.38052 0.311349 0.504369 0.283445 0.339024 0.250195 0.395487 0.358457 0.400409 0.4098 0.507587 0.413943 0.296893 0.316427 0.395487 0.358457 0.38052 0.311349 0.395487 0.358457 0.507587 0.413943 0.508222 0.353719 0.508222 0.353719 0.504369 0.283445 0.38052 0.311349 0.508222 0.353719 0.615201 0.368213 0.504369 0.283445 0.395487 0.358457 0.508222 0.353719 0.38052 0.311349 0.508222 0.353719 0.507587 0.413943 0.615201 0.368213 0.50714 0.524679 0.393825 0.600372 0.509613 0.602907 0.397601 0.524881 0.393825 0.600372 0.50714 0.524679 0.291699 0.517462 0.393825 0.600372 0.397601 0.524881 0.291699 0.517462 0.397601 0.524881 0.400362 0.46227 0.397601 0.524881 0.50714 0.524679 0.400362 0.46227 0.07358896 0.255449 0.05469596 0.313361 0.141676 0.286037 0.112742 0.38379 0.04334098 0.37855 0.05469596 0.313361 0.05469596 0.313361 0.07358896 0.255449 0.141676 0.286037 0.05469596 0.313361 0.129842 0.332666 0.141676 0.286037 0.288012 0.591474 0.393825 0.600372 0.291699 0.517462 0.288012 0.591474 0.291699 0.517462 0.2058579 0.596288 0.2058579 0.596288 0.293563 0.63094 0.288012 0.591474 0.293563 0.63094 0.393825 0.600372 0.288012 0.591474 0.294502 0.359078 0.395487 0.358457 0.296893 0.316427 0.400409 0.4098 0.294502 0.359078 0.297274 0.403254 0.400409 0.4098 0.395487 0.358457 0.294502 0.359078 0.296893 0.316427 0.211063 0.342153 0.294502 0.359078 0.216309 0.307998 0.211063 0.342153 0.296893 0.316427 0.141676 0.286037 0.211063 0.342153 0.216309 0.307998 0.129842 0.332666 0.211063 0.342153 0.141676 0.286037 0.112742 0.38379 0.04334098 0.37855 0.116479 0.433276 0.04334098 0.37855 0.112742 0.38379 0.05469596 0.313361 0.112742 0.38379 0.129842 0.332666 0.05469596 0.313361 0.129842 0.332666 0.112742 0.38379 0.1645539 0.366159 0.129842 0.332666 0.1645539 0.366159 0.211063 0.342153 0.112742 0.38379 0.131524 0.393277 0.1645539 0.366159 0.112742 0.38379 0.116479 0.433276 0.131524 0.393277 0.1645539 0.366159 0.206717 0.35919 0.211063 0.342153 0.294502 0.359078 0.211063 0.342153 0.206717 0.35919 0.297274 0.403254 0.294502 0.359078 0.246716 0.374236 0.246716 0.374236 0.294502 0.359078 0.206717 0.35919 0.280802 0.449428 0.297274 0.403254 0.273833 0.407265 0.273833 0.407265 0.297274 0.403254 0.246716 0.374236 0.04133397 0.523235 0.123405 0.602864 0.113535 0.520255 0.04133397 0.523235 0.113535 0.520255 0.03905999 0.446376 0.123405 0.602864 0.04133397 0.523235 0.113535 0.520255 0.113535 0.520255 0.04133397 0.523235 0.03905999 0.446376 0.123405 0.602864 0.05131399 0.613684 0.04133397 0.523235 0.06878095 0.713683 0.05131399 0.613684 0.123405 0.602864 0.05131399 0.613684 0.06878095 0.713683 0.123405 0.602864 0.05131399 0.613684 0.123405 0.602864 0.04133397 0.523235 0.217857 0.696678 0.140308 0.69137 0.187984 0.747254 0.140308 0.69137 0.217857 0.696678 0.2058579 0.596288 0.217857 0.696678 0.293563 0.63094 0.2058579 0.596288 0.291699 0.517462 0.288012 0.591474 0.2058579 0.596288 0.393825 0.600372 0.288012 0.591474 0.291699 0.517462 0.293563 0.63094 0.2058579 0.596288 0.288012 0.591474 0.393825 0.600372 0.293563 0.63094 0.288012 0.591474 0.393825 0.600372 0.397601 0.524881 0.50714 0.524679 0.397601 0.524881 0.291699 0.517462 0.400362 0.46227 0.50714 0.524679 0.397601 0.524881 0.400362 0.46227 0.393825 0.600372 0.291699 0.517462 0.397601 0.524881 0.400409 0.4098 0.400362 0.46227 0.297274 0.403254 0.297274 0.403254 0.400362 0.46227 0.297934 0.458378 0.297274 0.403254 0.297934 0.458378 0.280802 0.449428 0.395487 0.358457 0.400409 0.4098 0.294502 0.359078 0.395487 0.358457 0.294502 0.359078 0.296893 0.316427 0.294502 0.359078 0.400409 0.4098 0.297274 0.403254 0.211063 0.342153 0.141676 0.286037 0.216309 0.307998 0.211063 0.342153 0.216309 0.307998 0.296893 0.316427 0.211063 0.342153 0.296893 0.316427 0.294502 0.359078 0.211063 0.342153 0.129842 0.332666 0.141676 0.286037 0.129842 0.332666 0.112742 0.38379 0.05469596 0.313361 0.129842 0.332666 0.05469596 0.313361 0.141676 0.286037 0.1645539 0.366159 0.129842 0.332666 0.211063 0.342153 0.131524 0.393277 0.112742 0.38379 0.1645539 0.366159 0.112742 0.38379 0.129842 0.332666 0.1645539 0.366159 0.211063 0.342153 0.294502 0.359078 0.206717 0.35919 0.206717 0.35919 0.1645539 0.366159 0.211063 0.342153 0.294502 0.359078 0.297274 0.403254 0.246716 0.374236 0.294502 0.359078 0.246716 0.374236 0.206717 0.35919 0.297274 0.403254 0.273833 0.407265 0.246716 0.374236 0.280802 0.449428 0.269795 0.448346 0.273833 0.407265 0.273833 0.407265 0.263759 0.411832 0.246716 0.374236 0.269795 0.448346 0.263759 0.411832 0.273833 0.407265 0.297274 0.403254 0.280802 0.449428 0.273833 0.407265 0.246716 0.374236 0.240275 0.383227 0.206717 0.35919 0.263759 0.411832 0.24019 0.422516 0.240275 0.383227 0.263759 0.411832 0.240275 0.383227 0.246716 0.374236 0.206717 0.35919 0.205635 0.370197 0.1645539 0.366159 0.240275 0.383227 0.205635 0.370197 0.206717 0.35919 0.1645539 0.366159 0.16912 0.376233 0.131524 0.393277 0.205635 0.370197 0.16912 0.376233 0.1645539 0.366159 0.131524 0.393277 0.140516 0.399718 0.116479 0.433276 0.16912 0.376233 0.140516 0.399718 0.131524 0.393277 0.140516 0.399718 0.127486 0.434358 0.116479 0.433276 0.140516 0.399718 0.161554 0.414787 0.127486 0.434358 0.161554 0.414787 0.15324 0.436889 0.127486 0.434358 0.161554 0.414787 0.198641 0.441352 0.15324 0.436889 0.16912 0.376233 0.179805 0.399803 0.140516 0.399718 0.179805 0.399803 0.161554 0.414787 0.140516 0.399718 0.179805 0.399803 0.198641 0.441352 0.161554 0.414787 0.203103 0.395952 0.179805 0.399803 0.16912 0.376233 0.205635 0.370197 0.203103 0.395952 0.16912 0.376233 0.203103 0.395952 0.198641 0.441352 0.179805 0.399803 0.225205 0.404265 0.203103 0.395952 0.205635 0.370197 0.240275 0.383227 0.225205 0.404265 0.205635 0.370197 0.225205 0.404265 0.198641 0.441352 0.203103 0.395952 0.24019 0.422516 0.198641 0.441352 0.225205 0.404265 0.24019 0.422516 0.225205 0.404265 0.240275 0.383227 0.445765 0.05535197 0.436773 0.04891097 0.421728 0.08890998 0.445765 0.05535197 0.474369 0.03186696 0.436773 0.04891097 0.474369 0.03186696 0.469803 0.02179396 0.436773 0.04891097 0.474369 0.03186696 0.510884 0.02583098 0.469803 0.02179396 0.510884 0.02583098 0.511966 0.01482397 0.469803 0.02179396 0.510884 0.02583098 0.545524 0.03886097 0.511966 0.01482397 0.545524 0.03886097 0.569008 0.06746596 0.551965 0.02986896 0.545524 0.03886097 0.551965 0.02986896 0.511966 0.01482397 0.575044 0.10398 0.586051 0.105062 0.579082 0.06289899 0.569008 0.06746596 0.579082 0.06289899 0.551965 0.02986896 0.569008 0.06746596 0.575044 0.10398 0.579082 0.06289899 0.458489 0.09252297 0.466803 0.07042098 0.432735 0.08999198 0.466803 0.07042098 0.445765 0.05535197 0.432735 0.08999198 0.485054 0.05543696 0.474369 0.03186696 0.445765 0.05535197 0.466803 0.07042098 0.485054 0.05543696 0.445765 0.05535197 0.508352 0.05158495 0.510884 0.02583098 0.474369 0.03186696 0.485054 0.05543696 0.508352 0.05158495 0.474369 0.03186696 0.530454 0.05989897 0.545524 0.03886097 0.510884 0.02583098 0.508352 0.05158495 0.530454 0.05989897 0.510884 0.02583098 0.545439 0.07814997 0.569008 0.06746596 0.545524 0.03886097 0.545439 0.07814997 0.54929 0.101449 0.569008 0.06746596 0.530454 0.05989897 0.545439 0.07814997 0.545524 0.03886097 0.503889 0.09698599 0.545439 0.07814997 0.530454 0.05989897 0.503889 0.09698599 0.508352 0.05158495 0.485054 0.05543696 0.503889 0.09698599 0.530454 0.05989897 0.508352 0.05158495 0.503889 0.09698599 0.46234 0.115822 0.477325 0.134073 0.503889 0.09698599 0.522725 0.138535 0.540976 0.123551 0.503889 0.09698599 0.499427 0.142386 0.522725 0.138535 0.503889 0.09698599 0.54929 0.101449 0.545439 0.07814997 0.503889 0.09698599 0.477325 0.134073 0.499427 0.142386 0.503889 0.09698599 0.540976 0.123551 0.54929 0.101449 0.503889 0.09698599 0.458489 0.09252297 0.46234 0.115822 0.503889 0.09698599 0.466803 0.07042098 0.458489 0.09252297 0.503889 0.09698599 0.485054 0.05543696 0.466803 0.07042098 0.428995 0.748571 0.430294 0.786685 0.391153 0.796045 0.390527 0.737534 0.428995 0.748571 0.391153 0.796045 0.390527 0.737534 0.391153 0.796045 0.328354 0.811689 0.328354 0.720332 0.390527 0.737534 0.328354 0.811689 0.43254 0.6899 0.390527 0.737534 0.328354 0.720332 0.39474 0.646424 0.43254 0.6899 0.328354 0.720332 0.39474 0.646424 0.502154 0.618193 0.43254 0.6899 0.328354 0.811689 0.391153 0.796045 0.39474 0.885597 0.391153 0.796045 0.430294 0.786685 0.434177 0.843084 0.391153 0.796045 0.434177 0.843084 0.39474 0.885597 0.430294 0.786685 0.459042 0.816902 0.434177 0.843084 0.39474 0.885597 0.434177 0.843084 0.502154 0.913828 0.434177 0.843084 0.459042 0.816902 0.503167 0.860683 0.434177 0.843084 0.503167 0.860683 0.502154 0.913828 0.502154 0.913828 0.503167 0.860683 0.609569 0.885597 0.503167 0.860683 0.571769 0.842121 0.609569 0.885597 0.609569 0.885597 0.571769 0.842121 0.675955 0.811689 0.571769 0.842121 0.548668 0.814903 0.613781 0.794487 0.571769 0.842121 0.613781 0.794487 0.675955 0.811689 0.548668 0.814903 0.575314 0.78345 0.613781 0.794487 0.675955 0.811689 0.613781 0.794487 0.675955 0.720333 0.613781 0.794487 0.613156 0.735976 0.675955 0.720333 0.613781 0.794487 0.575314 0.78345 0.613156 0.735976 0.570132 0.688937 0.613156 0.735976 0.545267 0.715119 0.575314 0.78345 0.574015 0.745337 0.613156 0.735976 0.675955 0.720333 0.613156 0.735976 0.570132 0.688937 0.613156 0.735976 0.574015 0.745337 0.545267 0.715119 0.45564 0.717118 0.428995 0.748571 0.390527 0.737534 0.43254 0.6899 0.501142 0.671338 0.45564 0.717118 0.43254 0.6899 0.45564 0.717118 0.390527 0.737534 0.45564 0.717118 0.472774 0.736533 0.428995 0.748571 0.504256 0.82768 0.548668 0.814903 0.571769 0.842121 0.504256 0.82768 0.504503 0.803827 0.548668 0.814903 0.476574 0.797722 0.504503 0.803827 0.504256 0.82768 0.459042 0.816902 0.476574 0.797722 0.504256 0.82768 0.503167 0.860683 0.504256 0.82768 0.571769 0.842121 0.459042 0.816902 0.504256 0.82768 0.503167 0.860683 0.570132 0.688937 0.545267 0.715119 0.500052 0.704341 0.501142 0.671338 0.500052 0.704341 0.45564 0.717118 0.45564 0.717118 0.500052 0.704341 0.472774 0.736533 0.500052 0.704341 0.545267 0.715119 0.499806 0.728194 0.500052 0.704341 0.499806 0.728194 0.472774 0.736533 0.501142 0.671338 0.570132 0.688937 0.500052 0.704341 0.2058579 0.596288 0.140308 0.69137 0.123405 0.602864 0.140308 0.69137 0.158111 0.797831 0.06878095 0.713683 0.06878095 0.713683 0.123405 0.602864 0.140308 0.69137 0.293563 0.63094 0.217857 0.696678 0.2058579 0.596288 0.217857 0.696678 0.140308 0.69137 0.2058579 0.596288 0.140308 0.69137 0.217857 0.696678 0.187984 0.747254 0.187984 0.747254 0.158111 0.797831 0.140308 0.69137</float_array>
          <technique_common>
            <accessor source="#a004_012-mesh-map-0-array" count="1944" stride="2">
              <param name="S" type="float"/>
              <param name="T" type="float"/>
            </accessor>
          </technique_common>
        </source>
        <vertices id="a004_012-mesh-vertices">
          <input semantic="POSITION" source="#a004_012-mesh-positions"/>
        </vertices>
        <polylist material="VisualMaterial0_001-material-material" count="648">
          <input semantic="VERTEX" source="#a004_012-mesh-vertices" offset="0"/>
          <input semantic="NORMAL" source="#a004_012-mesh-normals" offset="1"/>
          <input semantic="TEXCOORD" source="#a004_012-mesh-map-0" offset="2" set="0"/>
          <vcount>3 3 3 3 3 3 3 3 3 3 3 3 3 3 3 3 3 3 3 3 3 3 3 3 3 3 3 3 3 3 3 3 3 3 3 3 3 3 3 3 3 3 3 3 3 3 3 3 3 3 3 3 3 3 3 3 3 3 3 3 3 3 3 3 3 3 3 3 3 3 3 3 3 3 3 3 3 3 3 3 3 3 3 3 3 3 3 3 3 3 3 3 3 3 3 3 3 3 3 3 3 3 3 3 3 3 3 3 3 3 3 3 3 3 3 3 3 3 3 3 3 3 3 3 3 3 3 3 3 3 3 3 3 3 3 3 3 3 3 3 3 3 3 3 3 3 3 3 3 3 3 3 3 3 3 3 3 3 3 3 3 3 3 3 3 3 3 3 3 3 3 3 3 3 3 3 3 3 3 3 3 3 3 3 3 3 3 3 3 3 3 3 3 3 3 3 3 3 3 3 3 3 3 3 3 3 3 3 3 3 3 3 3 3 3 3 3 3 3 3 3 3 3 3 3 3 3 3 3 3 3 3 3 3 3 3 3 3 3 3 3 3 3 3 3 3 3 3 3 3 3 3 3 3 3 3 3 3 3 3 3 3 3 3 3 3 3 3 3 3 3 3 3 3 3 3 3 3 3 3 3 3 3 3 3 3 3 3 3 3 3 3 3 3 3 3 3 3 3 3 3 3 3 3 3 3 3 3 3 3 3 3 3 3 3 3 3 3 3 3 3 3 3 3 3 3 3 3 3 3 3 3 3 3 3 3 3 3 3 3 3 3 3 3 3 3 3 3 3 3 3 3 3 3 3 3 3 3 3 3 3 3 3 3 3 3 3 3 3 3 3 3 3 3 3 3 3 3 3 3 3 3 3 3 3 3 3 3 3 3 3 3 3 3 3 3 3 3 3 3 3 3 3 3 3 3 3 3 3 3 3 3 3 3 3 3 3 3 3 3 3 3 3 3 3 3 3 3 3 3 3 3 3 3 3 3 3 3 3 3 3 3 3 3 3 3 3 3 3 3 3 3 3 3 3 3 3 3 3 3 3 3 3 3 3 3 3 3 3 3 3 3 3 3 3 3 3 3 3 3 3 3 3 3 3 3 3 3 3 3 3 3 3 3 3 3 3 3 3 3 3 3 3 3 3 3 3 3 3 3 3 3 3 3 3 3 3 3 3 3 3 3 3 3 3 3 3 3 3 3 3 3 3 3 3 3 3 3 3 3 3 3 3 3 3 3 3 3 3 3 3 3 3 3 3 3 3 3 3 3 3 3 3 3 3 3 3 3 3 3 3 3 3 3 3 3 3 3 3 3 3 3 3 3 3 3 3 3 3 3 3 3 3 3 3 3 3 3 3 3 3 3 3 3 3 3 3 3 3 3 3 3 3 3 3 3 3 3 3 3 3 3 3 3 3 3 3 3 3 3 3 3 3 3 3 3 3 3 3 3 3 3 3 3 3 3 3 3 </vcount>
          <p>0 0 0 1 1 1 2 2 2 3 3 3 4 4 4 5 5 5 6 6 6 3 3 7 5 5 8 6 6 9 5 5 10 7 7 11 3 3 12 8 8 13 4 4 14 8 8 15 9 9 16 4 4 17 10 10 18 1 1 19 0 0 20 11 11 21 10 10 22 0 0 23 10 10 24 12 12 25 1 1 26 12 12 27 13 13 28 1 1 29 12 12 30 14 14 31 13 13 32 14 14 33 15 15 34 13 13 35 14 14 36 16 16 37 15 15 38 17 17 39 3 3 40 6 6 41 18 18 42 17 17 43 6 6 44 18 18 45 6 6 46 16 16 47 17 17 48 19 19 49 3 3 50 19 19 51 8 8 52 3 3 53 19 19 54 20 20 55 8 8 56 20 20 57 21 21 58 8 8 59 20 20 60 22 22 61 21 21 62 22 22 63 23 23 64 21 21 65 11 11 66 0 0 67 23 23 68 22 22 69 24 24 70 23 23 71 24 24 72 11 11 73 23 23 74 25 25 75 10 10 76 11 11 77 24 24 78 25 25 79 11 11 80 26 26 81 12 12 82 10 10 83 25 25 84 26 26 85 10 10 86 27 27 87 14 14 88 12 12 89 26 26 90 27 27 91 12 12 92 28 28 93 18 18 94 16 16 95 27 27 96 28 28 97 14 14 98 28 28 99 16 16 100 14 14 101 29 29 102 22 22 103 20 20 104 29 29 105 19 19 106 17 17 107 29 29 108 25 25 109 24 24 110 29 29 111 26 26 112 25 25 113 29 29 114 17 17 115 18 18 116 29 29 117 24 24 118 22 22 119 29 29 120 20 20 121 19 19 122 29 29 123 28 28 124 27 27 125 29 29 126 18 18 127 28 28 128 29 29 129 27 27 130 26 26 131 0 0 132 30 30 133 23 23 134 0 0 135 2 2 136 30 30 137 23 23 138 30 30 139 21 21 140 21 21 141 31 31 142 8 8 143 30 30 144 31 31 145 21 21 146 30 30 147 32 32 148 31 31 149 33 33 150 34 34 151 35 35 152 33 33 153 36 36 154 37 37 155 38 38 156 37 37 157 32 32 158 39 39 159 40 40 160 41 41 161 42 42 162 43 43 163 44 44 164 45 45 165 46 46 166 42 42 167 47 47 168 42 42 169 44 44 170 47 47 171 44 44 172 48 48 173 48 48 174 44 44 175 49 49 176 48 48 177 50 50 178 47 47 179 48 48 180 49 49 181 51 51 182 51 51 183 52 52 184 48 48 185 47 47 186 53 53 187 42 42 188 47 47 189 50 50 190 54 54 191 51 51 192 49 49 193 55 55 194 56 56 195 57 57 196 39 39 197 58 58 198 57 57 199 56 56 200 39 39 201 59 59 202 56 56 203 60 60 204 61 61 205 62 62 206 60 60 207 63 63 208 64 64 209 65 65 210 60 60 211 64 64 212 65 65 213 61 61 214 60 60 215 65 65 216 64 64 217 66 66 218 66 66 219 67 67 220 65 65 221 66 66 222 64 64 223 68 68 224 69 69 225 68 68 226 64 64 227 63 63 228 70 70 229 64 64 230 70 70 231 71 71 232 64 64 233 71 71 234 69 69 235 64 64 236 71 71 237 70 70 238 72 72 239 69 69 240 71 71 241 72 72 242 70 70 243 73 73 244 74 74 245 75 75 246 69 69 247 72 72 248 72 72 249 76 76 250 75 75 251 72 72 252 77 77 253 76 76 254 78 78 255 77 77 256 72 72 257 70 70 258 74 74 259 79 79 260 70 70 261 79 79 262 72 72 263 79 79 264 78 78 265 72 72 266 79 79 267 80 80 268 78 78 269 79 79 270 81 81 271 80 80 272 82 82 273 83 83 274 84 84 275 82 82 276 85 85 277 83 83 278 82 82 279 84 84 280 86 86 281 86 86 282 87 87 283 88 88 284 89 89 285 90 90 286 57 57 287 89 89 288 91 91 289 90 90 290 82 82 291 92 92 292 85 85 293 57 57 294 93 93 295 89 89 296 57 57 297 58 58 298 93 93 299 94 94 300 89 89 301 93 93 302 94 94 303 95 95 304 89 89 305 92 92 306 96 96 307 85 85 308 92 92 309 97 97 310 96 96 311 98 98 312 99 99 313 100 100 314 98 98 315 100 100 316 101 101 317 98 98 318 101 101 319 102 102 320 103 103 321 102 102 322 101 101 323 104 104 324 103 103 325 101 101 326 105 105 327 103 103 328 104 104 329 101 101 330 100 100 331 106 106 332 104 104 333 101 101 334 106 106 335 107 107 336 104 104 337 106 106 338 107 107 339 105 105 340 104 104 341 105 105 342 107 107 343 108 108 344 109 109 345 105 105 346 108 108 347 109 109 348 108 108 349 110 110 350 111 111 351 109 109 352 110 110 353 112 112 354 67 67 355 111 111 356 110 110 357 112 112 358 111 111 359 108 108 360 107 107 361 113 113 362 110 110 363 108 108 364 113 113 365 114 114 366 110 110 367 113 113 368 114 114 369 112 112 370 110 110 371 114 114 372 113 113 373 115 115 374 107 107 375 116 116 376 113 113 377 116 116 378 107 107 379 106 106 380 113 113 381 116 116 382 117 117 383 118 118 384 45 45 385 119 119 386 120 120 387 118 118 388 121 121 389 120 120 390 122 122 391 118 118 392 118 118 393 122 122 394 45 45 395 45 45 396 122 122 397 46 46 398 123 123 399 124 124 400 120 120 401 120 120 402 125 125 403 123 123 404 120 120 405 121 121 406 125 125 407 126 126 408 127 127 409 128 128 410 129 129 411 130 130 412 131 131 413 129 129 414 132 132 415 133 133 416 134 134 417 129 129 418 133 133 419 123 123 420 125 125 421 135 135 422 136 136 423 123 123 424 135 135 425 137 137 426 138 138 427 139 139 428 140 140 429 137 137 430 139 139 431 137 137 432 141 141 433 138 138 434 142 142 435 143 143 436 144 144 437 145 145 438 142 142 439 144 144 440 145 145 441 144 144 442 146 146 443 146 146 444 144 144 445 126 126 446 142 142 447 147 147 448 148 148 449 147 147 450 149 149 451 148 148 452 150 150 453 149 149 454 147 147 455 151 151 456 149 149 457 150 150 458 106 106 459 100 100 460 152 152 461 106 106 462 152 152 463 153 153 464 116 116 465 106 106 466 153 153 467 116 116 468 153 153 469 154 154 470 146 146 471 126 126 472 155 155 473 126 126 474 156 156 475 155 155 476 155 155 477 157 157 478 158 158 479 151 151 480 150 150 481 159 159 482 155 155 483 160 160 484 146 146 485 160 160 486 161 161 487 146 146 488 146 146 489 161 161 490 145 145 491 145 145 492 162 162 493 142 142 494 161 161 495 162 162 496 145 145 497 142 142 498 163 163 499 147 147 500 162 162 501 163 163 502 142 142 503 147 147 504 164 164 505 150 150 506 163 163 507 164 164 508 147 147 509 164 164 510 165 165 511 150 150 512 150 150 513 165 165 514 159 159 515 165 165 516 166 166 517 159 159 518 164 164 519 167 167 520 165 165 521 167 167 522 168 168 523 165 165 524 165 165 525 168 168 526 166 166 527 160 160 528 169 169 529 161 161 530 161 161 531 170 170 532 162 162 533 162 162 534 171 171 535 163 163 536 170 170 537 171 171 538 162 162 539 171 171 540 172 172 541 163 163 542 163 163 543 172 172 544 164 164 545 172 172 546 167 167 547 164 164 548 168 168 549 173 173 550 166 166 551 173 173 552 174 174 553 175 175 554 171 171 555 176 176 556 172 172 557 172 172 558 176 176 559 167 167 560 167 167 561 176 176 562 168 168 563 173 173 564 176 176 565 174 174 566 168 168 567 176 176 568 173 173 569 170 170 570 176 176 571 171 171 572 177 177 573 178 178 574 179 179 575 180 180 576 177 177 577 179 179 578 177 177 579 181 181 580 178 178 581 181 181 582 182 182 583 178 178 584 181 181 585 183 183 586 182 182 587 183 183 588 184 184 589 182 182 590 183 183 591 185 185 592 184 184 593 185 185 594 186 186 595 184 184 596 185 185 597 187 187 598 186 186 599 187 187 600 188 188 601 186 186 602 187 187 603 189 189 604 188 188 605 180 180 606 179 179 607 190 190 608 191 191 609 192 192 610 193 193 611 194 194 612 180 180 613 192 192 614 191 191 615 194 194 616 192 192 617 195 195 618 177 177 619 180 180 620 194 194 621 195 195 622 180 180 623 195 195 624 196 196 625 177 177 626 196 196 627 181 181 628 177 177 629 197 197 630 183 183 631 181 181 632 196 196 633 197 197 634 181 181 635 197 197 636 198 198 637 183 183 638 198 198 639 185 185 640 183 183 641 198 198 642 199 199 643 185 185 644 56 56 645 200 200 646 58 58 647 200 200 648 201 201 649 58 58 650 202 202 651 93 93 652 58 58 653 201 201 654 202 202 655 58 58 656 203 203 657 204 204 658 205 205 659 206 206 660 203 203 661 207 207 662 208 208 663 209 209 664 210 210 665 211 211 666 208 208 667 212 212 668 213 213 669 211 211 670 214 214 671 204 204 672 215 215 673 216 216 674 203 203 675 217 217 676 204 204 677 217 217 678 218 218 679 204 204 680 204 204 681 218 218 682 215 215 683 219 219 684 217 217 685 203 203 686 206 206 687 219 219 688 203 203 689 220 220 690 219 219 691 206 206 692 221 221 693 220 220 694 206 206 695 222 222 696 220 220 697 221 221 698 210 210 699 209 209 700 223 223 701 223 223 702 222 222 703 221 221 704 209 209 705 224 224 706 223 223 707 224 224 708 222 222 709 223 223 710 225 225 711 224 224 712 209 209 713 208 208 714 225 225 715 209 209 716 211 211 717 226 226 718 208 208 719 226 226 720 225 225 721 208 208 722 213 213 723 227 227 724 211 211 725 227 227 726 226 226 727 211 211 728 218 218 729 228 228 730 215 215 731 228 228 732 227 227 733 213 213 734 226 226 735 229 229 736 225 225 737 217 217 738 229 229 739 218 218 740 219 219 741 229 229 742 217 217 743 220 220 744 229 229 745 219 219 746 224 224 747 229 229 748 222 222 749 225 225 750 229 229 751 224 224 752 227 227 753 229 229 754 226 226 755 228 228 756 229 229 757 227 227 758 218 218 759 229 229 760 228 228 761 222 222 762 229 229 763 220 220 764 230 230 765 210 210 766 223 223 767 230 230 768 223 223 769 221 221 770 231 231 771 232 232 772 233 233 773 234 234 774 235 235 775 236 236 776 237 237 777 234 234 778 236 236 779 238 238 780 140 140 781 139 139 782 16 16 783 6 6 784 7 7 785 16 16 786 7 7 787 15 15 788 31 31 789 9 9 790 8 8 791 2 2 792 32 32 793 30 30 794 36 36 795 35 35 796 9 9 797 31 31 798 36 36 799 9 9 800 32 32 801 36 36 802 31 31 803 36 36 804 33 33 805 35 35 806 36 36 807 32 32 808 37 37 809 46 46 810 43 43 811 42 42 812 52 52 813 50 50 814 48 48 815 53 53 816 45 45 817 42 42 818 54 54 819 53 53 820 47 47 821 41 41 822 59 59 823 39 39 824 62 62 825 63 63 826 60 60 827 67 67 828 61 61 829 65 65 830 74 74 831 81 81 832 79 79 833 84 84 834 87 87 835 86 86 836 90 90 837 39 39 838 57 57 839 40 40 840 39 39 841 90 90 842 91 91 843 89 89 844 95 95 845 115 115 846 113 113 847 117 117 848 121 121 849 118 118 850 119 119 851 131 131 852 127 127 853 126 126 854 131 131 855 130 130 856 127 127 857 132 132 858 129 129 859 131 131 860 124 124 861 134 134 862 133 133 863 124 124 864 123 123 865 136 136 866 124 124 867 136 136 868 134 134 869 138 138 870 133 133 871 132 132 872 132 132 873 139 139 874 138 138 875 143 143 876 142 142 877 148 148 878 149 149 879 151 151 880 97 97 881 99 99 882 152 152 883 100 100 884 117 117 885 116 116 886 154 154 887 156 156 888 126 126 889 128 128 890 156 156 891 157 157 892 155 155 893 169 169 894 170 170 895 161 161 896 166 166 897 173 173 898 175 175 899 169 169 900 176 176 901 170 170 902 192 192 903 180 180 904 190 190 905 199 199 906 187 187 907 185 185 908 207 207 909 203 203 910 205 205 911 212 212 912 208 208 913 210 210 914 214 214 915 211 211 916 212 212 917 205 205 918 204 204 919 216 216 920 215 215 921 228 228 922 213 213 923 236 236 924 232 232 925 237 237 926 232 232 927 231 231 928 237 237 929 4 4 930 9 9 931 239 239 932 9 9 933 35 35 934 239 239 935 239 239 936 35 35 937 240 240 938 35 35 939 34 34 940 240 240 941 239 239 942 240 240 943 241 241 944 4 4 945 239 239 946 242 242 947 242 242 948 239 239 949 241 241 950 5 5 951 4 4 952 242 242 953 242 242 954 241 241 955 243 243 956 244 244 957 242 242 958 243 243 959 7 7 960 5 5 961 244 244 962 5 5 963 242 242 964 244 244 965 244 244 966 243 243 967 245 245 968 7 7 969 244 244 970 246 246 971 246 246 972 244 244 973 245 245 974 15 15 975 7 7 976 246 246 977 246 246 978 245 245 979 247 247 980 248 248 981 246 246 982 247 247 983 13 13 984 15 15 985 248 248 986 15 15 987 246 246 988 248 248 989 248 248 990 247 247 991 249 249 992 1 1 993 250 250 994 2 2 995 1 1 996 13 13 997 250 250 998 13 13 999 248 248 1000 250 250 1001 250 250 1002 248 248 1003 249 249 1004 250 250 1005 249 249 1006 251 251 1007 2 2 1008 251 251 1009 32 32 1010 2 2 1011 250 250 1012 251 251 1013 251 251 1014 38 38 1015 32 32 1016 43 43 1017 46 46 1018 252 252 1019 253 253 1020 43 43 1021 252 252 1022 253 253 1023 252 252 1024 254 254 1025 254 254 1026 252 252 1027 255 255 1028 252 252 1029 46 46 1030 255 255 1031 255 255 1032 46 46 1033 122 122 1034 256 256 1035 253 253 1036 254 254 1037 257 257 1038 253 253 1039 256 256 1040 41 41 1041 40 40 1042 257 257 1043 256 256 1044 41 41 1045 257 257 1046 253 253 1047 257 257 1048 258 258 1049 49 49 1050 44 44 1051 258 258 1052 43 43 1053 258 258 1054 44 44 1055 253 253 1056 258 258 1057 43 43 1058 90 90 1059 259 259 1060 40 40 1061 259 259 1062 258 258 1063 257 257 1064 40 40 1065 259 259 1066 257 257 1067 259 259 1068 49 49 1069 258 258 1070 260 260 1071 55 55 1072 49 49 1073 260 260 1074 259 259 1075 90 90 1076 259 259 1077 260 260 1078 49 49 1079 261 261 1080 53 53 1081 54 54 1082 262 262 1083 45 45 1084 53 53 1085 261 261 1086 262 262 1087 53 53 1088 119 119 1089 45 45 1090 262 262 1091 119 119 1092 262 262 1093 263 263 1094 263 263 1095 61 61 1096 67 67 1097 263 263 1098 62 62 1099 61 61 1100 261 261 1101 62 62 1102 263 263 1103 263 263 1104 262 262 1105 261 261 1106 73 73 1107 70 70 1108 264 264 1109 264 264 1110 70 70 1111 63 63 1112 265 265 1113 63 63 1114 62 62 1115 265 265 1116 264 264 1117 63 63 1118 265 265 1119 62 62 1120 261 261 1121 266 266 1122 50 50 1123 52 52 1124 264 264 1125 265 265 1126 266 266 1127 264 264 1128 266 266 1129 267 267 1130 74 74 1131 73 73 1132 267 267 1133 267 267 1134 266 266 1135 52 52 1136 73 73 1137 264 264 1138 267 267 1139 54 54 1140 50 50 1141 268 268 1142 268 268 1143 265 265 1144 261 261 1145 268 268 1146 261 261 1147 54 54 1148 266 266 1149 265 265 1150 268 268 1151 50 50 1152 266 266 1153 268 268 1154 269 269 1155 77 77 1156 78 78 1157 269 269 1158 78 78 1159 80 80 1160 80 80 1161 270 270 1162 269 269 1163 83 83 1164 85 85 1165 270 270 1166 269 269 1167 270 270 1168 271 271 1169 271 271 1170 98 98 1171 102 102 1172 269 269 1173 271 271 1174 77 77 1175 271 271 1176 76 76 1177 77 77 1178 272 272 1179 74 74 1180 267 267 1181 272 272 1182 267 267 1183 52 52 1184 81 81 1185 74 74 1186 272 272 1187 80 80 1188 273 273 1189 270 270 1190 80 80 1191 81 81 1192 273 273 1193 83 83 1194 273 273 1195 84 84 1196 83 83 1197 270 270 1198 273 273 1199 81 81 1200 274 274 1201 273 273 1202 81 81 1203 272 272 1204 274 274 1205 84 84 1206 275 275 1207 87 87 1208 273 273 1209 274 274 1210 275 275 1211 84 84 1212 273 273 1213 275 275 1214 276 276 1215 82 82 1216 86 86 1217 88 88 1218 87 87 1219 277 277 1220 52 52 1221 51 51 1222 277 277 1223 278 278 1224 275 275 1225 274 274 1226 278 278 1227 277 277 1228 87 87 1229 272 272 1230 278 278 1231 274 274 1232 278 278 1233 87 87 1234 275 275 1235 278 278 1236 52 52 1237 277 277 1238 278 278 1239 272 272 1240 52 52 1241 88 88 1242 277 277 1243 279 279 1244 55 55 1245 260 260 1246 279 279 1247 279 279 1248 277 277 1249 51 51 1250 279 279 1251 51 51 1252 55 55 1253 88 88 1254 279 279 1255 280 280 1256 280 280 1257 281 281 1258 88 88 1259 281 281 1260 276 276 1261 86 86 1262 281 281 1263 86 86 1264 88 88 1265 280 280 1266 282 282 1267 281 281 1268 91 91 1269 95 95 1270 283 283 1271 283 283 1272 282 282 1273 280 280 1274 95 95 1275 284 284 1276 283 283 1277 282 282 1278 283 283 1279 284 284 1280 279 279 1281 285 285 1282 280 280 1283 285 285 1284 260 260 1285 90 90 1286 280 280 1287 285 285 1288 283 283 1289 285 285 1290 91 91 1291 283 283 1292 260 260 1293 285 285 1294 279 279 1295 285 285 1296 90 90 1297 91 91 1298 282 282 1299 284 284 1300 286 286 1301 281 281 1302 282 282 1303 287 287 1304 276 276 1305 281 281 1306 287 287 1307 287 287 1308 282 282 1309 286 286 1310 276 276 1311 287 287 1312 288 288 1313 287 287 1314 286 286 1315 288 288 1316 289 289 1317 82 82 1318 276 276 1319 276 276 1320 288 288 1321 289 289 1322 289 289 1323 97 97 1324 92 92 1325 289 289 1326 92 92 1327 82 82 1328 290 290 1329 289 289 1330 288 288 1331 96 96 1332 291 291 1333 85 85 1334 85 85 1335 291 291 1336 292 292 1337 85 85 1338 292 292 1339 270 270 1340 270 270 1341 292 292 1342 271 271 1343 271 271 1344 293 293 1345 98 98 1346 293 293 1347 99 99 1348 98 98 1349 292 292 1350 291 291 1351 293 293 1352 271 271 1353 292 292 1354 293 293 1355 291 291 1356 99 99 1357 293 293 1358 294 294 1359 112 112 1360 114 114 1361 115 115 1362 294 294 1363 114 114 1364 294 294 1365 295 295 1366 112 112 1367 295 295 1368 67 67 1369 112 112 1370 296 296 1371 121 121 1372 119 119 1373 294 294 1374 296 296 1375 295 295 1376 296 296 1377 119 119 1378 297 297 1379 297 297 1380 67 67 1381 295 295 1382 297 297 1383 263 263 1384 67 67 1385 296 296 1386 297 297 1387 295 295 1388 297 297 1389 119 119 1390 263 263 1391 122 122 1392 298 298 1393 255 255 1394 299 299 1395 298 298 1396 122 122 1397 124 124 1398 298 298 1399 299 299 1400 124 124 1401 299 299 1402 120 120 1403 299 299 1404 122 122 1405 120 120 1406 154 154 1407 300 300 1408 117 117 1409 157 157 1410 156 156 1411 300 300 1412 300 300 1413 154 154 1414 153 153 1415 300 300 1416 301 301 1417 117 117 1418 302 302 1419 298 298 1420 124 124 1421 302 302 1422 124 124 1423 133 133 1424 133 133 1425 303 303 1426 302 302 1427 303 303 1428 298 298 1429 302 302 1430 304 304 1431 296 296 1432 294 294 1433 121 121 1434 304 304 1435 125 125 1436 121 121 1437 296 296 1438 304 304 1439 294 294 1440 305 305 1441 304 304 1442 115 115 1443 305 305 1444 294 294 1445 117 117 1446 305 305 1447 115 115 1448 301 301 1449 305 305 1450 117 117 1451 306 306 1452 156 156 1453 128 128 1454 156 156 1455 306 306 1456 300 300 1457 306 306 1458 301 301 1459 300 300 1460 301 301 1461 306 306 1462 307 307 1463 301 301 1464 307 307 1465 305 305 1466 306 306 1467 308 308 1468 307 307 1469 306 306 1470 128 128 1471 308 308 1472 307 307 1473 309 309 1474 305 305 1475 304 304 1476 305 305 1477 309 309 1478 125 125 1479 304 304 1480 310 310 1481 310 310 1482 304 304 1483 309 309 1484 135 135 1485 125 125 1486 311 311 1487 311 311 1488 125 125 1489 310 310 1490 312 312 1491 132 132 1492 131 131 1493 312 312 1494 131 131 1495 126 126 1496 143 143 1497 312 312 1498 144 144 1499 144 144 1500 312 312 1501 126 126 1502 143 143 1503 313 313 1504 312 312 1505 139 139 1506 313 313 1507 143 143 1508 313 313 1509 139 139 1510 132 132 1511 313 313 1512 132 132 1513 312 312 1514 314 314 1515 138 138 1516 141 141 1517 138 138 1518 314 314 1519 133 133 1520 314 314 1521 303 303 1522 133 133 1523 149 149 1524 315 315 1525 148 148 1526 290 290 1527 315 315 1528 149 149 1529 316 316 1530 148 148 1531 315 315 1532 290 290 1533 316 316 1534 315 315 1535 290 290 1536 317 317 1537 289 289 1538 317 317 1539 149 149 1540 97 97 1541 289 289 1542 317 317 1543 97 97 1544 290 290 1545 149 149 1546 317 317 1547 96 96 1548 97 97 1549 318 318 1550 318 318 1551 97 97 1552 151 151 1553 318 318 1554 151 151 1555 159 159 1556 291 291 1557 96 96 1558 319 319 1559 291 291 1560 319 319 1561 99 99 1562 319 319 1563 96 96 1564 318 318 1565 320 320 1566 153 153 1567 152 152 1568 320 320 1569 152 152 1570 99 99 1571 320 320 1572 99 99 1573 319 319 1574 320 320 1575 321 321 1576 153 153 1577 321 321 1578 157 157 1579 300 300 1580 321 321 1581 300 300 1582 153 153 1583 322 322 1584 321 321 1585 320 320 1586 158 158 1587 157 157 1588 322 322 1589 157 157 1590 321 321 1591 322 322 1592 320 320 1593 319 319 1594 323 323 1595 323 323 1596 322 322 1597 320 320 1598 319 319 1599 318 318 1600 324 324 1601 319 319 1602 324 324 1603 323 323 1604 318 318 1605 325 325 1606 324 324 1607 159 159 1608 166 166 1609 325 325 1610 325 325 1611 175 175 1612 324 324 1613 166 166 1614 175 175 1615 325 325 1616 318 318 1617 159 159 1618 325 325 1619 324 324 1620 326 326 1621 323 323 1622 175 175 1623 174 174 1624 326 326 1625 175 175 1626 326 326 1627 324 324 1628 323 323 1629 327 327 1630 322 322 1631 326 326 1632 327 327 1633 323 323 1634 322 322 1635 328 328 1636 158 158 1637 327 327 1638 328 328 1639 322 322 1640 158 158 1641 329 329 1642 155 155 1643 328 328 1644 329 329 1645 158 158 1646 329 329 1647 160 160 1648 155 155 1649 329 329 1650 330 330 1651 160 160 1652 330 330 1653 169 169 1654 160 160 1655 330 330 1656 176 176 1657 169 169 1658 328 328 1659 331 331 1660 329 329 1661 331 331 1662 330 330 1663 329 329 1664 331 331 1665 176 176 1666 330 330 1667 332 332 1668 331 331 1669 328 328 1670 327 327 1671 332 332 1672 328 328 1673 332 332 1674 176 176 1675 331 331 1676 333 333 1677 332 332 1678 327 327 1679 326 326 1680 333 333 1681 327 327 1682 333 333 1683 176 176 1684 332 332 1685 174 174 1686 176 176 1687 333 333 1688 174 174 1689 333 333 1690 326 326 1691 189 189 1692 334 334 1693 188 188 1694 189 189 1695 335 335 1696 334 334 1697 335 335 1698 336 336 1699 334 334 1700 335 335 1701 337 337 1702 336 336 1703 337 337 1704 338 338 1705 336 336 1706 337 337 1707 339 339 1708 338 338 1709 339 339 1710 193 193 1711 340 340 1712 339 339 1713 340 340 1714 338 338 1715 192 192 1716 190 190 1717 341 341 1718 193 193 1719 341 341 1720 340 340 1721 193 193 1722 192 192 1723 341 341 1724 199 199 1725 342 342 1726 187 187 1727 342 342 1728 189 189 1729 187 187 1730 343 343 1731 335 335 1732 189 189 1733 342 342 1734 343 343 1735 189 189 1736 344 344 1737 337 337 1738 335 335 1739 343 343 1740 344 344 1741 335 335 1742 345 345 1743 339 339 1744 337 337 1745 344 344 1746 345 345 1747 337 337 1748 346 346 1749 193 193 1750 339 339 1751 346 346 1752 191 191 1753 193 193 1754 345 345 1755 346 346 1756 339 339 1757 347 347 1758 346 346 1759 345 345 1760 347 347 1761 344 344 1762 343 343 1763 347 347 1764 345 345 1765 344 344 1766 347 347 1767 198 198 1768 197 197 1769 347 347 1770 195 195 1771 194 194 1772 347 347 1773 196 196 1774 195 195 1775 347 347 1776 191 191 1777 346 346 1778 347 347 1779 197 197 1780 196 196 1781 347 347 1782 194 194 1783 191 191 1784 347 347 1785 199 199 1786 198 198 1787 347 347 1788 342 342 1789 199 199 1790 347 347 1791 343 343 1792 342 342 1793 207 207 1794 205 205 1795 348 348 1796 349 349 1797 207 207 1798 348 348 1799 349 349 1800 348 348 1801 350 350 1802 351 351 1803 349 349 1804 350 350 1805 233 233 1806 349 349 1807 351 351 1808 352 352 1809 233 233 1810 351 351 1811 352 352 1812 231 231 1813 233 233 1814 350 350 1815 348 348 1816 353 353 1817 348 348 1818 205 205 1819 354 354 1820 348 348 1821 354 354 1822 353 353 1823 205 205 1824 216 216 1825 354 354 1826 353 353 1827 354 354 1828 355 355 1829 354 354 1830 216 216 1831 356 356 1832 354 354 1833 356 356 1834 355 355 1835 355 355 1836 356 356 1837 357 357 1838 356 356 1839 358 358 1840 357 357 1841 357 357 1842 358 358 1843 359 359 1844 358 358 1845 214 214 1846 360 360 1847 358 358 1848 360 360 1849 359 359 1850 214 214 1851 212 212 1852 360 360 1853 359 359 1854 360 360 1855 235 235 1856 360 360 1857 361 361 1858 235 235 1859 360 360 1860 212 212 1861 361 361 1862 236 236 1863 361 361 1864 230 230 1865 212 212 1866 210 210 1867 361 361 1868 235 235 1869 361 361 1870 236 236 1871 361 361 1872 210 210 1873 230 230 1874 362 362 1875 207 207 1876 349 349 1877 233 233 1878 232 232 1879 362 362 1880 233 233 1881 362 362 1882 349 349 1883 362 362 1884 206 206 1885 207 207 1886 363 363 1887 214 214 1888 358 358 1889 363 363 1890 213 213 1891 214 214 1892 215 215 1893 213 213 1894 363 363 1895 216 216 1896 215 215 1897 363 363 1898 356 356 1899 363 363 1900 358 358 1901 216 216 1902 363 363 1903 356 356 1904 236 236 1905 230 230 1906 364 364 1907 232 232 1908 364 364 1909 362 362 1910 362 362 1911 364 364 1912 206 206 1913 364 364 1914 230 230 1915 221 221 1916 364 364 1917 221 221 1918 206 206 1919 232 232 1920 236 236 1921 364 364 1922 148 148 1923 365 365 1924 143 143 1925 365 365 1926 238 238 1927 139 139 1928 139 139 1929 143 143 1930 365 365 1931 316 316 1932 366 366 1933 148 148 1934 366 366 1935 365 365 1936 148 148 1937 365 365 1938 366 366 1939 367 367 1940 367 367 1941 238 238 1942 365 365 1943</p>
        </polylist>
      </mesh>
    </geometry>
  </library_geometries>
  <library_controllers>
    <controller id="Armature_a004_012-skin" name="Armature">
      <skin source="#a004_012-mesh">
        <bind_shape_matrix>1 0 0 0 0 1 0 0 0 0 1 0 0 0 0 1</bind_shape_matrix>
        <source id="Armature_a004_012-skin-joints">
          <Name_array id="Armature_a004_012-skin-joints-array" count="17">CP01 FP01 GP01 Ef_01 Ef_02 J_mimiL J_mimiR J_face2 FacePos J_center J_root TP01 GRP_joint GRP_mesh a004_rd Scale a004</Name_array>
          <technique_common>
            <accessor source="#Armature_a004_012-skin-joints-array" count="17" stride="1">
              <param name="JOINT" type="name"/>
            </accessor>
          </technique_common>
        </source>
        <source id="Armature_a004_012-skin-bind_poses">
          <float_array id="Armature_a004_012-skin-bind_poses-array" count="272">1 0 0 0 0 1 0 -0.167102 0 0 1 -0.001099944 0 0 0 1 1 0 0 0 0 1 0 -0.205002 0 0 1 -0.345003 0 0 0 1 1 0 0 0 0 1 0 0 0 0 1 -0.194702 0 0 0 1 1 0 0 0 0 1 -1.19211e-6 -0.1113709 0 1.20999e-6 1 -0.3001131 0 0 0 1 1 0 0 9.99985e-6 0 0.9743698 -0.2249518 -0.058079 0 0.2249519 0.97437 -0.318373 0 0 0 1 0 -1 0 0.3445031 1 1.75806e-7 0 -0.1477521 0 0 1 -0.01488 0 0 0 1 0 -1 0 0.3445231 1 1.75806e-7 0 0.1478009 0 0 1 -0.01488 0 0 0 1 0 -1 0 0.3192231 1 1.75806e-7 0 0 0 0 1 -2.19995e-4 0 0 0 1 0.9999793 0 -0.006449937 0 0.006449937 0 0.9999793 -0.201142 0 -1 0 0.167112 0 0 0 1 0.9999793 0 -0.006449997 0 0.006449997 0 0.9999793 -0.001129984 0 -1 0 0.167112 0 0 0 1 1 -4.93426e-5 0 9.57239e-7 4.93426e-5 1 -6.52266e-5 -0.02579998 0 6.52266e-5 1 -0.001140832 0 0 0 1 1 0 0 0 0 1 0 -0.482805 0 0 1 0 0 0 0 1 1 0 0 0 0 1 0 0 0 0 1 0 0 0 0 1 1 0 0 0 0 1 0 0 0 0 1 0 0 0 0 1 1 0 0 0 0 1 0 0 0 0 1 0 0 0 0 1 1 0 0 0 0 1 0 0 0 0 1 0 0 0 0 1 1 0 0 0 0 1 0 0 0 0 1 0 0 0 0 1</float_array>
          <technique_common>
            <accessor source="#Armature_a004_012-skin-bind_poses-array" count="17" stride="16">
              <param name="TRANSFORM" type="float4x4"/>
            </accessor>
          </technique_common>
        </source>
        <source id="Armature_a004_012-skin-weights">
          <float_array id="Armature_a004_012-skin-weights-array" count="582">1 0.9 0.1 0.7 0.3 1 0.9 0.1 0.8 0.2 1 0.8 0.2 1 0.9 0.1 1 1 1 0.9 0.1 1 0.9 0.1 0.9 0.1 1 1 1 1 1 1 1 1 1 1 1 1 1 1 0.9 0.1 0.7 0.3 1 0.9 0.1 0.6 0.4 0.6 0.4 1 1 1 0.8 0.2 0.9 0.1 1 0.2 0.8 0.2 0.8 1 0.2 0.8 1 1 0.2 0.8 0.8 0.2 1 0.8 0.2 0.8 0.2 0.8 0.2 0.2 0.8 1 1 1 1 1 0.2 0.8 0.2 0.8 1 1 1 1 0.2 0.8 1 1 1 1 1 0.2 0.8 0.2 0.8 1 1 1 1 1 0.2 0.8 0.2 0.8 1 0.8 0.2 0.8 0.2 0.8 0.2 1 1 0.2 0.8 1 0.8 0.2 0.8 0.2 1 1 1 0.9 0.1 0.8 0.2 1 1 0.3 0.7 1 1 1 1 1 1 1 1 1 1 1 1 1 1 1 0.3 0.7 1 0.3 0.7 1 0.8 0.2 1 0.8 0.2 0.2 0.8 1 0.1 0.9 0.9 0.1 1 1 1 1 1 0.1 0.9 0.3 0.7 0.3 0.7 1 0.9 0.1 1 1 0.8 0.2 0.8 0.2 1 0.9 0.1 1 0.3 0.7 0.1 0.9 1 1 1 0.3 0.7 0.1 0.9 1 1 0.3 0.7 0.3 0.7 0.3 0.7 1 0.9 0.1 0.9 0.1 0.9 0.1 0.9 0.1 1 1 1 1 1 1 0.9 0.1 1 1 0.9 0.1 1 1 1 1 0.9 0.1 0.9 0.1 0.9 0.1 1 1 1 1 1 1 1 1 1 1 1 1 0.9 0.1 0.9 0.1 1 0.9 0.1 0.9 0.1 1 1 1 1 1 0.9 0.1 1 1 1 1 1 0.8 0.2 1 0.9 0.1 1 1 1 1 0.9 0.1 1 0.9 0.1 0.9 0.1 0.8 0.2 1 1 1 1 1 1 1 1 1 1 1 1 1 1 1 0.6 0.4 0.6 0.4 1 0.9 0.1 0.7 0.3 1 1 0.6 0.4 0.7 0.3 0.6 0.4 0.6 0.4 0.1 0.9 0.6 0.4 0.2 0.8 0.6 0.4 0.1 0.9 0.7 0.3 0.9 0.1 0.7 0.3 0.9 0.1 0.5 0.5 0.5 0.5 0.6 0.4 0.1 0.9 0.7 0.3 0.8 0.2 0.5 0.5 0.5 0.5 0.5 0.5 0.5 0.5 0.8 0.2 0.5 0.5 0.2 0.8 0.2 0.8 0.5 0.5 0.5 0.5 0.5 0.5 0.2 0.8 0.5 0.5 0.2 0.8 0.5 0.5 0.5 0.5 0.5 0.5 0.8 0.2 0.2 0.8 1 0.8 0.2 0.2 0.8 0.5 0.5 0.2 0.8 0.5 0.5 0.8 0.2 0.7 0.3 0.5 0.5 0.6 0.4 0.5 0.5 0.1 0.9 0.2 0.8 0.2 0.8 0.5 0.5 0.5 0.5 0.3 0.7 0.3 0.7 0.3 0.7 0.5 0.5 0.5 0.5 0.2 0.8 0.1 0.9 0.6 0.4 0.6 0.4 0.3 0.7 0.1 0.9 0.6 0.4 0.6 0.4 0.9 0.1 0.9 0.1 0.9 0.1 0.9 0.1 0.9 0.1 0.9 0.1 0.1 0.9 0.3 0.7 0.9 0.1 0.3 0.7 0.1 0.9 0.1 0.9 0.9 0.1 0.6 0.4 0.6 0.4 0.6 0.4 0.9 0.1 0.9 0.1 0.9 0.1 0.9 0.1 0.9 0.1 0.9 0.1 0.9 0.1 0.9 0.1 0.9 0.1 0.9 0.1 0.9 0.1 0.9 0.1 0.9 0.1 0.9 0.1 0.9 0.1 0.9 0.1 0.9 0.1 0.9 0.1 0.9 0.1 0.9 0.1 0.9 0.1 0.9 0.1 0.9 0.1 0.9 0.1 0.9 0.1 0.9 0.1 0.6 0.4 0.6 0.4 0.6 0.4 0.7 0.3 0.9 0.1 0.1 0.9 0.6 0.4 0.2 0.8 0.6 0.4 0.1 0.9 0.7 0.3 0.9 0.1 0.7 0.3 0.7 0.3 0.9 0.1 0.9 0.1 0.9 0.1 0.8 0.2 0.9 0.1 0.9 0.1</float_array>
          <technique_common>
            <accessor source="#Armature_a004_012-skin-weights-array" count="582" stride="1">
              <param name="WEIGHT" type="float"/>
            </accessor>
          </technique_common>
        </source>
        <joints>
          <input semantic="JOINT" source="#Armature_a004_012-skin-joints"/>
          <input semantic="INV_BIND_MATRIX" source="#Armature_a004_012-skin-bind_poses"/>
        </joints>
        <vertex_weights count="368">
          <input semantic="JOINT" source="#Armature_a004_012-skin-joints" offset="0"/>
          <input semantic="WEIGHT" source="#Armature_a004_012-skin-weights" offset="1"/>
          <vcount>1 2 2 1 2 2 1 2 1 2 1 1 1 2 1 2 2 1 1 1 1 1 1 1 1 1 1 1 1 1 1 2 2 1 2 2 2 1 1 1 2 2 1 2 2 1 2 1 1 2 2 1 2 2 2 2 1 1 1 1 1 2 2 1 1 1 1 2 1 1 1 1 1 2 2 1 1 1 1 1 2 2 1 2 2 2 1 1 2 1 2 2 1 1 1 2 2 1 1 2 1 1 1 1 1 1 1 1 1 1 1 1 1 1 1 2 1 2 1 2 1 2 2 1 2 2 1 1 1 1 1 2 2 2 1 2 1 1 2 2 1 2 1 2 2 1 1 1 2 2 1 1 2 2 2 1 2 2 2 2 1 1 1 1 1 1 2 1 1 2 1 1 1 1 2 2 2 1 1 1 1 1 1 1 1 1 1 1 1 2 2 1 2 2 1 1 1 1 1 2 1 1 1 1 1 2 1 2 1 1 1 1 2 1 2 2 2 1 1 1 1 1 1 1 1 1 1 1 1 1 1 1 2 2 1 2 2 1 1 2 2 2 2 2 2 2 2 2 2 2 2 2 2 2 2 2 2 2 2 2 2 2 2 2 2 2 2 2 2 2 2 2 2 2 2 2 2 1 2 2 2 2 2 2 2 2 2 2 2 2 2 2 2 2 2 2 2 2 2 2 2 2 2 2 2 2 2 2 2 2 2 2 2 2 2 2 2 2 2 2 2 2 2 2 2 2 2 2 2 2 2 2 2 2 2 2 2 2 2 2 2 2 2 2 2 2 2 2 2 2 2 2 2 2 2 2 2 2 2 2 2 2 2 2 2 2 2 2 </vcount>
          <v>6 0 6 1 7 2 6 3 7 4 6 5 6 6 7 7 6 8 7 9 6 10 6 11 7 12 6 13 6 14 7 15 6 16 6 17 6 18 6 19 7 20 6 21 6 22 7 23 6 24 7 25 6 26 6 27 6 28 6 29 6 30 6 31 6 32 6 33 6 34 6 35 6 36 6 37 6 38 6 39 6 40 7 41 6 42 7 43 7 44 7 45 9 46 6 47 7 48 6 49 7 50 7 51 7 52 7 53 7 54 9 55 7 56 9 57 9 58 7 59 9 60 7 61 9 62 9 63 7 64 9 65 9 66 9 67 7 68 9 69 9 70 10 71 9 72 9 73 10 74 9 75 10 76 9 77 10 78 7 79 9 80 7 81 7 82 7 83 7 84 10 85 9 86 10 87 9 88 10 89 10 90 10 91 10 92 10 93 9 94 10 95 10 96 10 97 10 98 10 99 10 100 9 101 10 102 9 103 10 104 10 105 10 106 10 107 10 108 10 109 9 110 10 111 9 112 10 113 9 114 9 115 10 116 9 117 10 118 9 119 10 120 9 121 9 122 7 123 9 124 7 125 7 126 9 127 7 128 9 129 9 130 7 131 7 132 7 133 9 134 9 135 10 136 9 137 10 138 9 139 10 140 10 141 10 142 10 143 10 144 10 145 10 146 10 147 10 148 10 149 10 150 10 151 10 152 10 153 10 154 10 155 9 156 10 157 10 158 9 159 10 160 9 161 9 162 10 163 9 164 9 165 10 166 7 167 9 168 9 169 7 170 9 171 9 172 10 173 9 174 9 175 9 176 9 177 9 178 7 179 9 180 7 181 9 182 7 183 9 184 9 185 9 186 10 187 9 188 7 189 7 190 9 191 7 192 9 193 7 194 7 195 9 196 9 197 7 198 9 199 7 200 9 201 9 202 9 203 9 204 7 205 9 206 7 207 9 208 9 209 9 210 9 211 10 212 9 213 10 214 9 215 10 216 9 217 9 218 10 219 9 220 10 221 9 222 10 223 9 224 10 225 9 226 9 227 9 228 9 229 9 230 9 231 9 232 10 233 9 234 9 235 9 236 10 237 9 238 9 239 9 240 9 241 9 242 10 243 9 244 10 245 9 246 10 247 9 248 9 249 9 250 9 251 9 252 9 253 9 254 9 255 9 256 9 257 9 258 9 259 9 260 10 261 9 262 10 263 9 264 9 265 10 266 9 267 10 268 9 269 9 270 9 271 9 272 9 273 9 274 10 275 7 276 7 277 7 278 5 279 5 280 5 281 7 282 5 283 5 284 7 285 5 286 5 287 5 288 5 289 5 290 7 291 5 292 5 293 7 294 5 295 7 296 5 297 7 298 5 299 5 300 5 301 5 302 5 303 5 304 5 305 5 306 5 307 5 308 5 309 5 310 5 311 5 312 7 313 5 314 7 315 5 316 7 317 7 318 7 319 9 320 5 321 7 322 7 323 7 324 6 325 7 326 7 327 9 328 7 329 9 330 6 331 7 332 6 333 7 334 6 335 7 336 6 337 7 338 6 339 7 340 6 341 7 342 6 343 7 344 7 345 9 346 6 347 7 348 7 349 9 350 7 351 9 352 7 353 9 354 7 355 9 356 6 357 7 358 7 359 9 360 7 361 9 362 7 363 9 364 7 365 9 366 7 367 9 368 9 369 10 370 9 371 10 372 9 373 10 374 9 375 10 376 9 377 10 378 9 379 10 380 9 381 10 382 9 383 10 384 9 385 10 386 9 387 10 388 9 389 10 390 9 391 10 392 9 393 10 394 9 395 10 396 9 397 10 398 7 399 9 400 9 401 9 402 10 403 7 404 9 405 7 406 9 407 7 408 9 409 7 410 9 411 7 412 9 413 7 414 9 415 7 416 9 417 7 418 9 419 7 420 9 421 5 422 7 423 7 424 9 425 5 426 7 427 9 428 10 429 9 430 10 431 9 432 10 433 9 434 10 435 9 436 10 437 9 438 10 439 9 440 10 441 6 442 7 443 7 444 9 445 9 446 10 447 9 448 10 449 7 450 9 451 6 452 7 453 9 454 10 455 9 456 10 457 9 458 10 459 9 460 10 461 9 462 10 463 9 464 10 465 9 466 10 467 9 468 10 469 7 470 9 471 7 472 9 473 7 474 9 475 7 476 9 477 5 478 7 479 7 480 9 481 9 482 10 483 9 484 10 485 9 486 10 487 9 488 10 489 9 490 10 491 9 492 10 493 9 494 10 495 9 496 10 497 9 498 10 499 9 500 10 501 9 502 10 503 9 504 10 505 9 506 10 507 9 508 10 509 9 510 10 511 9 512 10 513 9 514 10 515 9 516 10 517 9 518 10 519 9 520 10 521 9 522 10 523 9 524 10 525 9 526 10 527 9 528 10 529 9 530 10 531 9 532 10 533 9 534 10 535 9 536 10 537 9 538 10 539 9 540 10 541 5 542 7 543 5 544 7 545 7 546 9 547 7 548 9 549 7 550 9 551 5 552 7 553 5 554 7 555 5 556 7 557 5 558 7 559 5 560 7 561 5 562 7 563 7 564 9 565 5 566 7 567 5 568 7 569 5 570 7 571 5 572 7 573 5 574 7 575 7 576 9 577 7 578 9 579 7 580 9 581</v>
        </vertex_weights>
      </skin>
    </controller>
  </library_controllers>
  <library_visual_scenes>
    <visual_scene id="Default" name="Default">
      <node id="Armature" name="Armature" type="NODE">
        <matrix sid="transform">1 0 0 0 0 1 0 0 0 0 1 0 0 0 0 1</matrix>
        <node id="a004" name="a004" sid="a004" type="JOINT">
          <matrix sid="transform">1 0 0 0 0 1 0 0 0 0 1 0 0 0 0 1</matrix>
          <node id="Scale" name="Scale" sid="Scale" type="JOINT">
            <matrix sid="transform">1 0 0 0 0 1 0 0 0 0 1 0 0 0 0 1</matrix>
            <node id="a004_rd" name="a004_rd" sid="a004_rd" type="JOINT">
              <matrix sid="transform">1 0 0 0 0 1 0 0 0 0 1 0 0 0 0 1</matrix>
              <node id="GRP_joint" name="GRP_joint" sid="GRP_joint" type="JOINT">
                <matrix sid="transform">1 0 0 0 0 1 0 0 0 0 1 0 0 0 0 1</matrix>
                <node id="CP01" name="CP01" sid="CP01" type="JOINT">
                  <matrix sid="transform">1 0 0 0 0 1 0 0.167102 0 0 1 0.0011 0 0 0 1</matrix>
                </node>
                <node id="FP01" name="FP01" sid="FP01" type="JOINT">
                  <matrix sid="transform">1 0 0 0 0 1 0 0.205002 0 0 1 0.345003 0 0 0 1</matrix>
                </node>
                <node id="GP01" name="GP01" sid="GP01" type="JOINT">
                  <matrix sid="transform">1 0 0 0 0 1 0 0 0 0 1 0.194702 0 0 0 1</matrix>
                </node>
                <node id="J_root" name="J_root" sid="J_root" type="JOINT">
                  <matrix sid="transform">1 4.93426e-5 3.39423e-9 3.15804e-7 -4.93426e-5 1 6.52266e-5 0.02580008 -1.75774e-10 -6.52266e-5 1 0.001139194 0 0 0 1</matrix>
                  <node id="J_center" name="J_center" sid="J_center" type="JOINT">
                    <matrix sid="transform">0.9999792 0.006450001 4.9341e-5 -4.54747e-13 4.97604e-5 -6.4907e-5 -0.9999999 0.1413119 -0.006449997 0.9999791 -6.51706e-5 0 0 0 0 1</matrix>
                    <node id="Ef_01" name="Ef_01" sid="Ef_01" type="JOINT">
                      <matrix sid="transform">0.9999793 4.50782e-9 -0.006450002 -0.001935729 0.006450002 -1.154e-6 0.9999792 0.2989767 -2.93559e-9 -1 -1.1921e-6 0.0557407 0 0 0 1</matrix>
                    </node>
                    <node id="Ef_02" name="Ef_02" sid="Ef_02" type="JOINT">
                      <matrix sid="transform">0.9999792 0.001450936 -0.006284688 -0.001926605 0.00645 -0.2249471 0.9743496 0.2960118 -3.72529e-9 -0.97437 -0.2249519 0.03890297 0 0 0 1</matrix>
                    </node>
                    <node id="J_face2" name="J_face2" sid="J_face2" type="JOINT">
                      <matrix sid="transform">1.77883e-7 0.9999791 -0.006449999 -1.41928e-6 -7.4353e-8 0.006449998 0.9999791 -9.09995e-4 0.9999999 0 7.54979e-8 -0.152111 0 0 0 1</matrix>
                      <node id="J_mimiL" name="J_mimiL" sid="J_mimiL" type="JOINT">
                        <matrix sid="transform">1 0 -7.5486e-8 -0.02528 0 1 0 0.147752 7.54859e-8 0 1 0.01466 0 0 0 1</matrix>
                      </node>
                      <node id="J_mimiR" name="J_mimiR" sid="J_mimiR" type="JOINT">
                        <matrix sid="transform">1 0 -7.5486e-8 -0.02530003 0 1 0 -0.147801 7.54859e-8 0 1 0.01466 0 0 0 1</matrix>
                      </node>
                    </node>
                    <node id="FacePos" name="FacePos" sid="FacePos" type="JOINT">
                      <matrix sid="transform">1 -8.84756e-9 3.04408e-9 9.50422e-11 8.84756e-9 1 -3.55271e-15 0.200012 -3.04408e-9 0 1 0 0 0 0 1</matrix>
                    </node>
                  </node>
                </node>
                <node id="TP01" name="TP01" sid="TP01" type="JOINT">
                  <matrix sid="transform">1 0 0 0 0 1 0 0.482805 0 0 1 0 0 0 0 1</matrix>
                </node>
              </node>
              <node id="GRP_mesh" name="GRP_mesh" sid="GRP_mesh" type="JOINT">
                <matrix sid="transform">1 0 0 0 0 1 0 0 0 0 1 0 0 0 0 1</matrix>
              </node>
            </node>
          </node>
        </node>
      </node>
      <node id="a004_012" name="a004_012" type="NODE">
        <translate sid="location">0 0 0</translate>
        <rotate sid="rotationZ">0 0 1 0</rotate>
        <rotate sid="rotationY">0 1 0 0</rotate>
        <rotate sid="rotationX">1 0 0 0</rotate>
        <scale sid="scale">1 1 1</scale>
        <instance_controller url="#Armature_a004_012-skin">
          <skeleton>#a004</skeleton>
          <bind_material>
            <technique_common>
              <instance_material symbol="VisualMaterial0_001-material-material" target="#VisualMaterial0_001-material-material">
                <bind_vertex_input semantic="GeometrySource2" input_semantic="TEXCOORD" input_set="0"/>
              </instance_material>
            </technique_common>
          </bind_material>
        </instance_controller>
      </node>
    </visual_scene>
  </library_visual_scenes>
  <scene>
    <instance_visual_scene url="#Default"/>
  </scene>
</COLLADA>